<?xml version="1.0" encoding="utf-8"?>
<!-- Generator: Adobe Illustrator 24.3.0, SVG Export Plug-In . SVG Version: 6.00 Build 0)  -->
<svg version="1.1" id="Layer_1" xmlns="http://www.w3.org/2000/svg" xmlns:xlink="http://www.w3.org/1999/xlink" x="0px" y="0px"
	 viewBox="0 0 592.6 76.8" style="enable-background:new 0 0 592.6 76.8;" xml:space="preserve">
<style type="text/css">
	.st0{fill:url(#SVGID_1_);}
	.st1{fill:url(#SVGID_2_);}
	.st2{fill:url(#SVGID_3_);}
	.st3{fill:url(#SVGID_4_);}
	.st4{fill:url(#SVGID_5_);}
	.st5{clip-path:url(#SVGID_7_);}
	.st6{fill:#ED6524;}
	.st7{fill:#E6E7E8;}
	.st8{fill:#D1D3D4;}
	.st9{fill:#A7A9AC;}
	.st10{fill:#FFFFFF;}
	.st11{fill:url(#SVGID_10_);}
	.st12{fill:url(#SVGID_11_);}
	.st13{fill:url(#SVGID_12_);}
	.st14{fill:none;stroke:#ED6524;stroke-miterlimit:10;}
	.st15{fill:#FF7F30;}
	.st16{fill:#898A8D;}
	.st17{fill:#E6427A;}
	.st18{fill:#0CACA8;}
	.st19{fill:none;}
	.st20{font-family:'OpenSans-Extrabold';}
	.st21{font-size:3.3572px;}
	.st22{fill:#231F20;}
	.st23{fill:#ED1C24;}
	.st24{fill-rule:evenodd;clip-rule:evenodd;fill:#00AEEF;}
	.st25{fill-rule:evenodd;clip-rule:evenodd;}
	.st26{fill-rule:evenodd;clip-rule:evenodd;fill:#FFF200;}
	.st27{fill-rule:evenodd;clip-rule:evenodd;fill:#EC008C;}
	.st28{fill-rule:evenodd;clip-rule:evenodd;fill:#231F20;}
	.st29{fill-rule:evenodd;clip-rule:evenodd;fill:#CE0E2D;}
	.st30{fill:#0057A8;}
	.st31{fill:#808285;}
	.st32{fill:url(#SVGID_13_);}
	.st33{fill:url(#SVGID_14_);}
	.st34{fill:url(#SVGID_15_);}
	.st35{fill:url(#SVGID_16_);}
	.st36{fill:#00AEEF;}
	.st37{fill:#FFF200;}
	.st38{fill:#EC008C;}
	.st39{fill:url(#SVGID_17_);}
	.st40{fill:url(#SVGID_18_);}
	.st41{fill:url(#SVGID_19_);}
	.st42{fill:url(#SVGID_20_);}
	.st43{fill-rule:evenodd;clip-rule:evenodd;fill:#176DB0;}
	.st44{fill-rule:evenodd;clip-rule:evenodd;fill:#C35557;}
	.st45{fill:#176DB0;}
	.st46{clip-path:url(#SVGID_22_);fill:#2170B4;}
	.st47{clip-path:url(#SVGID_22_);fill:none;stroke:#FFFFFF;stroke-width:0.3344;stroke-miterlimit:10;}
	.st48{clip-path:url(#SVGID_22_);fill:#FFFFFF;}
	.st49{clip-path:url(#SVGID_22_);fill:none;stroke:#FFFFFF;stroke-width:4.799914e-02;stroke-miterlimit:3.864;}
	.st50{fill:url(#SVGID_23_);}
	.st51{fill:url(#SVGID_24_);}
	.st52{fill-rule:evenodd;clip-rule:evenodd;fill:url(#SVGID_25_);}
	.st53{fill-rule:evenodd;clip-rule:evenodd;fill:#ED1C24;}
	.st54{font-family:'Helvetica';}
	.st55{font-size:2.7436px;}
	.st56{clip-path:url(#SVGID_27_);fill:#F15629;}
	.st57{clip-path:url(#SVGID_27_);fill:#FFFFFF;}
	.st58{clip-path:url(#SVGID_29_);fill:url(#SVGID_30_);}
	.st59{fill:#6D6E71;}
	.st60{clip-path:url(#SVGID_32_);}
	.st61{clip-path:url(#SVGID_34_);fill:#E6E7E8;}
	.st62{fill:#CD036F;}
	.st63{fill:#014999;}
	.st64{fill-rule:evenodd;clip-rule:evenodd;fill:#DA2128;}
</style>
<line class="st14" x1="5.4" y1="7.6" x2="585.6" y2="7.6"/>
<g>
	<polygon class="st15" points="345.9,33.3 345.3,33.3 345.3,33 347,33 347,33.3 346.3,33.3 346.3,35 345.9,35 	"/>
	<polygon class="st15" points="347.2,33 347.7,33 347.7,33.8 348.5,33.8 348.5,33 348.9,33 348.9,35 348.5,35 348.5,34.1 
		347.7,34.1 347.7,35 347.2,35 	"/>
	<polygon class="st15" points="349.3,33 350.7,33 350.7,33.3 349.7,33.3 349.7,33.8 350.4,33.8 350.4,34.1 349.7,34.1 349.7,34.6 
		350.7,34.6 350.7,35 349.3,35 	"/>
	<path class="st15" d="M354.4,33.9c0.3,0,0.4-0.1,0.4-0.3c0-0.2-0.1-0.3-0.4-0.3h-0.3v0.6H354.4z M353.7,33h0.8
		c0.5,0,0.8,0.2,0.8,0.6c0,0.3-0.2,0.5-0.4,0.6l0.5,0.8h-0.5l-0.4-0.8h-0.3V35h-0.4V33z"/>
	<polygon class="st15" points="356,33.3 355.4,33.3 355.4,33 357,33 357,33.3 356.4,33.3 356.4,35 356,35 	"/>
	<path class="st15" d="M359.4,34c0-0.4-0.2-0.7-0.5-0.7c-0.3,0-0.5,0.3-0.5,0.7c0,0.4,0.2,0.7,0.5,0.7
		C359.2,34.7,359.4,34.4,359.4,34 M357.9,34c0-0.7,0.5-1.1,1-1.1c0.5,0,1,0.3,1,1.1c0,0.7-0.5,1.1-1,1.1
		C358.4,35,357.9,34.7,357.9,34"/>
	<polygon class="st15" points="360.1,33 361.5,33 361.5,33.3 360.6,33.3 360.6,33.8 361.2,33.8 361.2,34.2 360.6,34.2 360.6,35 
		360.1,35 	"/>
	<path class="st15" d="M362.3,33h0.5l0.2,0.9c0,0.1,0.1,0.3,0.1,0.4h0c0-0.2,0.1-0.3,0.1-0.4l0.2-0.9h0.4l0.2,0.9
		c0,0.2,0.1,0.3,0.1,0.4h0c0-0.2,0.1-0.3,0.1-0.4l0.2-0.9h0.4l-0.5,2h-0.4l-0.3-1.4h0l-0.3,1.4h-0.4L362.3,33z"/>
	<polygon class="st15" points="365.1,33 365.5,33 365.5,33.8 366.3,33.8 366.3,33 366.8,33 366.8,35 366.3,35 366.3,34.1 
		365.5,34.1 365.5,35 365.1,35 	"/>
	<path class="st15" d="M368.1,34.2l-0.2-0.7h0l-0.2,0.7H368.1z M367.7,33h0.4l0.7,2h-0.5l-0.2-0.5h-0.7l-0.2,0.5H367L367.7,33z"/>
	<polygon class="st15" points="369.2,33.3 368.6,33.3 368.6,33 370.3,33 370.3,33.3 369.7,33.3 369.7,35 369.2,35 	"/>
	<polygon class="st15" points="370.7,33.4 370.5,33.4 370.5,33 371,33 371,33.4 370.8,33.7 370.6,33.7 	"/>
	<path class="st15" d="M371,34.5l0.3-0.2c0.1,0.2,0.3,0.3,0.5,0.3c0.2,0,0.4-0.1,0.4-0.2c0-0.1-0.1-0.2-0.4-0.3
		c-0.4-0.1-0.7-0.2-0.7-0.6c0-0.4,0.3-0.6,0.7-0.6c0.4,0,0.7,0.2,0.8,0.4l-0.3,0.2c-0.1-0.2-0.3-0.3-0.5-0.3c-0.2,0-0.3,0.1-0.3,0.2
		c0,0.2,0.2,0.2,0.4,0.3c0.4,0.1,0.7,0.2,0.7,0.6c0,0.3-0.2,0.6-0.8,0.6C371.5,35,371.2,34.8,371,34.5"/>
	<polygon class="st15" points="374,33 374.4,33 375.3,34.3 375.3,34.3 375.3,33 375.7,33 375.7,35 375.3,35 374.4,33.7 374.4,33.7 
		374.4,35 374,35 	"/>
	<polygon class="st15" points="376,33 377.4,33 377.4,33.3 376.5,33.3 376.5,33.8 377.2,33.8 377.2,34.1 376.5,34.1 376.5,34.6 
		377.5,34.6 377.5,35 376,35 	"/>
	<polygon class="st15" points="378.4,33.9 377.7,33 378.2,33 378.5,33.6 378.9,33 379.4,33 378.7,33.9 379.5,35 379,35 378.6,34.3 
		378.1,35 377.7,35 	"/>
	<polygon class="st15" points="380.2,33.3 379.6,33.3 379.6,33 381.2,33 381.2,33.3 380.6,33.3 380.6,35 380.2,35 	"/>
	<path class="st15" d="M352.7,34.2l-0.2-0.7h0l-0.2,0.7H352.7z M352.3,33h0.4l0.7,2H353l-0.2-0.5h-0.7L352,35h-0.4L352.3,33z"/>
	<polygon class="st16" points="382.1,22.4 381.6,22.4 381.6,22.1 382.8,22.1 382.8,22.4 382.3,22.4 382.3,23.6 382.1,23.6 	"/>
	<path class="st16" d="M383,22.1h0.3l0.4,1.2h0l0.4-1.2h0.3v1.5h-0.2v-1.1h0c0,0.1-0.1,0.2-0.1,0.3l-0.3,0.8h-0.2l-0.3-0.8
		c0-0.1-0.1-0.2-0.1-0.3h0v1.1H383V22.1z"/>
	<path class="st16" d="M371.6,25.3c-1.3-0.4-1.7-0.6-1.7-1.3c0-0.5,0.4-1,1.4-1c0.8,0,1.3,0.3,1.7,1l1.1-0.5
		c-0.4-0.9-1.3-1.6-2.8-1.6c-1.6,0-2.7,0.9-2.7,2.2c0,1.5,1,1.9,2.7,2.4c1.3,0.4,1.7,0.7,1.7,1.4c0,0.7-0.5,1.2-1.6,1.2
		c-1,0-1.6-0.5-1.9-1.3l-1.2,0.4c0.4,1.1,1.3,1.9,3,1.9c1.8,0,2.9-1,2.9-2.4C374.3,26.5,373.5,25.9,371.6,25.3"/>
	<path class="st16" d="M378.5,25.3c-1.3-0.4-1.7-0.6-1.7-1.3c0-0.5,0.4-1,1.4-1c0.8,0,1.3,0.3,1.7,1l1.1-0.5
		c-0.4-0.9-1.3-1.6-2.8-1.6c-1.6,0-2.7,0.9-2.7,2.2c0,1.5,1,1.9,2.7,2.4c1.3,0.4,1.7,0.7,1.7,1.4c0,0.7-0.5,1.2-1.6,1.2
		c-1,0-1.6-0.5-1.9-1.3l-1.2,0.4c0.4,1.1,1.3,1.9,3,1.9c1.8,0,2.9-1,2.9-2.4C381.2,26.5,380.5,25.9,378.5,25.3"/>
	<path class="st16" d="M349.4,27.1h2.1c-0.2,1.1-0.8,2-2.1,2c-1.3,0-2.1-1.1-2.1-3c0-1.9,0.6-2.9,2-2.9c1,0,1.5,0.4,1.8,1.4l1.2-0.3
		c-0.4-1.3-1.3-2.3-3-2.3c-2.1,0-3.4,1.2-3.4,4.1c0,2.6,1.4,4.1,3.4,4.1c1.1,0,1.8-0.5,2.2-1.2v1.2h1.1V26h-3.2V27.1z"/>
	<path class="st16" d="M356.8,25.6h-1.6V23h1.6c1.1,0,1.6,0.4,1.6,1.3C358.5,25.3,357.9,25.6,356.8,25.6 M359.8,24.4
		c0-1.4-0.8-2.4-2.9-2.4h-3v8.2h1.3v-3.5h1.7l1.5,3.5h1.3l-1.6-3.7C359.1,26.2,359.8,25.5,359.8,24.4"/>
	<path class="st16" d="M365.4,26.9h-2.2l1.1-3.4L365.4,26.9z M363.6,22l-3.1,8.2h1.3l0.8-2.2h3l0.8,2.2l1.3,0l-3.1-8.2H363.6z"/>
	<path class="st16" d="M325.2,25.3c-1.3-0.4-1.7-0.6-1.7-1.3c0-0.5,0.4-1,1.4-1c0.8,0,1.3,0.3,1.7,1l1.1-0.5
		c-0.4-0.9-1.3-1.6-2.8-1.6c-1.6,0-2.7,0.9-2.7,2.2c0,1.5,1,1.9,2.7,2.4c1.3,0.4,1.7,0.7,1.7,1.4c0,0.7-0.5,1.2-1.6,1.2
		c-1,0-1.6-0.5-1.9-1.3l-1.2,0.4c0.4,1.1,1.3,1.9,3,1.9c1.8,0,2.9-1,2.9-2.4C327.9,26.5,327.1,25.9,325.2,25.3"/>
	<path class="st16" d="M333.1,26.9h-2.2l1.1-3.4L333.1,26.9z M331.3,22l-3.1,8.2h1.3l0.8-2.2h3l0.8,2.2l1.3,0l-3.1-8.2H331.3z"/>
	<path class="st15" d="M341.9,29l-0.9-2.4l1.3-3.7h1.9L341.9,29z M341.6,22l-1.6,4.4v0l0,0.6l1.3,3.2h1.3l3.1-8.2H341.6z"/>
	<path class="st17" d="M338.1,29l-2.2-6h1.9l1.3,3.7L338.1,29z M340,26.4l-1.6-4.4h-4.1l3.1,8.2h1.3l1.3-3.2L340,26.4z"/>
</g>
<g>
	<g>
		<path class="st18" d="M333,67.5c-1.1,0-2.8-0.1-3.8-0.9v-1.9c0.7,0.8,1.9,1.3,3.3,1.6c1,0.2,1.3,0.4,1.3,0.6l0,0.1
			C333.8,67.2,333.5,67.5,333,67.5z"/>
		<path class="st18" d="M336.8,60.6v4.7c-0.5-1.2-1.9-1.7-3.8-2.1c-1-0.2-1.3-0.4-1.3-0.6v0c0-0.2,0.2-0.4,0.7-0.4
			c0.9,0,2.7,0.3,3.6,1L336.8,60.6z"/>
		<path class="st18" d="M336.8,67.7v4h-7.7v-2.3c1.1,0.5,2.4,0.6,3.8,0.6C334.9,70,336.3,69.1,336.8,67.7z"/>
		<path class="st18" d="M342.2,64.6c0,0.8-0.1,1.4-0.2,1.8c-0.2,0.4-0.4,0.6-0.8,0.6c-0.3,0-0.5-0.1-0.7-0.3
			c-0.2-0.2-0.3-0.5-0.3-0.9v-2.4c0-0.4,0.1-0.7,0.3-0.9c0.2-0.2,0.4-0.3,0.6-0.3c0.4,0,0.6,0.2,0.8,0.6
			C342.1,63.2,342.2,63.7,342.2,64.6z"/>
		<path class="st18" d="M352.9,50.5v10.6c0,0-0.4-1.6-3.5-1.6c-2.4,0-3.6,2.1-4,2.9c-0.1-0.5-0.4-1-0.6-1.4
			c-0.6-0.8-1.4-1.3-2.4-1.3c-1.2,0-2,0.5-2.4,1.5V60h-3.1v0.6c-1.1-0.9-2.5-1.1-4.3-1.1c-1.6,0-2.7,0.6-3.4,1.4V47.9h21.2
			C351.8,47.9,352.9,49.1,352.9,50.5z"/>
		<path class="st18" d="M351.1,63.6l1.9-1.3v4.7l-1.5-1.2c0,0-0.6,1.4-1.6,1.4s-1.4-1.1-1.4-1.7c0-0.6,0.1-2,0.1-2s0.1-1.1,1.2-1.1
			C350.9,62.4,351.1,63.6,351.1,63.6z"/>
		<path class="st18" d="M352.9,68.4v3.3h-12.7v-3.5c0.1,1,1.2,1.9,2.2,1.9c1.2,0,1.8-0.4,2.4-1.3c0.2-0.3,0.4-0.8,0.5-1.3
			c0.4,0.8,1.5,2.6,4,2.7C352.7,70.3,352.9,68.4,352.9,68.4z"/>
	</g>
	<text transform="matrix(0.9498 0 0 1 355.8717 61.8965)"><tspan x="0" y="0" class="st20 st21">swiss</tspan><tspan x="0" y="3.4" class="st20 st21">performance</tspan><tspan x="0" y="6.8" class="st20 st21">chemicals</tspan></text>
</g>
<g>
	<g>
		<g>
			<path class="st22" d="M526.2,21.6h4.9v1.6h-2.9v1.3h2.5v1.5h-2.5v3h-2V21.6z"/>
			<path class="st22" d="M532,25.3c0-1.2,0.3-2.1,0.9-2.8c0.6-0.7,1.4-1,2.4-1c1.1,0,1.9,0.3,2.5,1c0.6,0.7,0.9,1.6,0.9,2.8
				c0,0.9-0.1,1.6-0.4,2.1c-0.3,0.6-0.6,1-1.1,1.3c-0.5,0.3-1.1,0.5-1.8,0.5c-0.7,0-1.3-0.1-1.8-0.4c-0.5-0.3-0.9-0.7-1.2-1.3
				C532.1,26.9,532,26.1,532,25.3z M533.9,25.3c0,0.7,0.1,1.3,0.4,1.6c0.2,0.3,0.6,0.5,1,0.5c0.4,0,0.8-0.2,1-0.5
				c0.2-0.3,0.4-0.9,0.4-1.7c0-0.7-0.1-1.2-0.4-1.5s-0.6-0.5-1-0.5c-0.4,0-0.7,0.2-1,0.5C534.1,24,533.9,24.5,533.9,25.3z"/>
			<path class="st22" d="M539.7,29v-7.4h3.3c0.6,0,1.1,0.1,1.4,0.2c0.3,0.1,0.6,0.3,0.8,0.7c0.2,0.3,0.3,0.7,0.3,1.2
				c0,0.4-0.1,0.8-0.2,1.1c-0.2,0.3-0.4,0.5-0.6,0.7c-0.2,0.1-0.4,0.2-0.7,0.3c0.2,0.1,0.4,0.2,0.5,0.3c0.1,0.1,0.2,0.2,0.3,0.4
				c0.1,0.2,0.2,0.4,0.3,0.5l1,2.1h-2.2l-1.1-2.3c-0.1-0.3-0.3-0.5-0.4-0.6c-0.1-0.1-0.3-0.2-0.5-0.2h-0.2v3H539.7z M541.7,24.6h0.8
				c0.1,0,0.3,0,0.5-0.1c0.1,0,0.2-0.1,0.3-0.2c0.1-0.1,0.1-0.3,0.1-0.4c0-0.2-0.1-0.4-0.2-0.5c-0.1-0.1-0.4-0.2-0.7-0.2h-0.9V24.6z
				"/>
			<path class="st22" d="M546.3,26.5l1.9-0.1c0,0.4,0.1,0.6,0.3,0.8c0.2,0.3,0.5,0.4,0.9,0.4c0.3,0,0.5-0.1,0.7-0.2
				c0.2-0.2,0.2-0.3,0.2-0.5c0-0.2-0.1-0.4-0.2-0.5c-0.1-0.2-0.5-0.3-1-0.4c-0.9-0.2-1.5-0.5-1.9-0.9c-0.4-0.4-0.6-0.8-0.6-1.4
				c0-0.4,0.1-0.7,0.3-1.1c0.2-0.3,0.5-0.6,0.9-0.8c0.4-0.2,0.9-0.3,1.6-0.3c0.8,0,1.4,0.2,1.9,0.5c0.4,0.4,0.7,0.9,0.8,1.7
				l-1.9,0.1c0-0.3-0.2-0.6-0.3-0.7c-0.2-0.2-0.4-0.2-0.7-0.2c-0.2,0-0.4,0.1-0.5,0.2c-0.1,0.1-0.2,0.2-0.2,0.4c0,0.1,0,0.2,0.1,0.3
				c0.1,0.1,0.3,0.2,0.7,0.3c0.9,0.2,1.5,0.4,1.9,0.7c0.4,0.2,0.6,0.5,0.8,0.8c0.2,0.3,0.3,0.7,0.3,1.1c0,0.5-0.1,0.9-0.3,1.3
				c-0.2,0.4-0.5,0.7-1,0.9c-0.4,0.2-0.9,0.3-1.5,0.3c-1.1,0-1.9-0.2-2.3-0.7S546.4,27.3,546.3,26.5z"/>
			<path class="st22" d="M552.7,21.6h6v1.8h-2V29h-2v-5.6h-2V21.6z"/>
			<path class="st22" d="M559.7,21.6h2v2.6h2.2v-2.6h2V29h-2v-3h-2.2v3h-2V21.6z"/>
			<path class="st22" d="M566.9,25.3c0-1.2,0.3-2.1,0.9-2.8c0.6-0.7,1.4-1,2.4-1c1.1,0,1.9,0.3,2.5,1c0.6,0.7,0.9,1.6,0.9,2.8
				c0,0.9-0.1,1.6-0.4,2.1c-0.3,0.6-0.6,1-1.1,1.3c-0.5,0.3-1.1,0.5-1.8,0.5c-0.7,0-1.3-0.1-1.8-0.4c-0.5-0.3-0.9-0.7-1.2-1.3
				C567.1,26.9,566.9,26.1,566.9,25.3z M568.9,25.3c0,0.7,0.1,1.3,0.4,1.6s0.6,0.5,1,0.5c0.4,0,0.8-0.2,1-0.5
				c0.2-0.3,0.4-0.9,0.4-1.7c0-0.7-0.1-1.2-0.4-1.5c-0.2-0.3-0.6-0.5-1-0.5c-0.4,0-0.7,0.2-1,0.5C569,24,568.9,24.5,568.9,25.3z"/>
			<path class="st22" d="M574.7,21.6h4.9v1.6h-2.9v1.3h2.5v1.5h-2.5v3h-2V21.6z"/>
			<path class="st22" d="M580.7,21.6h4.9v1.6h-2.9v1.3h2.5v1.5h-2.5v3h-2V21.6z"/>
		</g>
	</g>
	<g>
		<polygon class="st23" points="523.3,21.5 523.3,27.5 520.8,27.5 520.8,29.6 523.3,29.6 525.1,29.6 525.3,29.6 525.3,21.5 		"/>
		<polygon class="st23" points="519.1,29.5 519.1,23.4 521.6,23.4 521.6,21.4 519.1,21.4 517.2,21.4 517.1,21.4 517.1,29.5 		"/>
	</g>
	<path class="st23" d="M522.4,25.5c0,0.7-0.5,1.2-1.2,1.2c-0.7,0-1.2-0.5-1.2-1.2c0-0.7,0.5-1.2,1.2-1.2
		C521.8,24.3,522.4,24.8,522.4,25.5z"/>
</g>
<g>
	<polygon class="st24" points="554.8,56.2 562,57.6 562,62 554.8,63.3 554.8,56.2 	"/>
	<polygon class="st25" points="578.9,56.3 586.1,57.6 586.1,62.1 578.9,63.4 578.9,56.3 	"/>
	<polygon class="st26" points="570.9,56.3 578.1,57.6 578.1,62.1 570.9,63.4 570.9,56.3 	"/>
	<polygon class="st27" points="562.9,56.3 570.1,57.6 570.1,62.1 562.9,63.4 562.9,56.3 	"/>
	<path d="M553,56.6v0.2h0.1c0.1,0,0.1,0,0.1,0c0,0,0,0,0-0.1c0,0,0-0.1,0-0.1C553.2,56.6,553.2,56.6,553,56.6L553,56.6L553,56.6z
		 M552.9,56.5h0.3c0.1,0,0.2,0,0.2,0c0.1,0,0.1,0.1,0.1,0.1c0,0.1,0,0.1,0,0.1c0,0-0.1,0.1-0.1,0.1l0.2,0.3h-0.2l-0.1-0.3H553v0.3
		h-0.2V56.5L552.9,56.5z M553.1,56.3c-0.1,0-0.1,0-0.2,0c-0.1,0-0.1,0.1-0.2,0.1c-0.1,0.1-0.1,0.1-0.1,0.2c0,0.1,0,0.1,0,0.2
		c0,0.1,0,0.1,0,0.2c0,0.1,0.1,0.1,0.1,0.2c0.1,0.1,0.1,0.1,0.2,0.1c0.1,0,0.1,0,0.2,0c0.1,0,0.1,0,0.2,0c0.1,0,0.1-0.1,0.2-0.1
		c0.1,0,0.1-0.1,0.1-0.2c0-0.1,0-0.1,0-0.2c0-0.1,0-0.1,0-0.2c0-0.1-0.1-0.1-0.1-0.2c-0.1-0.1-0.1-0.1-0.2-0.1
		C553.3,56.3,553.2,56.3,553.1,56.3L553.1,56.3z M553.1,56.2c0.1,0,0.2,0,0.2,0c0.1,0,0.1,0.1,0.2,0.1c0.1,0.1,0.1,0.1,0.1,0.2
		c0,0.1,0,0.2,0,0.2c0,0.1,0,0.2,0,0.2c0,0.1-0.1,0.1-0.1,0.2c-0.1,0.1-0.1,0.1-0.2,0.1c-0.1,0-0.2,0-0.2,0c-0.1,0-0.2,0-0.2,0
		c-0.1,0-0.1-0.1-0.2-0.1c-0.1-0.1-0.1-0.1-0.1-0.2c0-0.1,0-0.2,0-0.2c0-0.1,0-0.2,0-0.2c0-0.1,0.1-0.1,0.1-0.2
		c0.1-0.1,0.1-0.1,0.2-0.1C553,56.2,553,56.2,553.1,56.2L553.1,56.2z"/>
	<path d="M520.5,59.3v0.8h-3.1V63h-0.9v-3.9c0-0.4,0-0.7,0-0.9c0-0.2,0.1-0.4,0.2-0.6c0.2-0.4,0.4-0.7,0.8-0.9
		c0.3-0.2,0.8-0.2,1.4-0.2h1.6v0.8h-1.7c-0.4,0-0.7,0.1-0.9,0.2c-0.2,0.1-0.4,0.3-0.5,0.5c-0.1,0.2-0.1,0.5-0.1,0.9v0.4H520.5
		L520.5,59.3z M523.7,56.4c1,0,1.7,0.4,2.1,1.1c0.3,0.5,0.4,1.3,0.4,2.2c0,1.2-0.2,2-0.7,2.5c-0.5,0.5-1.1,0.8-1.9,0.8
		c-0.9,0-1.6-0.3-2-0.9c-0.2-0.2-0.3-0.6-0.4-1c-0.1-0.4-0.2-0.9-0.2-1.3c0-0.5,0.1-0.9,0.2-1.3c0.1-0.4,0.3-0.8,0.4-1
		c0.2-0.3,0.5-0.6,0.8-0.7C522.8,56.5,523.2,56.4,523.7,56.4L523.7,56.4z M523.7,57.2c-0.7,0-1.2,0.3-1.5,0.9
		c-0.2,0.4-0.2,0.9-0.2,1.6c0,0.8,0.1,1.4,0.3,1.8c0.3,0.5,0.7,0.7,1.4,0.7c0.7,0,1.2-0.3,1.5-0.9c0.1-0.3,0.2-0.8,0.2-1.5
		c0-0.8-0.1-1.4-0.3-1.8C524.8,57.5,524.3,57.3,523.7,57.2L523.7,57.2z M528,60.2V63h-0.9v-6.4h2.5c0.7,0,1.2,0.1,1.5,0.3
		c0.2,0.2,0.3,0.4,0.4,0.6c0.1,0.3,0.2,0.5,0.2,0.8c0,0.6-0.1,1-0.4,1.3c-0.2,0.2-0.4,0.3-0.7,0.4c0.4,0.2,0.6,0.4,0.7,0.7
		c0.1,0.3,0.2,0.7,0.2,1.3c0,0.4,0,0.6,0,0.7c0,0.1,0,0.2,0.1,0.3h-0.9c0-0.1-0.1-0.1-0.1-0.2c0-0.1,0-0.3-0.1-0.7
		c-0.1-0.7-0.2-1.2-0.5-1.4c-0.3-0.3-0.7-0.4-1.4-0.4H528L528,60.2z M528,59.4h1.5c0.5,0,0.8-0.1,0.9-0.2c0.2-0.2,0.3-0.5,0.3-0.8
		c0-0.4-0.1-0.7-0.3-0.9c-0.1-0.1-0.4-0.1-0.9-0.1H528V59.4L528,59.4z M536.4,56.5v0.8h-1.6c-0.3,0-0.5,0-0.7,0.1
		c-0.2,0-0.3,0.1-0.4,0.2c-0.2,0.2-0.3,0.4-0.4,0.6c-0.1,0.3-0.1,0.6-0.2,1h3.2v0.8h-3.2c0,0.5,0.1,0.9,0.3,1.3
		c0.1,0.3,0.3,0.5,0.5,0.6c0.2,0.1,0.5,0.2,0.8,0.2h1.6V63h-1.8c-0.5,0-0.8-0.1-1.1-0.2c-0.5-0.2-0.9-0.7-1.1-1.4
		c-0.1-0.4-0.2-0.9-0.2-1.5c0-0.8,0.1-1.4,0.3-1.9c0.2-0.5,0.5-0.9,0.9-1.1c0.4-0.2,0.8-0.3,1.5-0.3H536.4L536.4,56.5z M542.4,56.5
		l-2.3,6.4h-1l-2.3-6.4h1l1.8,5.5l1.9-5.5H542.4L542.4,56.5z M546.9,56.5v0.8h-1.6c-0.3,0-0.5,0-0.7,0.1c-0.2,0-0.3,0.1-0.4,0.2
		c-0.2,0.2-0.3,0.4-0.4,0.6c-0.1,0.3-0.1,0.6-0.2,1h3.2v0.8h-3.2c0,0.5,0.1,0.9,0.3,1.3c0.1,0.3,0.3,0.5,0.5,0.6
		c0.2,0.1,0.5,0.2,0.8,0.2h1.6V63h-1.8c-0.5,0-0.8-0.1-1.1-0.2c-0.5-0.2-0.9-0.7-1.1-1.4c-0.1-0.4-0.2-0.9-0.2-1.5
		c0-0.8,0.1-1.4,0.3-1.9c0.2-0.5,0.5-0.9,0.9-1.1c0.4-0.2,0.8-0.3,1.5-0.3H546.9L546.9,56.5z M548.7,60.2V63h-0.9v-6.4h2.5
		c0.7,0,1.2,0.1,1.5,0.3c0.2,0.2,0.3,0.4,0.4,0.6c0.1,0.3,0.2,0.5,0.2,0.8c0,0.6-0.1,1-0.4,1.3c-0.2,0.2-0.4,0.3-0.7,0.4
		c0.4,0.2,0.6,0.4,0.7,0.7c0.1,0.3,0.2,0.7,0.2,1.3c0,0.4,0,0.6,0,0.7c0,0.1,0,0.2,0.1,0.3h-0.9c0-0.1-0.1-0.1-0.1-0.2
		c0-0.1,0-0.3-0.1-0.7c-0.1-0.7-0.2-1.2-0.5-1.4c-0.3-0.3-0.7-0.4-1.4-0.4H548.7L548.7,60.2z M548.7,59.4h1.5c0.5,0,0.8-0.1,0.9-0.2
		c0.2-0.2,0.3-0.5,0.3-0.8c0-0.4-0.1-0.7-0.3-0.9c-0.1-0.1-0.4-0.1-0.9-0.1h-1.5V59.4L548.7,59.4z"/>
</g>
<g>
	<g>
		<g>
			<path class="st28" d="M417,50.6H416V46h1.1V50.6z M420.2,46l2.1,4.6H421l-1.4-3.4l-1.2,3.4h-1.2l1.9-4.6H420.2z M409.6,46.8h1.7
				V46h-4.4v0.8h1.6v3.8h1.1V46.8z"/>
			<polygon class="st28" points="433.1,46 432,46 432,50.6 435.4,50.6 435.4,49.9 433.1,49.9 			"/>
			<polygon class="st28" points="423.7,46 425.7,49.5 425.7,46 426.9,46 426.9,50.6 425.4,50.6 423.4,47.3 423.4,50.6 422.5,50.6 
				422.5,46 			"/>
			<path class="st28" d="M417,50.6H416V46h1.1V50.6z M420.2,46l2.1,4.6H421l-1.4-3.4l-1.2,3.4h-1.2l1.9-4.6H420.2z M409.6,46.8h1.7
				V46h-4.4v0.8h1.6v3.8h1.1V46.8z"/>
			<polygon class="st28" points="433.1,46 432,46 432,50.6 435.4,50.6 435.4,49.9 433.1,49.9 			"/>
			<polygon class="st28" points="423.7,46 425.7,49.5 425.7,46 426.9,46 426.9,50.6 425.4,50.6 423.4,47.3 423.4,50.6 422.5,50.6 
				422.5,46 			"/>
			<path class="st28" d="M412.5,46.8v1.1v2.8h-0.9V46h1.9c1.3,0,2,0.5,2,1.4c0,0.5-0.4,1-0.9,1.3l1.2,2h-1.3l-1.2-2.5l0.1,0
				c0.6,0,1-0.3,1-0.7c0-0.4-0.2-0.6-0.8-0.6H412.5z"/>
			<polygon class="st28" points="436.9,46.8 439.2,46.8 439.2,46 435.7,46 435.7,50.6 439.2,50.6 439.2,49.9 436.9,49.9 			"/>
			<rect x="437.5" y="47.9" class="st28" width="1.1" height="1"/>
			<path class="st28" d="M430.5,49.9h-1c-0.9-0.1-1.1-0.5-1.1-1.4c0.1-1,0.2-1.6,1.1-1.6h2V46h-2c-1.8,0-2.2,1.2-2.2,2.4
				c0,1.1,0.4,2.2,2.3,2.2h1.9v-2.8h-1V49.9z"/>
		</g>
		<g>
			<polygon class="st29" points="422.7,73.6 406.7,52.3 439.3,52.3 			"/>
			<rect x="423" y="56.3" class="st30" width="20.7" height="8.1"/>
			<path class="st10" d="M424.3,57.6h1.5v5.3h-1.5V57.6z"/>
			<path class="st10" d="M426.8,57.6h1.5l1.9,2.9v-2.9h1.5v5.3h-1.5l-1.9-2.9v2.9h-1.5V57.6z"/>
			<path class="st10" d="M432.5,57.6h1.7l0.9,1.6l0.8-1.6h1.6l-1.5,2.6l1.7,2.7H436l-1-1.7l-1,1.7h-1.7l1.7-2.8L432.5,57.6z"/>
			<path class="st10" d="M436.8,59.5h1.3v1.3h-1.3V59.5z"/>
			<path class="st10" d="M439.2,59.5h1.3v1.3h-1.3V59.5z"/>
			<path class="st10" d="M441.4,59.5h1.3v1.3h-1.3V59.5z"/>
		</g>
	</g>
	<g>
		<g>
			<path class="st22" d="M409.7,24.4v3.2c0,0.2-0.2,0.3-0.5,0.3h-0.4c-0.3,0-0.4-0.1-0.5-0.3v-3.1c0-1.5-0.4-2.3-1.3-2.3
				c-0.8,0-1.3,0.7-1.6,2.1v3.3c0,0.2-0.2,0.3-0.5,0.3h-0.4c-0.3,0-0.4-0.1-0.5-0.3v-6.3c0-0.2,0.2-0.3,0.5-0.3h0.4
				c0.3,0,0.4,0.1,0.5,0.3v0.9c0.4-0.8,1-1.1,1.9-1.1c0.9,0,1.5,0.4,1.9,1.1c0.4-0.7,1.1-1.1,2-1.1c1.5,0,2.2,1.1,2.2,3.2v3.4
				c0,0.2-0.2,0.3-0.5,0.3h-0.4c-0.3,0-0.4-0.1-0.5-0.3v-3.1c0-1.5-0.4-2.3-1.1-2.3C410.2,22.2,409.8,23,409.7,24.4z"/>
			<path class="st22" d="M421,22.1v5.5c0,0.2-0.2,0.3-0.5,0.3h-0.4c-0.3,0-0.4-0.1-0.5-0.3v-0.7c-0.4,0.6-0.9,0.9-1.8,1
				c-1.8,0-2.7-1.1-2.7-3.4c0.2-2.2,1.3-3.4,3.2-3.5C419.7,21,420.6,21.4,421,22.1z M416.4,24.5c0,1.4,0.5,2.1,1.4,2.1
				c0.9,0,1.6-0.6,1.8-1.8v-2.3c-0.2-0.3-0.7-0.4-1.4-0.4C417.2,22.2,416.6,23,416.4,24.5z"/>
			<path class="st22" d="M423.2,21.9h-0.8c-0.1,0-0.2-0.1-0.2-0.3v-0.3c0-0.2,0.1-0.3,0.2-0.3h0.8v-1.2c0-0.2,0.2-0.3,0.5-0.3h0.4
				c0.3,0,0.4,0.1,0.5,0.3v1.2h1.1c0.1,0,0.2,0.1,0.2,0.3v0.3c0,0.2-0.1,0.3-0.2,0.3h-1.1v3.9c0,0.6,0.3,0.9,0.8,0.9
				c0.2,0,0.4,0,0.5-0.1c0,0,0,0,0,0c0.2,0,0.3,0.2,0.3,0.5v0c0,0.5-0.1,0.7-0.3,0.8c-0.2,0-0.4,0.1-0.6,0.1c-1.3,0-2-0.7-2.1-2
				V21.9z"/>
			<path class="st22" d="M430.3,22.3c-0.9,0-1.3,0.6-1.4,1.6v3.7c0,0.2-0.2,0.3-0.5,0.3h-0.4c-0.3,0-0.5-0.1-0.5-0.3v-6.3
				c0-0.2,0.2-0.3,0.5-0.3h0.4c0.3,0,0.4,0.1,0.5,0.3V22c0.3-0.7,0.9-1,1.8-1c0.2,0,0.3,0.1,0.3,0.2c0,0,0,0.1,0,0.1l-0.3,0.7
				C430.7,22.2,430.5,22.3,430.3,22.3z"/>
			<path class="st22" d="M433.6,18.8v0.6c0,0.2-0.1,0.3-0.4,0.3h-0.4c-0.3,0-0.4-0.1-0.4-0.3v-0.6c0-0.2,0.1-0.3,0.4-0.3h0.4
				C433.5,18.5,433.6,18.6,433.6,18.8z M433.6,27.6c0,0.2-0.2,0.3-0.5,0.3h-0.4c-0.3,0-0.4-0.1-0.5-0.3v-6.3c0-0.2,0.2-0.3,0.5-0.3
				h0.4c0.3,0,0.4,0.1,0.5,0.3V27.6z"/>
		</g>
		<g>
			<path class="st31" d="M404.3,29c0.1,0,0.3,0,0.5,0c0.5,0,0.8,0.1,0.8,0.7c0,0.6-0.3,0.7-0.8,0.7c-0.2,0-0.4,0-0.5,0V29z
				 M405.1,29.7c0-0.3-0.1-0.5-0.4-0.5c0,0-0.1,0-0.1,0v1c0,0,0.1,0,0.1,0C405,30.2,405.1,30,405.1,29.7z"/>
			<path class="st31" d="M406.3,30.4h-0.4V29h0.4V30.4z"/>
			<path class="st31" d="M407.9,30.4c-0.1,0-0.3,0.1-0.5,0.1c-0.5,0-0.7-0.2-0.7-0.7c0-0.5,0.2-0.7,0.7-0.7c0.2,0,0.4,0.1,0.5,0.1
				c0,0.1,0,0.1-0.1,0.2c-0.1,0-0.2-0.1-0.3-0.1c-0.3,0-0.4,0.2-0.4,0.5c0,0.3,0.1,0.5,0.4,0.5c0,0,0,0,0.1,0v-0.4h-0.2v-0.2h0.6
				V30.4z"/>
			<path class="st31" d="M408.6,30.4h-0.4V29h0.4V30.4z"/>
			<path class="st31" d="M410,29.2h-0.4v1.2h-0.4v-1.2h-0.4V29h1.1L410,29.2z"/>
			<path class="st31" d="M410.6,29h0.4l0.5,1.4h-0.4l-0.1-0.2h-0.5l-0.1,0.2h-0.4L410.6,29z M410.6,29.9h0.4
				c-0.1-0.2-0.2-0.5-0.2-0.7C410.8,29.4,410.7,29.7,410.6,29.9z"/>
			<path class="st31" d="M411.8,30.4V29h0.4v1.2h0.5l0,0.2H411.8z"/>
			<path class="st31" d="M414.5,29c0.1,0,0.3,0,0.5,0c0.5,0,0.6,0.2,0.6,0.5c0,0.4-0.3,0.5-0.6,0.5c0,0-0.1,0-0.1,0v0.5h-0.4V29z
				 M414.8,29.2v0.5h0.1c0.2,0,0.3-0.1,0.3-0.3c0-0.2-0.1-0.3-0.2-0.3C414.9,29.2,414.9,29.2,414.8,29.2z"/>
			<path class="st31" d="M415.9,29c0.1,0,0.3,0,0.5,0c0.4,0,0.6,0.1,0.6,0.5c0,0.2-0.1,0.3-0.3,0.4l0.3,0.6h-0.4l-0.3-0.5
				c-0.1,0-0.1,0-0.1,0v0.5h-0.4V29z M416.6,29.4c0-0.1-0.1-0.2-0.2-0.2c0,0-0.1,0-0.1,0v0.4c0,0,0.1,0,0.2,0
				C416.6,29.6,416.6,29.6,416.6,29.4z"/>
			<path class="st31" d="M417.8,30.4h-0.4V29h0.4V30.4z"/>
			<path class="st31" d="M419.5,30.4h-0.3l-0.6-0.9h0c0,0,0,0.1,0,0.2v0.7h-0.3V29h0.3c0.2,0.3,0.4,0.6,0.6,0.9h0c0,0,0-0.1,0-0.2
				V29h0.3V30.4z"/>
			<path class="st31" d="M420.9,29.2h-0.4v1.2h-0.4v-1.2h-0.4V29h1.1L420.9,29.2z"/>
			<path class="st31" d="M421.6,30.4h-0.4V29h0.4V30.4z"/>
			<path class="st31" d="M423.3,30.4h-0.3l-0.6-0.9h0c0,0,0,0.1,0,0.2v0.7h-0.3V29h0.3c0.2,0.3,0.4,0.6,0.6,0.9h0c0,0,0-0.1,0-0.2
				V29h0.3V30.4z"/>
			<path class="st31" d="M424.9,30.4c-0.1,0-0.3,0.1-0.5,0.1c-0.5,0-0.7-0.2-0.7-0.7c0-0.5,0.2-0.7,0.7-0.7c0.2,0,0.4,0.1,0.5,0.1
				c0,0.1,0,0.1-0.1,0.2c-0.1,0-0.2-0.1-0.3-0.1c-0.3,0-0.4,0.2-0.4,0.5c0,0.3,0.1,0.5,0.4,0.5c0,0,0,0,0.1,0v-0.4h-0.2v-0.2h0.6
				V30.4z"/>
			<path class="st31" d="M428.2,30.4h-0.4c0-0.1-0.1-0.7-0.1-0.9c0,0.1-0.2,0.7-0.3,0.8h-0.3c0-0.1-0.2-0.6-0.3-0.8l-0.1,0.9h-0.4
				l0.2-1.4h0.4c0.1,0.1,0.3,0.7,0.3,0.9c0.1-0.2,0.3-0.8,0.3-0.9h0.4L428.2,30.4z"/>
			<path class="st31" d="M428.6,30.4V29h0.9v0.2H429v0.3h0.4v0.2H429v0.4h0.6v0.2H428.6z"/>
			<path class="st31" d="M429.9,29c0.1,0,0.3,0,0.5,0c0.5,0,0.8,0.1,0.8,0.7c0,0.6-0.3,0.7-0.8,0.7c-0.2,0-0.4,0-0.5,0V29z
				 M430.8,29.7c0-0.3-0.1-0.5-0.4-0.5c0,0-0.1,0-0.1,0v1c0,0,0.1,0,0.1,0C430.7,30.2,430.8,30,430.8,29.7z"/>
			<path class="st31" d="M431.9,30.4h-0.4V29h0.4V30.4z"/>
			<path class="st31" d="M432.7,29h0.4l0.5,1.4h-0.4l-0.1-0.2h-0.5l-0.1,0.2h-0.4L432.7,29z M432.8,29.9h0.4
				c-0.1-0.2-0.2-0.5-0.2-0.7C432.9,29.4,432.8,29.7,432.8,29.9z"/>
		</g>
		<g>
			
				<linearGradient id="SVGID_1_" gradientUnits="userSpaceOnUse" x1="455.5324" y1="-106.7332" x2="459.5784" y2="-102.6299" gradientTransform="matrix(0.7071 -0.7071 0.7071 0.7071 187.6802 418.1284)">
				<stop  offset="0" style="stop-color:#00AEEF"/>
				<stop  offset="0.1098" style="stop-color:#009AD4"/>
				<stop  offset="0.2616" style="stop-color:#0083B5"/>
				<stop  offset="0.4211" style="stop-color:#00719D"/>
				<stop  offset="0.5896" style="stop-color:#00658C"/>
				<stop  offset="0.7732" style="stop-color:#005D82"/>
				<stop  offset="1" style="stop-color:#005B7F"/>
			</linearGradient>
			<path class="st0" d="M434.2,20.2c0,0.1,0,0.3,0.1,0.4c0.3,0.8,1.2,1.1,1.2,1.1c0.8,0.2,1.4,0.5,1.9,0.8c-0.2-0.2-0.4-0.4-0.6-0.5
				l-0.1-0.1c-0.2-0.2-0.2-0.5,0-0.7l0,0l0,0l0,0c0.2-0.2,0.5-0.2,0.7,0l0.1,0.1c0.2,0.2,0.4,0.5,0.6,0.7c-0.3-0.5-0.6-1.1-0.9-2
				c0,0-0.2-0.7-0.7-1.1c-0.2-0.1-0.5-0.2-0.8-0.2c0,0-0.1,0-0.1,0c0,0,0,0,0,0c0,0,0,0-0.1,0c0,0,0,0,0,0c0,0,0,0-0.1,0
				c-0.2,0-0.3,0.1-0.5,0.2c0,0,0,0,0,0c-0.1,0.1-0.2,0.1-0.3,0.2l0,0c0,0,0,0,0,0c0,0,0,0,0,0l0,0c-0.1,0.1-0.1,0.2-0.2,0.3
				C434.3,19.7,434.3,19.9,434.2,20.2C434.3,20.1,434.2,20.2,434.2,20.2z"/>
			
				<linearGradient id="SVGID_2_" gradientUnits="userSpaceOnUse" x1="481.448" y1="-131.8975" x2="480.8885" y2="-125.5022" gradientTransform="matrix(0.7071 0.7071 0.7071 -0.7071 187.6802 -403.7711)">
				<stop  offset="0" style="stop-color:#231F20"/>
				<stop  offset="7.060945e-02" style="stop-color:#322F30"/>
				<stop  offset="0.2291" style="stop-color:#4E4D4F"/>
				<stop  offset="0.3956" style="stop-color:#646467"/>
				<stop  offset="0.5715" style="stop-color:#747578"/>
				<stop  offset="0.7632" style="stop-color:#7D7F82"/>
				<stop  offset="1" style="stop-color:#808285"/>
			</linearGradient>
			<path class="st1" d="M434.2,28.8c0-0.1,0-0.3,0.1-0.4c0.3-0.8,1.2-1.1,1.2-1.1c0.8-0.2,1.4-0.5,1.9-0.8c-0.2,0.2-0.4,0.4-0.6,0.5
				l-0.1,0.1c-0.2,0.2-0.2,0.5,0,0.7l0,0l0,0l0,0c0.2,0.2,0.5,0.2,0.7,0l0.1-0.1c0.2-0.2,0.4-0.5,0.6-0.7c-0.3,0.5-0.6,1.1-0.9,2
				c0,0-0.2,0.7-0.7,1.1c-0.2,0.1-0.5,0.2-0.8,0.2c0,0-0.1,0-0.1,0c0,0,0,0,0,0c0,0,0,0-0.1,0c0,0,0,0,0,0c0,0,0,0-0.1,0
				c-0.2,0-0.3-0.1-0.5-0.2c0,0,0,0,0,0c-0.1-0.1-0.2-0.1-0.3-0.2l0,0c0,0,0,0,0,0c0,0,0,0,0,0l0,0c-0.1-0.1-0.1-0.2-0.2-0.3
				C434.3,29.3,434.3,29.1,434.2,28.8C434.3,28.8,434.2,28.8,434.2,28.8z"/>
			<linearGradient id="SVGID_3_" gradientUnits="userSpaceOnUse" x1="442.9222" y1="29.5411" x2="444.8457" y2="27.2488">
				<stop  offset="0" style="stop-color:#FFF200"/>
				<stop  offset="8.370697e-03" style="stop-color:#FDF000"/>
				<stop  offset="0.1483" style="stop-color:#D7CC00"/>
				<stop  offset="0.2946" style="stop-color:#B8AF00"/>
				<stop  offset="0.447" style="stop-color:#A09800"/>
				<stop  offset="0.608" style="stop-color:#8F8800"/>
				<stop  offset="0.7835" style="stop-color:#857E00"/>
				<stop  offset="1" style="stop-color:#827B00"/>
			</linearGradient>
			<path class="st2" d="M446,28.8c0-0.1,0-0.3-0.1-0.4c-0.3-0.8-1.2-1.1-1.2-1.1c-0.8-0.2-1.4-0.5-1.9-0.8c0.2,0.2,0.4,0.4,0.6,0.5
				l0.1,0.1c0.2,0.2,0.2,0.5,0,0.7l0,0l0,0l0,0c-0.2,0.2-0.5,0.2-0.7,0l-0.1-0.1c-0.2-0.2-0.4-0.5-0.6-0.7c0.3,0.5,0.6,1.1,0.9,2
				c0,0,0.2,0.7,0.7,1.1c0.2,0.1,0.5,0.2,0.8,0.2c0,0,0.1,0,0.1,0c0,0,0,0,0,0c0,0,0,0,0.1,0c0,0,0,0,0,0c0,0,0,0,0.1,0
				c0.2,0,0.3-0.1,0.5-0.2c0,0,0,0,0,0c0.1-0.1,0.2-0.1,0.3-0.2l0,0c0,0,0,0,0,0c0,0,0,0,0,0l0,0c0.1-0.1,0.1-0.2,0.2-0.3
				C445.9,29.3,445.9,29.1,446,28.8C446,28.9,446,28.8,446,28.8z"/>
			
				<linearGradient id="SVGID_4_" gradientUnits="userSpaceOnUse" x1="903.746" y1="339.9912" x2="899.3734" y2="340.3737" gradientTransform="matrix(-0.7071 -0.7071 -0.7071 0.7071 1322.4084 418.1284)">
				<stop  offset="0" style="stop-color:#EC008C"/>
				<stop  offset="0.1132" style="stop-color:#D0007B"/>
				<stop  offset="0.2644" style="stop-color:#B10068"/>
				<stop  offset="0.4232" style="stop-color:#990059"/>
				<stop  offset="0.5911" style="stop-color:#88004E"/>
				<stop  offset="0.7741" style="stop-color:#7E0048"/>
				<stop  offset="1" style="stop-color:#7B0046"/>
			</linearGradient>
			<path class="st3" d="M446,20.2c0,0.1,0,0.3-0.1,0.4c-0.3,0.8-1.2,1.1-1.2,1.1c-0.8,0.2-1.4,0.5-1.9,0.8c0.2-0.2,0.4-0.4,0.6-0.5
				l0.1-0.1c0.2-0.2,0.2-0.5,0-0.7l0,0l0,0l0,0c-0.2-0.2-0.5-0.2-0.7,0l-0.1,0.1c-0.2,0.2-0.4,0.5-0.6,0.7c0.3-0.5,0.6-1.1,0.9-2
				c0,0,0.2-0.7,0.7-1.1c0.2-0.1,0.5-0.2,0.8-0.2c0,0,0.1,0,0.1,0c0,0,0,0,0,0c0,0,0,0,0.1,0c0,0,0,0,0,0c0,0,0,0,0.1,0
				c0.2,0,0.3,0.1,0.5,0.2c0,0,0,0,0,0c0.1,0.1,0.2,0.1,0.3,0.2l0,0c0,0,0,0,0,0c0,0,0,0,0,0l0,0c0.1,0.1,0.1,0.2,0.2,0.3
				C445.9,19.6,446,19.9,446,20.2C446,20.1,446,20.2,446,20.2z"/>
			<path class="st36" d="M438.8,24.5c0-0.1,0.1-1.1-1.4-2c-0.5-0.3-1.1-0.6-1.9-0.8c0,0-1-0.3-1.2-1.1c0-0.1-0.1-0.3-0.1-0.4
				c0,0,0,0,0-0.1c0-0.2,0.1-0.5,0.2-0.7c0,0,0,0,0,0c0,0-1.2,1.2,0.8,2.5c0,0,1.4,1.2,1.4,2.6c0,1.4-1.4,2.6-1.4,2.6
				c-2,1.3-0.8,2.5-0.8,2.5c-0.9-1.8,1-2.3,1-2.3C439,26.3,438.8,24.6,438.8,24.5z"/>
			<path class="st37" d="M441.4,24.5c0-0.1-0.1-1.1,1.4-2c0.5-0.3,1.1-0.6,1.9-0.8c0,0,1-0.3,1.2-1.1c0-0.1,0.1-0.3,0.1-0.4
				c0,0,0,0,0-0.1c0-0.2-0.1-0.5-0.2-0.7c0,0,0,0,0,0c0,0,1.2,1.2-0.8,2.5c0,0-1.4,1.2-1.4,2.6c0,1.4,1.4,2.6,1.4,2.6
				c2,1.3,0.8,2.5,0.8,2.5c0.9-1.8-1-2.3-1-2.3C441.2,26.3,441.4,24.6,441.4,24.5z"/>
			<path class="st38" d="M442.7,19.7c0,0-1.2,1.4-2.6,1.4c-1.4,0-2.6-1.4-2.6-1.4c-1.3-2-2.5-0.8-2.5-0.8c0,0,0,0,0,0
				c0.2-0.1,0.4-0.2,0.5-0.2c0,0,0,0,0.1,0c0,0,0,0,0,0c0,0,0,0,0.1,0c0,0,0,0,0,0c0,0,0.1,0,0.1,0c0.3,0,0.5,0.1,0.8,0.2
				c0.5,0.4,0.7,1.1,0.7,1.1c0.3,0.9,0.6,1.5,0.9,2c0.9,1.4,1.9,1.3,1.9,1.3c0.1,0,1.8,0.2,2.8-3.3c0,0,0.6-1.9,2.3-1
				C445.3,18.9,444.1,17.6,442.7,19.7z"/>
			<path class="st22" d="M442.7,29.3c0,0-1.2-1.4-2.6-1.4c-1.4,0-2.6,1.4-2.6,1.4c-1.3,2-2.5,0.8-2.5,0.8c0,0,0,0,0,0
				c0.2,0.1,0.4,0.2,0.5,0.2c0,0,0,0,0.1,0c0,0,0,0,0,0c0,0,0,0,0.1,0c0,0,0,0,0,0c0,0,0.1,0,0.1,0c0.3,0,0.5-0.1,0.8-0.2
				c0.5-0.4,0.7-1.1,0.7-1.1c0.3-0.9,0.6-1.5,0.9-2c0.9-1.4,1.9-1.3,1.9-1.3c0.1,0,1.8-0.2,2.8,3.3c0,0,0.6,1.9,2.3,1
				C445.3,30.1,444.1,31.3,442.7,29.3z"/>
			<path class="st22" d="M437.2,28.1c-0.2,0-0.3-0.1-0.5-0.2l-0.1-0.1c-0.2-0.2-0.2-0.4-0.2-0.5c0-0.4,0.5-0.7,0.5-0.7
				c1.1-0.8,1.5-1.4,1.6-1.8l0-0.2c0-0.1,0-0.1,0-0.2l0,0c0-0.3-0.3-1-1.6-1.9c0,0-0.5-0.3-0.5-0.7c0-0.1,0-0.3,0.2-0.5l0.1-0.1
				c0.1-0.1,0.3-0.2,0.5-0.2c0.4,0,0.7,0.5,0.8,0.5c0.8,1.2,1.4,1.5,1.8,1.6l0.2,0c0.1,0,0.1,0,0.2,0l0.2,0c0.4-0.1,1-0.4,1.8-1.6
				c0,0,0.3-0.5,0.8-0.5c0.2,0,0.3,0.1,0.5,0.2l0.1,0.1c0.2,0.2,0.2,0.4,0.2,0.5c0,0.4-0.5,0.7-0.5,0.7c-1.2,0.8-1.5,1.4-1.6,1.8
				l0,0.2c0,0.1,0,0.1,0,0.2c0,0.4,0.3,1,1.6,2c0,0,0.5,0.3,0.5,0.7c0,0.1,0,0.3-0.2,0.5l-0.1,0.1c-0.1,0.1-0.3,0.2-0.5,0.2l0,0
				c-0.4,0-0.7-0.5-0.8-0.5c-0.8-1.2-1.4-1.5-1.8-1.6l0,0l-0.2,0c-0.1,0-0.1,0-0.2,0l-0.2,0l0,0c-0.4,0.1-1,0.4-1.8,1.6
				C438,27.6,437.7,28.1,437.2,28.1z M439,24.6L439,24.6c0,0.5-0.4,1.3-1.7,2.2c-0.1,0.1-0.4,0.3-0.4,0.5c0,0.1,0,0.2,0.1,0.3
				l0.1,0.1c0.1,0.1,0.2,0.1,0.2,0.1c0.2,0,0.4-0.3,0.5-0.4c1-1.4,1.7-1.7,2.2-1.7l0.1,0l0,0c0,0,0,0,0.1,0l0.1,0
				c0.5,0,1.3,0.4,2.2,1.7c0.1,0.1,0.3,0.4,0.5,0.4c0.1,0,0.2,0,0.2-0.1l0.1-0.1c0.1-0.1,0.1-0.2,0.1-0.3c0-0.2-0.3-0.4-0.4-0.5
				c-1.4-1-1.7-1.7-1.7-2.2c0-0.1,0-0.2,0-0.3l0,0c0-0.5,0.4-1.2,1.7-2.2c0.1-0.1,0.4-0.3,0.4-0.5c0-0.1,0-0.2-0.1-0.3l-0.1-0.1
				c-0.1-0.1-0.2-0.1-0.2-0.1c-0.2,0-0.4,0.3-0.5,0.4c-1,1.4-1.7,1.7-2.2,1.7l-0.1,0l0,0c0,0,0,0-0.1,0l-0.1,0
				c-0.5,0-1.3-0.4-2.2-1.7c-0.1-0.1-0.3-0.4-0.5-0.4c-0.1,0-0.2,0-0.2,0.1l-0.1,0.1c-0.1,0.1-0.1,0.2-0.1,0.3
				c0,0.2,0.3,0.4,0.4,0.5c1.4,0.9,1.7,1.7,1.7,2.2C439,24.4,439,24.5,439,24.6z"/>
			<radialGradient id="SVGID_5_" cx="440.1114" cy="27.543" r="1.9892" gradientUnits="userSpaceOnUse">
				<stop  offset="0" style="stop-color:#231F20"/>
				<stop  offset="0.2435" style="stop-color:#262223"/>
				<stop  offset="0.4343" style="stop-color:#2F2C2D"/>
				<stop  offset="0.6072" style="stop-color:#3E3C3E"/>
				<stop  offset="0.7695" style="stop-color:#545355"/>
				<stop  offset="0.9229" style="stop-color:#6F7073"/>
				<stop  offset="1" style="stop-color:#808285"/>
			</radialGradient>
			<path class="st4" d="M440.2,26.1L440.2,26.1L440.2,26.1h-0.1c-1.6,0-2.4,2.8-2.4,2.8c1-1.2,2.2-1.2,2.4-1.2v0c0,0,0,0,0,0
				c0,0,0,0,0,0v0c0.2,0,1.4,0,2.4,1.2C442.6,28.9,441.7,26.1,440.2,26.1z"/>
			
				<radialGradient id="SVGID_7_" cx="935.5565" cy="-109.0483" r="1.9893" gradientTransform="matrix(-1 0 0 -1 1375.6462 -87.5874)" gradientUnits="userSpaceOnUse">
				<stop  offset="0" style="stop-color:#EC008C"/>
				<stop  offset="0.2165" style="stop-color:#EC038D"/>
				<stop  offset="0.3861" style="stop-color:#ED0D90"/>
				<stop  offset="0.5398" style="stop-color:#ED1E95"/>
				<stop  offset="0.6841" style="stop-color:#EE359D"/>
				<stop  offset="0.8218" style="stop-color:#F053A7"/>
				<stop  offset="0.9528" style="stop-color:#F178B2"/>
				<stop  offset="1" style="stop-color:#F287B7"/>
			</radialGradient>
			<path style="fill:url(#SVGID_7_);" d="M440,22.9L440,22.9L440,22.9h0.1c1.6,0,2.4-2.8,2.4-2.8c-1,1.2-2.2,1.2-2.4,1.2v0
				c0,0,0,0,0,0c0,0,0,0,0,0v0c-0.2,0-1.4,0-2.4-1.2C437.6,20.1,438.5,22.9,440,22.9z"/>
			
				<radialGradient id="SVGID_9_" cx="729.2854" cy="232.3023" r="1.9893" gradientTransform="matrix(0 1 -1 0 669.3635 -704.7814)" gradientUnits="userSpaceOnUse">
				<stop  offset="0" style="stop-color:#00AEEF"/>
				<stop  offset="0.2335" style="stop-color:#00ACEC"/>
				<stop  offset="0.4165" style="stop-color:#00A4E2"/>
				<stop  offset="0.5823" style="stop-color:#0098D1"/>
				<stop  offset="0.7379" style="stop-color:#0087BA"/>
				<stop  offset="0.885" style="stop-color:#00719C"/>
				<stop  offset="1" style="stop-color:#005B7F"/>
			</radialGradient>
			<path style="fill:url(#SVGID_9_);" d="M438.5,24.6L438.5,24.6L438.5,24.6v-0.1c0-1.6-2.8-2.4-2.8-2.4c1.2,1,1.2,2.2,1.2,2.4h0
				c0,0,0,0,0,0c0,0,0,0,0,0h0c0,0.2,0,1.4-1.2,2.4C435.7,26.9,438.5,26.1,438.5,24.6z"/>
			
				<radialGradient id="SVGID_10_" cx="728.6075" cy="-275.7414" r="1.9893" gradientTransform="matrix(0 -1 1 0 718.8673 753.1115)" gradientUnits="userSpaceOnUse">
				<stop  offset="0" style="stop-color:#FFF200"/>
				<stop  offset="0.2234" style="stop-color:#FCEF00"/>
				<stop  offset="0.3983" style="stop-color:#F2E600"/>
				<stop  offset="0.5569" style="stop-color:#E1D600"/>
				<stop  offset="0.7057" style="stop-color:#CAC000"/>
				<stop  offset="0.8478" style="stop-color:#ACA300"/>
				<stop  offset="0.983" style="stop-color:#878000"/>
				<stop  offset="1" style="stop-color:#827B00"/>
			</radialGradient>
			<path class="st11" d="M441.7,24.5L441.7,24.5L441.7,24.5v0.1c0,1.6,2.8,2.4,2.8,2.4c-1.2-1-1.2-2.2-1.2-2.4h0c0,0,0,0,0,0
				c0,0,0,0,0,0h0c0-0.2,0-1.4,1.2-2.4C444.5,22.1,441.7,22.9,441.7,24.5z"/>
		</g>
	</g>
</g>
<g>
	<path class="st43" d="M494.3,61.1c-0.6,0-1.2,0-1.7,0c0-0.3,0-0.5,0-0.8c0-0.1,0-0.3,0-0.4c0,0,0.1-0.1,0.1-0.1c0.2,0,0.3,0,0.5,0
		c0.8,0,1.5,0,2.3,0c0.2,0,0.2,0,0.2,0.2c0,0.6,0,1.3-0.1,1.9c0,0.5,0,1.1-0.1,1.6c0,0.1,0,0.1,0,0.2c0,0.1-0.1,0.2-0.2,0.2
		c-0.2,0-0.5,0-0.7,0c-0.1,0-0.2,0-0.2-0.1c0-0.2-0.1-0.5-0.1-0.8c0,0-0.1,0-0.1,0.1c-0.5,0.6-1.1,0.9-1.9,1
		c-0.9,0.1-1.7-0.1-2.5-0.7c-0.6-0.5-1-1.2-1.1-2c-0.1-0.5-0.1-1.1-0.1-1.6c0.1-0.6,0.2-1.2,0.5-1.8c0.3-0.6,0.7-1,1.3-1.3
		c0.5-0.3,1-0.4,1.5-0.4c0.8-0.1,1.5,0,2.2,0.4c0.7,0.4,1.2,1,1.3,1.8c0.1,0.3,0.1,0.3-0.2,0.3c-0.4,0-0.8,0-1.1,0
		c-0.1,0-0.1,0-0.2-0.1c-0.2-0.6-0.7-1-1.3-1.1c-1.1-0.1-1.9,0.5-2.3,1.4c-0.2,0.6-0.2,1.2-0.2,1.8c0,0.5,0.2,1,0.6,1.4
		c0.3,0.3,0.6,0.4,0.9,0.5c0.4,0.1,0.8,0.1,1.1,0c0.6-0.2,1-0.6,1.2-1.2C494.2,61.4,494.2,61.3,494.3,61.1z"/>
	<path class="st43" d="M486,61.6c0-0.1,0-0.1,0-0.1c0-0.5,0-0.9,0-1.4c0-0.7,0-1.3,0.1-2c0-0.5,0-1,0.1-1.5c0-0.1,0-0.2,0.2-0.2
		c0.4,0,0.8,0,1.1,0c0.1,0,0.2,0,0.2,0.2c0,0.6,0,1.3-0.1,1.9c0,0.2,0,0.4,0,0.6c0,0.7,0,1.3-0.1,2c0,0.5,0,1.1-0.1,1.6
		c0,0.3,0,0.7,0,1c0,0.1,0,0.1-0.1,0.1c-0.4,0-0.9,0-1.3,0c-0.1,0-0.1,0-0.2-0.1c-0.2-0.3-0.4-0.7-0.6-1c-0.6-1.1-1.1-2.1-1.7-3.2
		c-0.2-0.3-0.3-0.6-0.5-0.9c0,0-0.1-0.1-0.1-0.2c0,0.2,0,0.4,0,0.6c0,0.5,0,1,0,1.5c0,0.6,0,1.2-0.1,1.8c0,0.4,0,0.9-0.1,1.3
		c0,0.1,0,0.1-0.1,0.1c-0.4,0-0.8,0-1.2,0c-0.1,0-0.1,0-0.1-0.2c0-0.1,0-0.2,0-0.3c0-0.5,0-0.9,0-1.4c0-0.6,0-1.2,0.1-1.7
		c0-0.6,0-1.2,0.1-1.8c0-0.6,0-1.2,0.1-1.7c0-0.1,0-0.2,0-0.3c0,0,0.1-0.1,0.1-0.1c0.5,0,1,0,1.5,0c0,0,0.1,0.1,0.1,0.1
		c0.2,0.4,0.4,0.8,0.6,1.1c0.6,1.1,1.2,2.2,1.7,3.3c0.1,0.2,0.2,0.3,0.3,0.5C485.9,61.5,486,61.5,486,61.6z"/>
	<path class="st43" d="M480.3,60c0,0.8-0.2,1.6-0.5,2.4c-0.4,0.7-1,1.2-1.8,1.5c-0.6,0.2-1.2,0.3-1.8,0.3c-0.9-0.1-1.7-0.4-2.3-1.1
		c-0.4-0.5-0.7-1.1-0.7-1.8c0-0.4-0.1-0.7-0.1-1.1c0-0.8,0.2-1.6,0.7-2.3c0.5-0.8,1.3-1.3,2.2-1.5c0.3-0.1,0.7-0.1,1-0.1
		c1,0,1.8,0.3,2.5,1.1c0.4,0.4,0.6,1,0.7,1.6C480.2,59.2,480.3,59.6,480.3,60z M478.7,60c0-0.3,0-0.5-0.1-0.8
		c-0.1-0.5-0.3-0.9-0.7-1.3c-0.4-0.3-0.9-0.5-1.4-0.4c-0.8,0.1-1.3,0.5-1.6,1.3c-0.3,0.7-0.3,1.5-0.2,2.2c0.1,0.4,0.2,0.8,0.5,1.1
		c0.4,0.4,0.9,0.6,1.4,0.6c0.8,0,1.5-0.5,1.8-1.2C478.6,61.1,478.7,60.6,478.7,60z"/>
	<path class="st43" d="M497.5,61.6c0.2,0,0.4,0,0.6,0c0.1,0,0.2,0,0.2,0.1c0,0.6,0.5,0.9,1,1c0.5,0.1,1,0.1,1.5-0.1
		c0.4-0.2,0.7-0.6,0.6-1c-0.1-0.3-0.3-0.4-0.6-0.5c-0.5-0.2-1.1-0.3-1.6-0.4c-0.4-0.1-0.8-0.2-1.2-0.4c-0.6-0.3-0.9-0.8-0.9-1.5
		c0-0.5,0.1-1,0.4-1.5c0.3-0.5,0.8-0.8,1.4-1c0.8-0.2,1.6-0.2,2.4,0.1c0.8,0.3,1.3,0.9,1.5,1.8c0,0,0,0.1,0,0.1c0,0.3,0,0.3-0.3,0.3
		c-0.3,0-0.7,0-1,0c-0.1,0-0.2,0-0.2-0.1c-0.1-0.6-0.5-0.9-1.1-1c-0.4-0.1-0.8,0-1.1,0.1c-0.4,0.1-0.6,0.4-0.6,0.8
		c0,0.3,0.2,0.6,0.6,0.7c0.6,0.1,1.2,0.3,1.8,0.4c0.5,0.1,0.9,0.2,1.4,0.5c0.5,0.3,0.7,0.8,0.7,1.3c0,0.5-0.1,1-0.3,1.4
		c-0.4,0.6-1,0.9-1.8,1.1c-0.5,0.1-0.9,0.1-1.4,0.1c-0.7,0-1.3-0.2-1.9-0.6c-0.4-0.3-0.7-0.8-0.8-1.3c0-0.1,0-0.3-0.1-0.4
		c0-0.1,0-0.2,0.2-0.2C497.1,61.6,497.3,61.6,497.5,61.6z"/>
	<path class="st43" d="M468,61.2c0,0.2,0,0.4,0,0.6c0,0.5,0,0.9,0,1.4c0,0.2,0,0.4,0,0.6c0,0.1,0,0.1-0.1,0.1c-0.4,0-0.9,0-1.3,0
		c-0.1,0-0.1,0-0.1-0.1c0-0.5,0-1,0.1-1.5c0,0,0,0,0-0.1c0-0.5,0-1,0-1.5c0-0.6,0-1.2,0.1-1.8c0-0.6,0-1.1,0.1-1.7
		c0-0.2,0-0.5,0-0.7c0,0,0.1-0.1,0.1-0.1c0,0,0.1,0,0.1,0c1.1,0,2.2,0,3.3,0c0.6,0,1,0.2,1.5,0.5c0.4,0.3,0.5,0.8,0.6,1.2
		c0.1,0.5,0,1-0.1,1.5c-0.3,0.8-1.1,1.5-2,1.5c-0.6,0-1.3,0-1.9,0C468.1,61.2,468.1,61.2,468,61.2z M468,60c0.6,0,1.2,0,1.8-0.1
		c0.2,0,0.5-0.1,0.6-0.3c0.3-0.3,0.3-0.7,0.2-1.1c0-0.2-0.1-0.3-0.3-0.4c-0.2-0.2-0.5-0.3-0.8-0.3c-0.4,0-0.9,0-1.3,0
		c-0.1,0-0.1,0-0.2,0C468.1,58.5,468,59.2,468,60z"/>
	<path class="st43" d="M461.7,54.8c0.1-0.1,0.2-0.2,0.2-0.2c0.3-0.3,0.7-0.6,1-0.9c0.4-0.3,0.8-0.5,1.3-0.5c0.5-0.1,0.9,0,1.4,0.1
		c0.3,0.1,0.7,0.1,1,0.2c0.4,0,0.7-0.1,1-0.2c0.4-0.2,0.8-0.4,1.2-0.6c0,0,0.1,0,0.1-0.1c0,0,0,0,0,0c0,0,0,0.1-0.1,0.1
		c-0.3,0.3-0.6,0.6-0.9,0.9c-0.4,0.4-0.9,0.7-1.6,0.9c-0.4,0.1-0.8,0-1.3-0.1c-0.4-0.1-0.8-0.2-1.2-0.2c-0.6,0-1.2,0.1-1.8,0.4
		C462.1,54.7,461.9,54.8,461.7,54.8C461.7,54.8,461.7,54.8,461.7,54.8z"/>
	<path class="st44" d="M460.9,56.2c0,0,0.1-0.1,0.1-0.1c0.2-0.2,0.5-0.4,0.7-0.7c0.4-0.4,0.9-0.7,1.5-0.8c0.5-0.1,1-0.1,1.4,0
		c0.5,0.1,0.9,0.2,1.4,0.2c0.3,0,0.7-0.1,1-0.2c0.4-0.2,0.8-0.4,1.2-0.6c0,0,0.1,0,0.2,0c-0.1,0.1-0.2,0.2-0.3,0.3
		c-0.3,0.3-0.7,0.7-1,1c-0.4,0.3-0.8,0.5-1.3,0.6c-0.5,0.1-1,0-1.5-0.1c-0.3-0.1-0.6-0.1-1-0.1c-0.5,0-1,0.1-1.5,0.3
		C461.4,56,461.2,56.1,460.9,56.2C460.9,56.2,460.9,56.2,460.9,56.2z"/>
	<path class="st44" d="M475.9,64.9c0.1,0,0.3,0,0.4,0c0,0,0.1,0,0.1,0.1c0.1,0.2,0.2,0.4,0.3,0.6c0.1,0.2,0.2,0.4,0.3,0.6
		c0,0,0,0,0,0c0-0.4,0-0.8,0-1.3c0.1,0,0.3,0,0.4,0c0,0.1,0,0.2,0,0.3c0,0.5,0,1,0,1.5c0,0.1,0,0.2-0.1,0.2c-0.1,0-0.2,0-0.3,0
		c-0.2-0.4-0.5-0.9-0.7-1.3c0,0,0,0,0,0c0,0.4,0,0.9,0,1.3c-0.1,0-0.3,0-0.4,0C475.9,66.3,475.9,65.6,475.9,64.9z"/>
	<path class="st44" d="M501.2,66.3c0.1,0,0.3,0,0.4,0c0.1,0.3,0.4,0.4,0.7,0.3c0.1,0,0.1-0.1,0.1-0.2c0-0.1-0.1-0.1-0.2-0.2
		c-0.2-0.1-0.4-0.1-0.6-0.2c-0.4-0.1-0.5-0.6-0.2-0.9c0.3-0.3,1-0.3,1.3,0c0.1,0.1,0.2,0.3,0.1,0.4c-0.1,0-0.2,0-0.3,0
		c0,0-0.1-0.1-0.1-0.1c-0.1-0.2-0.2-0.2-0.4-0.2c-0.1,0-0.3,0-0.3,0.2c-0.1,0.1,0,0.2,0.1,0.2c0.2,0.1,0.4,0.1,0.6,0.2
		c0.3,0.1,0.5,0.2,0.5,0.5c0,0.4-0.2,0.6-0.5,0.7c-0.3,0.1-0.6,0.1-0.9-0.1C501.3,66.7,501.2,66.6,501.2,66.3z"/>
	<path class="st44" d="M489.2,66.9c0-0.7,0-1.3,0.1-2c0.5,0,1,0,1.5,0c0,0.1,0,0.2,0,0.3c-0.3,0-0.7,0-1.1,0c0,0.1,0,0.3,0,0.4
		c0.3,0,0.6,0,0.9,0c0,0.1,0,0.3,0,0.4c-0.3,0-0.6,0-1,0c0,0.2,0,0.3,0,0.5c0.4,0,0.7,0,1.1,0c0,0.1,0,0.2,0,0.3
		c0,0-0.1,0.1-0.1,0.1C490.2,66.9,489.7,66.9,489.2,66.9z"/>
	<path class="st44" d="M499.1,64.9c0.5,0,1,0,1.5,0c0,0.1,0,0.2,0,0.3c-0.3,0-0.7,0-1.1,0c0,0.1,0,0.3,0,0.4c0.3,0,0.6,0,1,0
		c0,0.1,0,0.2,0,0.4c-0.3,0-0.6,0-1,0c0,0.2,0,0.3,0,0.5c0.4,0,0.7,0,1.1,0c0,0.1,0,0.3,0,0.4c-0.5,0-1,0-1.5,0
		C499.1,66.3,499.1,65.6,499.1,64.9z"/>
	<path class="st44" d="M468.7,64.9c0.5,0,1,0,1.5,0c0,0.1,0,0.2,0,0.3c-0.3,0-0.7,0-1,0c0,0.1,0,0.3,0,0.4c0.3,0,0.6,0,1,0
		c0,0.1,0,0.3,0,0.4c-0.3,0-0.6,0-1,0c0,0.2,0,0.3,0,0.5c0.4,0,0.8,0,1.1,0c0,0.1,0,0.3,0,0.4c-0.5,0-1,0-1.5,0
		C468.6,66.3,468.6,65.6,468.7,64.9z"/>
	<path class="st44" d="M473.4,66.9c0-0.7,0-1.3,0.1-2c0.1,0,0.3,0,0.4,0c0,0.2,0,0.5,0,0.7c0.3,0,0.5,0,0.7,0c0-0.2,0-0.5,0.1-0.7
		c0.1,0,0.3,0,0.4,0c0,0.7,0,1.3-0.1,2c-0.2,0-0.3,0-0.4,0c0-0.3,0-0.6,0-0.9c-0.2,0-0.5,0-0.8,0c0,0.3,0,0.6,0,0.9
		C473.7,66.9,473.5,66.9,473.4,66.9z"/>
	<path class="st44" d="M483,64.9c0.2,0.7,0.4,1.3,0.6,2c-0.2,0-0.3,0-0.5,0c0-0.1-0.1-0.2-0.1-0.4c-0.2,0-0.4,0-0.6,0
		c0,0-0.1,0.1-0.1,0.1c0,0.1-0.1,0.2-0.1,0.3c-0.2,0-0.3,0-0.5,0c0.3-0.7,0.5-1.3,0.8-2C482.7,64.9,482.8,64.9,483,64.9z M483,66.2
		c-0.1-0.2-0.1-0.4-0.2-0.7c0,0,0,0,0,0c-0.1,0.2-0.2,0.4-0.2,0.7C482.7,66.2,482.8,66.2,483,66.2z"/>
	<path class="st44" d="M472.6,66.3c0,0.3-0.3,0.6-0.6,0.7c-0.4,0.1-0.7,0.1-1-0.3c-0.1-0.1-0.2-0.3-0.2-0.5c0-0.3,0-0.6,0.2-0.9
		c0.2-0.4,0.7-0.5,1.1-0.4c0.2,0.1,0.4,0.2,0.5,0.5c0,0.1,0,0.1,0,0.2c-0.2,0-0.3,0-0.4,0c-0.1-0.3-0.4-0.4-0.7-0.2
		c-0.1,0.1-0.2,0.2-0.2,0.3c0,0.2,0,0.4,0,0.6c0,0.2,0.2,0.4,0.4,0.4c0.2,0,0.3-0.1,0.4-0.3c0,0,0.1-0.1,0.2-0.1
		C472.4,66.2,472.5,66.3,472.6,66.3z"/>
	<path class="st44" d="M481.2,65.6c-0.2,0-0.3,0-0.4,0c-0.1-0.3-0.3-0.4-0.6-0.3c-0.1,0.1-0.2,0.2-0.3,0.3c-0.1,0.2-0.1,0.4-0.1,0.6
		c0.1,0.2,0.2,0.4,0.4,0.4c0.2,0,0.4-0.1,0.5-0.4c0.1,0,0.3,0,0.4,0c0,0.4-0.4,0.7-0.8,0.7c-0.7,0.1-1-0.4-1-1c0-0.4,0.1-0.7,0.4-1
		c0.4-0.4,1.3-0.3,1.4,0.4C481.2,65.5,481.2,65.5,481.2,65.6z"/>
	<path class="st44" d="M493.1,66.9c-0.2,0-0.3,0-0.5,0c0,0-0.1-0.1-0.1-0.1c-0.1-0.2-0.2-0.4-0.3-0.6c-0.1,0.2-0.2,0.3-0.3,0.5
		c-0.1,0.2-0.2,0.2-0.4,0.2c-0.1,0-0.2,0-0.3,0c0.2-0.4,0.5-0.7,0.7-1c-0.2-0.3-0.4-0.6-0.6-1c0.2,0,0.3,0,0.5,0
		c0,0,0.1,0.1,0.1,0.1c0.1,0.1,0.2,0.3,0.3,0.5c0.1-0.2,0.2-0.3,0.3-0.5c0.1-0.1,0.1-0.1,0.2-0.1c0.1,0,0.2,0,0.4,0
		c-0.1,0.1-0.1,0.2-0.2,0.3c-0.1,0.2-0.3,0.4-0.4,0.6c0,0.1-0.1,0.1,0,0.2C492.7,66.3,492.9,66.6,493.1,66.9z"/>
	<path class="st44" d="M487.6,65.3c-0.2,0-0.4,0-0.6,0c0-0.1,0-0.2,0-0.3c0.5,0,1.1,0,1.6,0c0,0.1,0,0.2,0,0.3c-0.2,0-0.4,0-0.6,0
		c0,0,0,0.1,0,0.1c0,0.5,0,0.9,0,1.4c0,0.1,0,0.2-0.2,0.2c-0.1,0-0.2,0-0.3,0C487.6,66.4,487.6,65.9,487.6,65.3z"/>
	<path class="st44" d="M466.9,66.9c0-0.6,0-1.1,0-1.6c-0.2,0-0.4,0-0.6,0c0-0.1,0-0.2,0-0.3c0.5,0,1.1,0,1.6,0c0,0.1,0,0.2,0,0.3
		c-0.2,0-0.4,0-0.6,0c0,0.6,0,1.1,0,1.6C467.2,66.9,467,66.9,466.9,66.9z"/>
	<path class="st44" d="M495.2,64.9c0,0.1,0,0.2,0,0.3c-0.2,0-0.4,0-0.6,0c0,0.6,0,1.1-0.1,1.7c-0.2,0-0.3,0-0.4,0c0-0.5,0-1.1,0-1.6
		c-0.2,0-0.4,0-0.6,0c0-0.1,0-0.2,0-0.3C494.1,64.9,494.6,64.9,495.2,64.9z"/>
	<path class="st44" d="M497.4,66.6c0.3,0,0.6,0,1,0c0,0.1,0,0.2,0,0.4c-0.5,0-0.9,0-1.4,0c0-0.7,0-1.3,0.1-2c0.2,0,0.3,0,0.4,0
		C497.4,65.5,497.4,66,497.4,66.6z"/>
	<path class="st44" d="M484.3,64.9c0.1,0,0.3,0,0.4,0c0,0.5,0,1.1-0.1,1.6c0.3,0,0.7,0,1,0c0,0.1,0,0.2,0,0.4c-0.5,0-0.9,0-1.4,0
		C484.3,66.3,484.3,65.6,484.3,64.9z"/>
	<path class="st44" d="M478.3,66.9c0-0.7,0-1.3,0.1-2c0.1,0,0.3,0,0.4,0c0,0.7,0,1.3-0.1,2C478.6,66.9,478.5,66.9,478.3,66.9z"/>
	<path class="st44" d="M496.2,66.9c-0.2,0-0.3,0-0.4,0c0-0.7,0-1.3,0.1-2c0.1,0,0.3,0,0.4,0C496.3,65.6,496.2,66.3,496.2,66.9z"/>
	<path class="st43" d="M505.7,57.3c0,0.6-0.5,1-1,1c-0.6,0-1-0.5-1-1c0-0.6,0.5-1,1-1C505.3,56.2,505.7,56.7,505.7,57.3z
		 M504.7,56.3c-0.5,0-1,0.4-1,1c0,0.5,0.4,1,1,1c0.5,0,1-0.4,1-1C505.7,56.8,505.2,56.3,504.7,56.3z"/>
	<g>
		<path class="st45" d="M504.1,57.9v-1.2h0.5c0.1,0,0.2,0,0.3,0c0.1,0,0.1,0.1,0.1,0.1c0,0.1,0.1,0.1,0.1,0.2c0,0.1,0,0.2-0.1,0.2
			c-0.1,0.1-0.1,0.1-0.2,0.1c0.1,0,0.1,0.1,0.1,0.1c0,0,0.1,0.1,0.1,0.2l0.2,0.2H505l-0.2-0.3c-0.1-0.1-0.1-0.2-0.1-0.2
			c0,0,0,0-0.1-0.1c0,0-0.1,0-0.1,0h-0.1v0.5H504.1z M504.4,57.2h0.2c0.1,0,0.2,0,0.2,0c0,0,0.1,0,0.1-0.1c0,0,0-0.1,0-0.1
			c0,0,0-0.1,0-0.1c0,0-0.1,0-0.1,0c0,0-0.1,0-0.2,0h-0.2V57.2z"/>
	</g>
</g>
<g>
	<defs>
		<rect id="SVGID_21_" x="471.5" y="13.7" width="23.7" height="23.7"/>
	</defs>
	<clipPath id="SVGID_11_">
		<use xlink:href="#SVGID_21_"  style="overflow:visible;"/>
	</clipPath>
	<path style="clip-path:url(#SVGID_11_);fill:#2170B4;" d="M495.1,36.1c0,0.7-0.6,1.2-1.3,1.2h-21.1c-0.7,0-1.3-0.6-1.3-1.2V14.9
		c0-0.7,0.6-1.2,1.3-1.2h21.1c0.7,0,1.3,0.6,1.3,1.2V36.1z"/>
	<path style="clip-path:url(#SVGID_11_);fill:none;stroke:#FFFFFF;stroke-width:0.3344;stroke-miterlimit:10;" d="M494.5,36.1
		c0,0.3-0.3,0.6-0.6,0.6h-21.3c-0.3,0-0.6-0.3-0.6-0.6V14.9c0-0.3,0.3-0.6,0.6-0.6H494c0.3,0,0.6,0.3,0.6,0.6V36.1z"/>
	<path style="clip-path:url(#SVGID_11_);fill:#FFFFFF;" d="M479.1,29.8l2.7,0c0,0,0.4-2.2-3.6-2.3c-3.7,0-4,1-4.1,2.1
		c-0.1,2.3,4.2,2.1,4.9,2.7c0.6,0.6-1.8,1.3-2.3-0.1c0,0-2.9,0-2.9,0s-0.1,2.6,4.5,2.6c3.5-0.1,3.6-1.3,3.7-2.2
		c0.3-1.5-1.4-2.2-2.8-2.4c-1.5-0.2-2.5-0.4-2.1-0.9c0.4-0.5,1.8-0.2,1.9,0.4L479.1,29.8z"/>
	<polygon style="clip-path:url(#SVGID_11_);fill:#FFFFFF;" points="473.8,15.8 492.6,15.8 492.6,19 483.1,23.8 492.6,23.8 492.6,27 
		473.8,27 473.8,23.7 483.2,19.2 473.8,19.3 	"/>
	<path style="clip-path:url(#SVGID_11_);fill:none;stroke:#FFFFFF;stroke-width:4.799914e-02;stroke-miterlimit:3.864;" d="
		M479.1,29.8l2.7,0c0,0,0.4-2.2-3.6-2.3c-3.7,0-4,1-4.1,2.1c-0.1,2.3,4.2,2.1,4.9,2.7c0.6,0.6-1.8,1.3-2.3-0.1c0,0-2.9,0-2.9,0
		s-0.1,2.6,4.5,2.6c3.5-0.1,3.6-1.3,3.7-2.2c0.3-1.5-1.4-2.2-2.8-2.4c-1.5-0.2-2.5-0.4-2.1-0.9c0.4-0.5,1.8-0.2,1.9,0.4L479.1,29.8z
		"/>
	<polygon style="clip-path:url(#SVGID_11_);fill:#FFFFFF;" points="483.5,27.8 486.3,27.8 486.3,30 489.2,27.8 492.6,27.8 
		489.6,30.4 492.6,34.6 489.4,34.6 487.6,31.7 486.3,32.8 486.3,34.6 483.5,34.6 	"/>
</g>
<g>
	<g>
		<g>
			
				<image style="overflow:visible;opacity:0.75;" width="4819" height="1077" xlink:href="FFD47EA1.png"  transform="matrix(-9.737871e-03 -3.262958e-04 3.262958e-04 -9.737871e-03 86.3045 63.7784)">
			</image>
			<g>
				
					<linearGradient id="SVGID_12_" gradientUnits="userSpaceOnUse" x1="3346.9409" y1="-890.0285" x2="3392.6755" y2="-890.0285" gradientTransform="matrix(-1 0 0 -1 3433.2712 -832.7457)">
					<stop  offset="0" style="stop-color:#ED1C24"/>
					<stop  offset="6.180843e-02" style="stop-color:#F0401E"/>
					<stop  offset="0.198" style="stop-color:#F89A0F"/>
					<stop  offset="0.3222" style="stop-color:#FFF100"/>
					<stop  offset="0.3487" style="stop-color:#F0ED0E"/>
					<stop  offset="0.3992" style="stop-color:#CAE332"/>
					<stop  offset="0.4687" style="stop-color:#8CD36C"/>
					<stop  offset="0.5534" style="stop-color:#38BDBB"/>
					<stop  offset="0.6058" style="stop-color:#00AEEF"/>
					<stop  offset="0.7582" style="stop-color:#1A68BB"/>
					<stop  offset="0.8881" style="stop-color:#2E3192"/>
				</linearGradient>
				<path class="st13" d="M86.3,53.1c-3.2,4.1-25.2,17.8-45.7-0.5C66.4,66.2,82.6,54.4,86.3,53.1z"/>
			</g>
		</g>
		<g>
			
				<image style="overflow:visible;opacity:0.75;" width="4819" height="1077" xlink:href="FFD47EA3.png"  transform="matrix(9.742448e-03 -1.072395e-04 1.072395e-04 9.742448e-03 23.2645 47.7093)">
			</image>
			<g>
				
					<linearGradient id="SVGID_13_" gradientUnits="userSpaceOnUse" x1="-1038.4264" y1="185.4939" x2="-992.691" y2="185.4939" gradientTransform="matrix(1 0 0 1 1062.1328 -133.3105)">
					<stop  offset="0" style="stop-color:#ED1C24"/>
					<stop  offset="6.180843e-02" style="stop-color:#F0401E"/>
					<stop  offset="0.198" style="stop-color:#F89A0F"/>
					<stop  offset="0.3222" style="stop-color:#FFF100"/>
					<stop  offset="0.3487" style="stop-color:#F0ED0E"/>
					<stop  offset="0.3992" style="stop-color:#CAE332"/>
					<stop  offset="0.4687" style="stop-color:#8CD36C"/>
					<stop  offset="0.5534" style="stop-color:#38BDBB"/>
					<stop  offset="0.6058" style="stop-color:#00AEEF"/>
					<stop  offset="0.7582" style="stop-color:#1A68BB"/>
					<stop  offset="0.8881" style="stop-color:#2E3192"/>
				</linearGradient>
				<path class="st32" d="M23.7,56.3c3.2-4.1,25.2-17.8,45.7,0.5C43.7,43.2,27.4,55.1,23.7,56.3z"/>
			</g>
		</g>
		
			<image style="overflow:visible;opacity:0.75;" width="6457" height="795" xlink:href="FFD47EA6.png"  transform="matrix(9.743102e-03 0 0 9.743102e-03 8.9379 64.6539)">
		</image>
		<g>
			<linearGradient id="SVGID_14_" gradientUnits="userSpaceOnUse" x1="9.028" y1="69.9675" x2="70.7322" y2="65.6527">
				<stop  offset="0" style="stop-color:#F9ED32"/>
				<stop  offset="9.134685e-04" style="stop-color:#F9EC32"/>
				<stop  offset="4.941747e-02" style="stop-color:#EBBB3D"/>
				<stop  offset="7.343120e-02" style="stop-color:#E5A841"/>
				<stop  offset="0.1559" style="stop-color:#F9ED32"/>
				<stop  offset="0.1701" style="stop-color:#F5DE36"/>
				<stop  offset="0.1978" style="stop-color:#EEC83B"/>
				<stop  offset="0.2277" style="stop-color:#EAB83F"/>
				<stop  offset="0.2614" style="stop-color:#E7AE41"/>
				<stop  offset="0.3066" style="stop-color:#E6AB42"/>
				<stop  offset="0.3544" style="stop-color:#E7B041"/>
				<stop  offset="0.4079" style="stop-color:#EBBD3E"/>
				<stop  offset="0.464" style="stop-color:#F2D338"/>
				<stop  offset="0.5126" style="stop-color:#F9ED32"/>
				<stop  offset="0.5459" style="stop-color:#F0CC3A"/>
				<stop  offset="0.5756" style="stop-color:#E9B440"/>
				<stop  offset="0.5943" style="stop-color:#E7AC42"/>
				<stop  offset="0.6637" style="stop-color:#ECBF3E"/>
				<stop  offset="0.7383" style="stop-color:#F2D838"/>
				<stop  offset="0.832" style="stop-color:#E6AE40"/>
				<stop  offset="0.9452" style="stop-color:#ECC33D"/>
				<stop  offset="0.9478" style="stop-color:#EBC13D"/>
				<stop  offset="0.9783" style="stop-color:#E6AD3F"/>
				<stop  offset="0.999" style="stop-color:#E4A640"/>
			</linearGradient>
			<path style="fill-rule:evenodd;clip-rule:evenodd;fill:url(#SVGID_14_);" d="M23.6,64.5c0.2,0,0.3,0.1,0.5,0.1
				c0.4,0.1,0.8,0.3,1,0.6c0.2,0.2,0.2,0.4,0.3,0.7c0,0.2,0,0.4,0,0.6c0,1,0,1.9,0,2.9c0,0.7-0.4,1.3-1.1,1.6
				c-0.3,0.1-0.6,0.1-0.9,0.1c-1.5,0-3.1,0-4.6,0c-0.7,0-1.2-0.3-1.6-0.9c-0.1-0.2-0.2-0.5-0.2-0.7c0-1.1,0-2.1,0-3.2
				c0-0.5,0.2-0.9,0.6-1.2c0.3-0.2,0.7-0.4,1.2-0.4c0.1,0,0.1,0,0.2,0C20.6,64.5,22.1,64.5,23.6,64.5z M21.3,66.3
				C21.3,66.3,21.3,66.3,21.3,66.3c-0.5,0-1,0-1.5,0c-0.4,0-0.7,0.2-0.7,0.7c0,0.2,0,0.4,0,0.6c0,0.4,0,0.8,0,1.2
				c0,0.2,0.1,0.4,0.3,0.5c0.1,0.1,0.3,0.1,0.4,0.1c1,0,2,0,3,0c0.4,0,0.6-0.2,0.7-0.6c0-0.6,0-1.2,0-1.8c0-0.4-0.2-0.6-0.6-0.6
				C22.3,66.3,21.8,66.3,21.3,66.3z M53,64.5c0.4,0,0.8,0.2,1.1,0.4c0.5,0.3,0.8,0.7,0.8,1.3c0,1.5,0,2.9,0,4.4c0,0.1,0,0.2,0,0.4
				c-0.6,0-1.2,0-1.8,0c0-0.5,0-1.1,0-1.6c-0.1,0-3.6,0-4,0c0,0.5,0,1.1,0,1.6c-0.6,0-1.2,0-1.8,0c0,0,0-0.1,0-0.1c0-1.5,0-3,0-4.5
				c0-0.5,0.2-1,0.5-1.3c0.3-0.3,0.6-0.4,1-0.4c0.1,0,0.1,0,0.2,0C50.4,64.5,51.7,64.5,53,64.5z M53.2,67.8c0-0.4,0-0.7,0-1
				c0-0.3-0.1-0.5-0.5-0.5c-1,0-2,0-3,0c-0.2,0-0.3,0.1-0.4,0.2c-0.1,0.2-0.1,0.4-0.1,0.6c0,0.3,0,0.5,0,0.8
				C50.5,67.8,51.8,67.8,53.2,67.8z M9.1,64.7c0,0,0.1,0,0.1,0c1.9,0,3.7,0,5.6,0c0.7,0,1.1,0.3,1.4,0.9c0.1,0.3,0.2,0.7,0.2,1
				c0,0.5,0,0.9,0,1.4c0,0.6-0.3,1-0.8,1.3c-0.2,0.1-0.4,0.1-0.6,0.1c-1.2,0-2.4,0-3.6,0c-0.1,0-0.2,0-0.3,0c0,0.1,0,0.1,0,0.1
				c0,0.4,0,0.8,0,1.3c0,0.1,0,0.1-0.1,0.1c-0.6,0-1.2,0-1.8,0C9.1,68.9,9.1,66.8,9.1,64.7z M11,67.9C11.1,67.9,11.1,67.9,11,67.9
				c1,0,2,0,2.9,0c0.2,0,0.4-0.1,0.4-0.3c0.1-0.2,0.1-0.4,0.1-0.7c0-0.2,0-0.4-0.2-0.5c-0.1-0.1-0.2-0.1-0.4-0.1c-0.9,0-1.8,0-2.8,0
				c0,0-0.1,0-0.1,0C11,66.9,11,67.4,11,67.9z M70.8,70.9c0-0.5,0-1.1,0-1.6c-1.6,0-3.2,0-4.8,0c0-0.3,0-0.6,0-0.9
				c1.5,0,2.9,0,4.4,0c0-0.5,0-0.9,0-1.4c-1.5,0-2.9,0-4.4,0c0-0.3,0-0.5,0-0.8c0,0,0,0,0,0c0.2,0,4.3,0,4.7,0c0-0.2,0-0.3,0-0.5
				c0-0.3,0-0.6,0-0.9c0-0.1,0-0.2-0.1-0.2c-0.9,0-1.9,0-2.8,0c-1.2,0-2.3,0-3.5,0c-0.1,0-0.2,0-0.2,0.2c0,1.5,0,3,0,4.5
				c0,0.5,0,1.1,0,1.6C66.4,70.9,68.6,70.9,70.8,70.9z M57.8,70.9c-0.6,0-1.2,0-1.9,0c0-2.1,0-4.2,0-6.3c0.1,0,0.1,0,0.1,0
				c0.5,0,1.1,0,1.6,0c1.3,0,2.6,0,4,0c0.3,0,0.5,0.1,0.7,0.2c0.3,0.2,0.5,0.5,0.6,0.8c0.2,0.6,0.3,1.3,0.2,1.9
				c0,0.3-0.1,0.6-0.2,0.8c-0.2,0.6-0.7,1.1-1.3,1c-1,0-2,0-3,0c-0.1,0-0.7,0-0.8,0c0,0,0,0.1,0,0.1c0,0.4,0,0.8,0,1.2
				C57.8,70.8,57.8,70.9,57.8,70.9z M57.8,66.2c0,0.5,0,1,0,1.5c0.1,0,0.2,0,0.3,0c0.5,0,0.9,0,1.4,0c0.2,0,0.4,0,0.6,0
				c0.2,0,0.4,0,0.6,0c0.3,0,0.4-0.1,0.5-0.4c0.1-0.2,0.1-0.5,0-0.7c-0.1-0.3-0.3-0.5-0.6-0.5c-0.6,0-1.2,0-1.9,0
				C58.4,66.2,58.1,66.2,57.8,66.2z M46.7,64.7C46.7,64.7,46.7,64.7,46.7,64.7c-0.2-0.1-0.4-0.1-0.5-0.1c-2.1,0-4.3,0-6.4,0
				c-0.1,0-0.1,0-0.1,0.1c0,0.4,0,0.8,0,1.2c0,0.1,0,0.2,0,0.3c0.9,0,1.7,0,2.6,0c0,1.6,0,3.1,0,4.7c0.1,0,0.1,0,0.2,0
				c0.5,0,1,0,1.5,0c0.2,0,0.2,0,0.2-0.2c0-1.5,0-2.9,0-4.4c0-0.1,0-0.1,0-0.2c0.9,0,1.7,0,2.6,0C46.7,65.7,46.7,65.2,46.7,64.7z
				 M28.4,64.7c-0.6,0-1.3,0-1.9,0c0,2.1,0,4.2,0,6.3c2,0,4,0,6,0c0-0.5,0-1.1,0-1.6c-1.4,0-2.7,0-4.1,0
				C28.4,67.8,28.4,66.2,28.4,64.7z M35.1,64.7c-0.6,0-1.1,0-1.7,0c-0.1,0-0.1,0.1-0.1,0.1c0,2,0,4,0,6c0,0,0,0.1,0,0.1
				c0.6,0,1.3,0,1.9,0C35.2,68.8,35.2,66.8,35.1,64.7C35.1,64.7,35.1,64.7,35.1,64.7z M38.1,67.9c-0.4,0-0.7,0-1.1,0
				c-0.1,0-0.1,0-0.1,0.1c0,0.5,0,1,0,1.5c0,0.1,0,0.1,0.1,0.1c0.7,0,1.5,0,2.2,0c0.1,0,0.1,0,0.1-0.1c0-0.5,0-1,0-1.4
				c0-0.1,0-0.1-0.1-0.1C38.8,67.9,38.5,67.9,38.1,67.9C38.1,67.9,38.1,67.9,38.1,67.9z"/>
		</g>
	</g>
</g>
<g>
	<path class="st53" d="M121.2,19.1c0.1,0,0.2,0,0.3,0c0.7,0,1.5,0.1,2.2,0.2c1.1,0.2,2.1,0.4,3.2,0.9c0.8,0.3,1.5,0.8,2,1.4
		c0.7,0.7,1.2,1.6,1.5,2.6c0.2,0.6,0.3,1.3,0.4,1.9c0.1,0.6,0.1,1.3,0.1,1.9c0,1-0.2,2-0.5,3c-0.5,1.5-1.5,2.7-2.9,3.5
		c-0.7,0.4-1.4,0.7-2.2,0.9c-0.6,0.2-1.2,0.3-1.8,0.3c-1.1,0.1-2.3,0.2-3.4,0.1c-0.7,0-1.5-0.1-2.2-0.2c-1-0.2-1.9-0.4-2.8-0.8
		c-0.7-0.3-1.4-0.8-2-1.4c-0.6-0.6-1.1-1.3-1.4-2.1c-0.3-0.7-0.5-1.4-0.6-2.2c-0.1-0.6-0.1-1.2-0.1-1.8c0-0.8,0.1-1.7,0.3-2.5
		c0.2-0.9,0.5-1.7,1.1-2.5c0.6-0.8,1.3-1.4,2.1-1.9c0.7-0.4,1.5-0.7,2.3-0.9c0.7-0.2,1.3-0.3,2-0.3c0.6-0.1,1.1-0.1,1.7-0.1
		c0,0,0.1,0,0.1,0C120.9,19.1,121.1,19.1,121.2,19.1z M124.2,27.4C124.2,27.4,124.2,27.4,124.2,27.4c0-0.7,0-1.4,0-2.1
		c0-0.5,0-1.1-0.1-1.6c0-0.2-0.1-0.4-0.2-0.7c-0.3-0.6-0.7-1.1-1.3-1.3c-0.4-0.2-0.7-0.2-1.1-0.3c-0.6,0-1.2,0-1.8,0.1
		c-0.5,0.1-0.9,0.3-1.2,0.7c-0.3,0.3-0.5,0.6-0.6,1c-0.1,0.2-0.1,0.4-0.1,0.6c0,0.4,0,0.8,0,1.2c0,1.5,0,3.1,0,4.6
		c0,0.5,0,1,0.1,1.4c0,0.5,0.2,0.9,0.5,1.3c0.4,0.5,0.9,0.7,1.4,0.9c0.5,0.1,1,0.2,1.6,0.1c0.3,0,0.7-0.1,1-0.2
		c0.5-0.1,0.9-0.4,1.2-0.8c0.4-0.4,0.5-0.9,0.6-1.4c0.1-0.4,0.1-0.9,0.1-1.3C124.2,29.1,124.2,28.2,124.2,27.4z"/>
	<path class="st53" d="M164.5,35.5c-0.1,0-0.1,0-0.2,0c-3.2,0-6.4,0-9.6,0c-0.1,0-0.1,0-0.2,0c0-0.1,0-2.3,0-2.5c0.1,0,0.2,0,0.4,0
		c0.1,0,0.3,0,0.4,0c0.1,0,0.2,0,0.4,0c0.1,0,0.3,0,0.4,0c0.1,0,0.2,0,0.4,0c0-3.7,0-7.4,0-11c-0.6,0-1.2,0-1.9,0c0-0.1,0-2.3,0-2.5
		c0,0,0.1,0,0.1,0c2.5,0,5,0,7.4,0c0.8,0,1.5,0,2.3,0c0,0,0.1,0,0.1,0c0,0.8,0,1.6,0,2.5c0,0-0.1,0-0.1,0c-0.5,0-1.1,0-1.6,0
		c0,0-0.1,0-0.1,0c0,0.2,0,10.9,0,11c0,0,0.1,0,0.1,0c0.6,0,1.1,0,1.7,0c0,0,0.1,0,0.1,0C164.5,33.8,164.5,34.7,164.5,35.5z"/>
	<path class="st53" d="M145.1,26.4C145.1,26.5,145.2,26.5,145.1,26.4c1.4,1.3,2.7,2.5,4,3.8c0.9,0.9,1.9,1.8,2.8,2.7
		c0.1,0.1,0.2,0.1,0.3,0.1c0.4,0,0.8,0,1.2,0c0,0,0.1,0,0.1,0c0,0.8,0,1.6,0,2.4c0,0,0,0,0,0c0,0,0,0,0,0c0,0,0,0-0.1,0
		c-3.2,0-6.4,0-9.6,0c0,0,0,0,0,0c0-0.8,0-1.6,0-2.5c0.5,0,1,0,1.5,0c0,0,0,0,0,0c-1.4-1.3-2.7-2.6-4.1-3.9c0,0-0.1,0-0.1,0
		c-0.2,0.1-0.4,0.3-0.6,0.4c-0.1,0-0.1,0.1-0.1,0.2c0,0.5,0,1,0,1.4c0,0.6,0,1.1,0,1.7c0,0,0,0.1,0,0.2c0.2,0,0.4,0,0.6,0
		c0.2,0,0.4,0,0.6,0c0.2,0,0.4,0,0.6,0c0,0.8,0,1.6,0,2.5c-0.1,0-9.8,0-9.9,0c0-0.1,0-2.3,0-2.5c0.2,0,0.5,0,0.7,0
		c0.2,0,0.5,0,0.7,0c0.2,0,0.5,0,0.7,0c0-0.1,0-10.9,0-11c-0.7,0-1.4,0-2.1,0c0-0.2,0-0.3,0-0.5c0-0.2,0-0.3,0-0.5
		c0-0.2,0-0.3,0-0.5c0-0.2,0-0.3,0-0.5c0-0.2,0-0.3,0-0.5c3.3,0,6.6,0,9.9,0c0,0.1,0,2.2,0,2.5c-0.3,0-0.6,0-0.9,0
		c-0.3,0-0.6,0-0.9,0c0,1.5,0,3,0,4.5c0,0,0,0,0,0c0,0,0,0,0,0c1.6-1.5,3.2-3,4.8-4.4c0,0,0,0,0,0c0,0,0,0,0,0c-0.2,0-0.3,0-0.5,0
		c-0.2,0-0.3,0-0.5,0c-0.2,0-0.3,0-0.5,0c0-0.8,0-1.6,0-2.5c0.1,0,7.9,0,8.2,0c0,0,0,0,0,0c0,0,0,0,0,0c0,0,0,0,0,0
		c0,0.8,0,1.6,0,2.3c0,0,0,0,0,0.1c0,0-0.1,0-0.1,0c-0.4,0-0.9,0-1.3,0c-0.1,0-0.1,0-0.2,0.1c-1.5,1.2-3,2.5-4.5,3.7
		c-0.2,0.2-0.4,0.4-0.7,0.6C145.2,26.4,145.1,26.4,145.1,26.4z"/>
</g>
<g>
	<path d="M119.1,51.9c2.1-1.6,4.1-3.1,6.2-4.7c-0.4,2.7-0.9,5.4-1.3,8c0.1,0,0.2,0,0.3,0c2,0,4.1,0,6.1,0c0.9,0,1.5,0.6,1.3,1.6
		c-0.6,4-1.3,8-1.9,11.9c0,0.3-0.1,0.5-0.1,0.8c-0.2,0.8-0.9,1.4-1.8,1.4c-0.4,0-0.9,0-1.3,0c0.1-0.5,0.1-0.9,0.2-1.3
		c0.3,0,0.5,0,0.8,0c0.2,0,0.2,0,0.2-0.2c0-0.2,0-0.5,0.1-0.8c-0.3,0-0.6,0-0.9,0c0,0-0.1,0.1-0.1,0.2c0,0.2-0.1,0.5-0.1,0.7
		c-0.4,0-0.9,0-1.3,0c0.1-0.4,0.1-0.9,0.2-1.3c0.2,0,0.4,0,0.6,0c0.2,0,0.4,0,0.4-0.3c0-0.2,0-0.4,0.1-0.6c-0.3,0-0.6,0-1,0
		c0,0.3-0.1,0.5-0.1,0.8c-0.5,0-0.9,0-1.3,0c0.1-0.4,0.1-0.8,0.2-1.3c0.3,0,0.6,0,0.8,0c0.2,0,0.3,0,0.3-0.3
		c0.3-2.1,0.7-4.2,1.1-6.3c0.1-0.5-0.2-0.9-0.7-0.9c-0.9,0-1.8,0-2.7,0c-0.1,0.6-0.2,1.1-0.3,1.6c-0.5,3-1,5.9-1.4,8.9
		c-0.1,0.5-0.3,0.8-0.7,0.9c-0.3,0.1-0.6,0.2-0.9,0.2c-2.7,0-5.5,0-8.2,0c-1,0-1.5-0.6-1.3-1.6c0.6-3.9,1.3-7.8,1.9-11.6
		c0.1-0.3,0.1-0.7,0.2-1c0.2-0.9,0.9-1.5,1.8-1.5c1.6,0,3.2,0,4.8,0c0.2,0,0.3-0.1,0.3-0.3c0.1-0.8,0.3-1.7,0.4-2.5
		c0-0.2,0-0.2-0.2-0.3C119.5,52.1,119.3,52,119.1,51.9z M118.7,59.3c-0.4,0-0.8,0-1.1,0c-0.6,0-1,0.3-1.1,0.9
		c-0.1,0.5-0.2,1-0.3,1.5c-0.2,1.4-0.5,2.8-0.7,4.2c-0.1,0.4,0.1,0.7,0.5,0.8c0.5,0,0.9,0,1.4,0C117.9,64.3,118.3,61.8,118.7,59.3z"
		/>
	<g>
		<path d="M157.9,58.2c0.4,0,0.7,0,1.1,0c0,0.1,0,0.2,0,0.3c0,1.8,0,3.7,0,5.5c0,0.4,0,0.8,0.1,1.2c0.1,0.6,0.5,0.9,1.1,1.1
			c0.9,0.2,1.8,0.2,2.7,0c0.6-0.1,1-0.5,1.1-1.1c0.1-0.4,0.1-0.8,0.1-1.2c0-1.8,0-3.6,0-5.4c0-0.1,0-0.2,0-0.3c0.4,0,0.7,0,1.1,0
			c0,0.1,0,0.2,0,0.3c0,1.9,0,3.9,0,5.8c0,0.3,0,0.7-0.1,1c-0.2,1.1-0.8,1.7-1.9,2c-1.1,0.3-2.2,0.3-3.3,0c-1.1-0.3-1.8-1-1.9-2.2
			c0-0.3-0.1-0.6-0.1-0.9c0-1.9,0-3.8,0-5.7C157.9,58.4,157.9,58.3,157.9,58.2z"/>
		<path d="M147.9,58.2c0.4,0,0.8,0,1.2,0c0.1,0,0.2,0.1,0.3,0.2c0.9,1,1.8,2.1,2.7,3.1c0.1,0.1,0.2,0.2,0.3,0.3
			c0.1-0.1,0.1-0.1,0.2-0.2c0.9-1.1,1.8-2.1,2.8-3.2c0.1-0.1,0.3-0.2,0.4-0.2c0.3,0,0.7,0,1.1,0c-0.1,0.1-0.1,0.2-0.2,0.2
			c-1.2,1.3-2.3,2.7-3.5,4c-0.2,0.2-0.3,0.4-0.3,0.7c0,1.3,0,2.5,0,3.8c0,0.2,0,0.3-0.3,0.3c-0.7,0-0.7,0-0.7-0.7c0-1.2,0-2.3,0-3.5
			c0-0.2-0.1-0.4-0.2-0.5c-1.2-1.3-2.3-2.7-3.5-4C148.1,58.4,148,58.3,147.9,58.2z"/>
		<path d="M137.8,58.2c0,0.2,0,0.3,0,0.4c0,2.4,0,4.9,0,7.3c0,0.3,0.1,0.3,0.3,0.3c1.7,0,3.4,0,5.1,0c0.1,0,0.2,0,0.3,0
			c0,0.3,0,0.7,0,1c-0.1,0-0.2,0-0.3,0c-2.1,0-4.2,0-6.2,0c-0.2,0-0.3-0.1-0.3-0.3c0-2.8,0-5.6,0-8.4c0-0.3,0.1-0.3,0.3-0.3
			C137.3,58.2,137.5,58.2,137.8,58.2z"/>
		<path d="M146.6,67.2c-0.3,0-0.7,0-1,0c0-3,0-6,0-9.1c0.3,0,0.7,0,1,0C146.6,61.2,146.6,64.2,146.6,67.2z"/>
	</g>
	<path d="M125.5,69.6c-0.1,0.4-0.1,0.8-0.2,1.2c0,0.1-0.1,0.1-0.2,0.1c-0.4,0-0.8,0-1.2,0c0.1-0.5,0.2-0.9,0.3-1.4
		C124.6,69.6,125,69.6,125.5,69.6z"/>
	<path d="M122.8,69.5c0.1-0.5,0.2-0.9,0.2-1.3c0.4,0,0.8,0,1.2,0c-0.1,0.5-0.2,0.9-0.2,1.3C123.7,69.5,123.3,69.5,122.8,69.5z"/>
	<text transform="matrix(1 0 0 1 144.8901 71.0815)" class="st22 st54 st55">QATAR</text>
</g>
<g>
	<g>
		<defs>
			<rect id="SVGID_26_" x="185.9" y="16.3" width="42" height="54.2"/>
		</defs>
		<clipPath id="SVGID_15_">
			<use xlink:href="#SVGID_26_"  style="overflow:visible;"/>
		</clipPath>
		<path style="clip-path:url(#SVGID_15_);fill:#F15629;" d="M206.6,58.4c-11.5-0.2-20.7-9.5-20.7-21c0-11.6,9.4-21,21-21
			c11.5,0,20.9,9.3,21,20.7L206.6,58.4z"/>
		<path style="clip-path:url(#SVGID_15_);fill:#FFFFFF;" d="M205.3,26.1h4l8.4,19.8h-4.5l-1.8-4.4H203l-1.8,4.4h-4.4L205.3,26.1z
			 M209.8,37.7l-2.6-6.4l-2.6,6.4H209.8z"/>
	</g>
	<g>
		<defs>
			<path id="SVGID_28_" d="M206.6,58.1c0,0.1,0,0.2,0,0.3l21.3-21.3c-0.1,0-0.2,0-0.3,0C216,37.1,206.6,46.5,206.6,58.1"/>
		</defs>
		<clipPath id="SVGID_16_">
			<use xlink:href="#SVGID_28_"  style="overflow:visible;"/>
		</clipPath>
		
			<linearGradient id="SVGID_17_" gradientUnits="userSpaceOnUse" x1="37.3534" y1="343.7853" x2="38.0176" y2="343.7853" gradientTransform="matrix(6.3549 5.901 -5.901 6.3549 2005.2751 -2360.4924)">
			<stop  offset="0" style="stop-color:#F7941D"/>
			<stop  offset="1" style="stop-color:#F15A29"/>
		</linearGradient>
		<polygon style="clip-path:url(#SVGID_16_);fill:url(#SVGID_17_);" points="196,48.5 218.1,69 238.6,46.9 216.5,26.4 		"/>
	</g>
	<path class="st59" d="M190.3,65.5l0.9,2.2h-1.8L190.3,65.5z M189.6,63.7l-2.8,6.7h1.5l0.6-1.5h2.8l0.6,1.5h1.5l-2.8-6.7H189.6z"/>
	<path class="st59" d="M196.1,63.8h3c0.8,0,1.5,0.2,1.9,0.7c0.4,0.4,0.6,0.9,0.6,1.5v0c0,1.1-0.6,1.7-1.4,2.1l1.6,2.4h-1.7l-1.4-2.1
		h0h-1.1v2.1h-1.5V63.8z M199,67c0.7,0,1.1-0.4,1.1-0.9v0c0-0.6-0.4-1-1.1-1h-1.5V67H199z"/>
	<polygon class="st59" points="204.7,63.8 206.1,63.8 206.1,69.1 209.5,69.1 209.5,70.4 204.7,70.4 	"/>
	<path class="st59" d="M211.3,67.1L211.3,67.1c0-1.9,1.5-3.5,3.5-3.5c2.1,0,3.5,1.5,3.5,3.4v0c0,1.9-1.5,3.4-3.5,3.4
		C212.8,70.5,211.3,69,211.3,67.1 M216.8,67.1L216.8,67.1c0-1.2-0.8-2.1-2-2.1c-1.2,0-2,0.9-2,2.1v0c0,1.1,0.8,2.1,2,2.1
		C216,69.2,216.8,68.2,216.8,67.1"/>
	<polygon class="st59" points="220.8,63.8 222.1,63.8 225.2,67.8 225.2,63.8 226.7,63.8 226.7,70.4 225.4,70.4 222.2,66.2 
		222.2,70.4 220.8,70.4 	"/>
	<g>
		<g>
			<defs>
				<rect id="SVGID_31_" x="205.7" y="38.3" width="14.8" height="20.1"/>
			</defs>
			<clipPath id="SVGID_18_">
				<use xlink:href="#SVGID_31_"  style="overflow:visible;"/>
			</clipPath>
			<g style="clip-path:url(#SVGID_18_);">
				<defs>
					<rect id="SVGID_33_" x="205.7" y="38.3" width="14.8" height="20.1"/>
				</defs>
				<clipPath id="SVGID_19_">
					<use xlink:href="#SVGID_33_"  style="overflow:visible;"/>
				</clipPath>
				<path style="clip-path:url(#SVGID_19_);fill:#E6E7E8;" d="M206.6,58.1c0-9.1,5.8-16.8,13.8-19.8c-8.5,2.7-14.7,10.6-14.8,20
					c0.3,0,0.6,0,0.9,0C206.6,58.3,206.6,58.2,206.6,58.1"/>
			</g>
		</g>
	</g>
</g>
<g>
	<g>
		<g>
			<path class="st62" d="M270.3,55.6c-0.5,0.1-0.9,0.2-1.3,0.4h3.6C271.9,55.6,271.1,55.4,270.3,55.6z M273.2,56.3
				c-0.1-0.1-0.2-0.2-0.3-0.2h-4.3c-0.2,0.1-0.3,0.2-0.5,0.3c-0.1,0.1-0.1,0.1-0.2,0.2h5.6C273.4,56.5,273.3,56.4,273.2,56.3z
				 M267.5,65.4c0.2,0.1,0.4,0.3,0.6,0.4c0.1,0,0.1,0.1,0.2,0.1h3c0.4-0.1,0.7-0.3,1-0.5H267.5z M266.8,64.7
				c0.1,0.2,0.3,0.4,0.5,0.5h5.3c0.1-0.1,0.2-0.2,0.3-0.2c0.1-0.1,0.2-0.2,0.3-0.3H266.8z M267.9,62.6H266c0,0.2,0.1,0.4,0.1,0.5h2
				C268,63,268,62.8,267.9,62.6z M268.2,63.3h-2c0,0.2,0.1,0.3,0.2,0.5h2.2C268.4,63.6,268.3,63.5,268.2,63.3z M267.8,62.3
				c0-0.1,0-0.3,0-0.4h-1.9c0,0.2,0,0.4,0,0.5h1.9C267.9,62.3,267.9,62.3,267.8,62.3z M266,60.4c0,0.1,0,0.2,0,0.3
				c0,0.1,0,0.2,0,0.4h1.9c0-0.2,0-0.4,0.1-0.6H266z M266.4,58.9c-0.1,0.2-0.1,0.4-0.2,0.6h1.9c0-0.1,0.1-0.3,0.2-0.4
				c0-0.1,0-0.1,0.1-0.2H266.4z M267.1,57.5c-0.1,0.2-0.3,0.4-0.4,0.6h2.2c0.2-0.3,0.5-0.5,0.8-0.6H267.1z M266.6,58.3
				c-0.1,0.1-0.1,0.3-0.2,0.4h2c0.1-0.1,0.2-0.3,0.3-0.4H266.6z M266.1,59.6c0,0.2-0.1,0.4-0.1,0.6h1.9c0-0.2,0.1-0.4,0.2-0.6H266.1
				z M267.8,61.2h-1.9c0,0.2,0,0.3,0,0.5h1.9C267.8,61.5,267.8,61.3,267.8,61.2z M271.3,64c-0.3,0.2-0.7,0.4-1,0.4
				c-0.6,0.1-1.1-0.1-1.5-0.4h-2.3c0.1,0.1,0.1,0.3,0.2,0.4c0,0,0.1,0.1,0.1,0.1h6.6c0.2-0.2,0.3-0.4,0.4-0.6H271.3z M272,63.3
				c-0.1,0.1-0.2,0.2-0.3,0.4c0,0-0.1,0.1-0.1,0.1h2.3c0.1-0.2,0.2-0.3,0.3-0.5H272z M272.4,62.6c-0.1,0.2-0.2,0.4-0.3,0.5h2.1
				c0.1-0.2,0.1-0.4,0.2-0.5H272.4z M274.7,59.6h-1.9c0,0.2,0,0.4,0,0.6h1.9C274.7,60,274.7,59.8,274.7,59.6z M274.4,58.3h-2.1
				c0.1,0.1,0.1,0.3,0.2,0.4h2C274.5,58.5,274.5,58.4,274.4,58.3z M274.1,57.5h-2.6c0.2,0.1,0.3,0.2,0.4,0.3
				c0.1,0.1,0.2,0.2,0.3,0.3h2.1C274.3,57.9,274.2,57.7,274.1,57.5z M274.6,59.3c0-0.1,0-0.3-0.1-0.4h-2c0.1,0.2,0.1,0.4,0.1,0.6
				h1.9C274.7,59.4,274.7,59.3,274.6,59.3z M272.8,60.4c0,0.2,0,0.4,0,0.6h1.9c0-0.2,0-0.4,0-0.6H272.8z M272.7,61.2
				c0,0.2-0.1,0.3-0.1,0.5h1.9c0-0.2,0.1-0.3,0.1-0.5H272.7z M272.6,61.8c-0.1,0.2-0.1,0.4-0.2,0.5h2c0.1-0.2,0.1-0.4,0.1-0.5H272.6
				z M268.8,66.1c0.5,0.1,0.9,0.1,1.5,0.1c0.1,0,0.2,0,0.3-0.1H268.8z M273.6,56.8h-6c-0.2,0.2-0.3,0.3-0.5,0.5h3.3
				c0.1,0,0.3,0,0.4,0h3.1C273.9,57.1,273.8,56.9,273.6,56.8z"/>
		</g>
	</g>
	<g>
		<g>
			<path class="st62" d="M281.7,62.5l1.8,0.6c-0.4,1.2-0.9,1.8-1.7,2.4c-0.8,0.6-1.7,0.9-2.7,0.8c-1.1-0.1-2-0.5-2.6-1.3
				c-0.6-0.8-0.9-1.9-0.8-3.4c0.1-1.2,0.3-2.3,0.8-3.2c0.5-1,1.1-1.7,1.9-2.2c0.8-0.5,1.6-0.7,2.5-0.7c1,0,1.8,0.4,2.4,1
				c0.6,0.6,0.9,1.7,1,2.7l-1.8,0.1c-0.1-0.6-0.3-1.2-0.5-1.5c-0.3-0.3-0.7-0.4-1.1-0.5c-0.5,0-1,0.1-1.5,0.5
				c-0.5,0.3-0.9,0.9-1.2,1.6c-0.3,0.8-0.5,1.5-0.5,2.3c0,0.8,0.1,1.5,0.4,2c0.3,0.5,0.8,0.7,1.3,0.7c0.5,0,1-0.1,1.4-0.5
				C281.2,63.7,281.5,63.2,281.7,62.5z"/>
		</g>
	</g>
	<g>
		<g>
			<path class="st62" d="M290.3,63.8l-3.9,0l-1.2,2.2l-2.1,0l5.2-10.1l2.4,0l1.8,10.1h-1.9L290.3,63.8z M290,62.2l-1-4.5l-1.9,4.5
				L290,62.2z"/>
		</g>
	</g>
	<path class="st62" d="M293.7,65.7l1.5-9.2c0,0-1.9-0.8-1.4-3.3c0,0,0.2,0.8,0.4,0.8c0,0-0.1-1.2,0.4-1.7c0.5-0.5,0.2-1.5,0.2-1.5
		s0.5,0.3,0.5,0.9c0,0,1-1,0.4-2c-0.5-1.1-0.4-1.9-0.4-1.9s0.6,1.3,1.6,1.9c1,0.6,0.5,1.8,0.5,1.8s0.3-0.6,0.7-0.7
		c0,0-0.4,0.8,0,1.4c0.4,0.6,0.1,1.3,0.1,1.3s0.4-0.1,0.5-0.4c0,0,0.8,3.1-1.8,3.5l-1.5,9.4h-3.9l0.4-0.4L293.7,65.7z"/>
	<path class="st62" d="M263.8,52.7h2L263,66h-1.8l-4.1-9.5l-1.5,9c0,0-0.1,0.5,0.5,0.5h0.5v0.6h-3.7V66h0.4c0,0,0.6,0,0.6-0.5
		l1.9-12.4h2.4l3.8,9.1L263.8,52.7z"/>
	<g>
		<g>
			<rect x="253.3" y="69.1" class="st62" width="7.8" height="0.4"/>
		</g>
	</g>
	<g>
		<g>
			<rect x="289.5" y="69" class="st62" width="6.1" height="0.4"/>
		</g>
	</g>
	<g>
		<g>
			<path class="st62" d="M262.4,70.8v-3.9h1.1c0.3,0,0.5,0,0.6,0.1c0.2,0.1,0.3,0.2,0.5,0.3c0.1,0.2,0.2,0.4,0.3,0.6
				c0.1,0.2,0.1,0.5,0.1,0.9c0,0.4-0.1,0.8-0.2,1.1c-0.1,0.3-0.3,0.5-0.5,0.6c-0.2,0.1-0.5,0.2-0.8,0.2H262.4z M262.8,70.4h0.7
				c0.3,0,0.5,0,0.6-0.1c0.1-0.1,0.2-0.2,0.3-0.4c0.1-0.3,0.2-0.6,0.2-0.9c0-0.4-0.1-0.7-0.2-0.9c-0.1-0.2-0.2-0.4-0.4-0.5
				c-0.1-0.1-0.3-0.1-0.5-0.1h-0.7V70.4z"/>
			<path class="st62" d="M265.5,67.5v-0.5h0.4v0.5H265.5z M265.5,70.8V68h0.4v2.8H265.5z"/>
			<path class="st62" d="M266.4,71.1l0.4,0.1c0,0.2,0.1,0.3,0.2,0.3c0.1,0.1,0.2,0.1,0.4,0.1c0.2,0,0.3,0,0.4-0.1
				c0.1-0.1,0.2-0.2,0.2-0.4c0-0.1,0-0.3,0-0.6c-0.1,0.1-0.2,0.2-0.3,0.3c-0.1,0.1-0.2,0.1-0.4,0.1c-0.3,0-0.5-0.1-0.7-0.3
				c-0.2-0.3-0.3-0.6-0.3-1.1c0-0.3,0-0.6,0.1-0.8c0.1-0.2,0.2-0.4,0.4-0.5c0.1-0.1,0.3-0.2,0.5-0.2c0.1,0,0.3,0,0.4,0.1
				c0.1,0.1,0.2,0.2,0.3,0.3V68h0.4v2.4c0,0.4,0,0.7-0.1,0.9c-0.1,0.2-0.2,0.3-0.3,0.4c-0.2,0.1-0.4,0.2-0.6,0.2
				c-0.3,0-0.5-0.1-0.7-0.2C266.5,71.6,266.4,71.3,266.4,71.1z M266.8,69.4c0,0.4,0.1,0.6,0.2,0.8c0.1,0.2,0.3,0.3,0.4,0.3
				c0.2,0,0.3-0.1,0.4-0.2c0.1-0.2,0.2-0.4,0.2-0.8c0-0.4-0.1-0.6-0.2-0.8s-0.3-0.3-0.5-0.3c-0.2,0-0.3,0.1-0.4,0.3
				S266.8,69,266.8,69.4z"/>
			<path class="st62" d="M269,67.5v-0.5h0.4v0.5H269z M269,70.8V68h0.4v2.8H269z"/>
			<path class="st62" d="M270.8,70.4l0.1,0.4c-0.1,0-0.2,0-0.3,0c-0.1,0-0.2,0-0.3-0.1c-0.1-0.1-0.1-0.1-0.2-0.2c0-0.1,0-0.3,0-0.6
				v-1.6h-0.3V68h0.3v-0.7l0.4-0.3v1h0.4v0.4h-0.4V70c0,0.2,0,0.2,0,0.3c0,0.1,0.1,0.1,0.2,0.1C270.7,70.4,270.8,70.4,270.8,70.4z"
				/>
			<path class="st62" d="M272.7,70.5c-0.1,0.1-0.3,0.2-0.4,0.3c-0.1,0.1-0.3,0.1-0.4,0.1c-0.2,0-0.4-0.1-0.6-0.2
				c-0.1-0.1-0.2-0.3-0.2-0.6c0-0.2,0-0.3,0.1-0.4c0.1-0.1,0.2-0.2,0.3-0.3c0.1-0.1,0.3-0.1,0.5-0.2c0.3,0,0.5-0.1,0.7-0.2l0-0.1
				c0-0.2,0-0.3-0.1-0.4c-0.1-0.1-0.2-0.2-0.4-0.2c-0.2,0-0.3,0-0.4,0.1c-0.1,0.1-0.2,0.2-0.2,0.4l-0.4-0.1c0.1-0.3,0.2-0.5,0.3-0.7
				c0.2-0.1,0.4-0.2,0.7-0.2c0.2,0,0.4,0,0.6,0.1s0.2,0.2,0.3,0.3c0,0.1,0.1,0.3,0.1,0.6v0.6c0,0.4,0,0.7,0,0.8c0,0.1,0,0.2,0.1,0.3
				h-0.4C272.7,70.7,272.7,70.6,272.7,70.5z M272.7,69.4c-0.1,0.1-0.4,0.1-0.6,0.2c-0.2,0-0.3,0.1-0.3,0.1s-0.1,0.1-0.2,0.2
				c0,0.1-0.1,0.1-0.1,0.2c0,0.1,0,0.2,0.1,0.3c0.1,0.1,0.2,0.1,0.3,0.1c0.1,0,0.3,0,0.4-0.1c0.1-0.1,0.2-0.2,0.3-0.3
				c0.1-0.1,0.1-0.3,0.1-0.5V69.4z"/>
			<path class="st62" d="M273.7,70.8v-3.9h0.4v3.9H273.7z"/>
			<path class="st62" d="M275.9,71.9V68h0.4v0.4c0.1-0.2,0.2-0.3,0.3-0.3c0.1-0.1,0.2-0.1,0.4-0.1c0.2,0,0.3,0.1,0.5,0.2
				c0.1,0.1,0.3,0.3,0.4,0.5c0.1,0.2,0.1,0.5,0.1,0.8c0,0.5-0.1,0.8-0.3,1.1c-0.2,0.3-0.4,0.4-0.7,0.4c-0.1,0-0.2,0-0.3-0.1
				c-0.1-0.1-0.2-0.1-0.3-0.3v1.4H275.9z M276.2,69.4c0,0.4,0.1,0.6,0.2,0.8c0.1,0.2,0.3,0.3,0.4,0.3c0.2,0,0.3-0.1,0.4-0.3
				c0.1-0.2,0.2-0.5,0.2-0.8c0-0.4-0.1-0.6-0.2-0.8c-0.1-0.2-0.3-0.3-0.4-0.3c-0.2,0-0.3,0.1-0.4,0.3S276.2,69.1,276.2,69.4z"/>
			<path class="st62" d="M278.4,70.8V68h0.4v0.4c0.1-0.2,0.2-0.3,0.2-0.4c0.1-0.1,0.2-0.1,0.3-0.1c0.1,0,0.3,0.1,0.4,0.2l-0.1,0.4
				c-0.1-0.1-0.2-0.1-0.3-0.1c-0.1,0-0.2,0-0.2,0.1c-0.1,0.1-0.1,0.1-0.1,0.2c0,0.2-0.1,0.4-0.1,0.6v1.5H278.4z"/>
			<path class="st62" d="M279.8,67.5v-0.5h0.4v0.5H279.8z M279.8,70.8V68h0.4v2.8H279.8z"/>
			<path class="st62" d="M280.8,70.8V68h0.4v0.4c0.1-0.2,0.2-0.3,0.3-0.3c0.1-0.1,0.3-0.1,0.4-0.1c0.1,0,0.2,0,0.3,0.1
				c0.1,0,0.2,0.1,0.3,0.2c0.1,0.1,0.1,0.2,0.1,0.3c0,0.1,0,0.3,0,0.6v1.7h-0.4v-1.7c0-0.2,0-0.4-0.1-0.5c0-0.1-0.1-0.2-0.2-0.2
				c-0.1-0.1-0.2-0.1-0.3-0.1c-0.2,0-0.3,0.1-0.4,0.2c-0.1,0.1-0.2,0.4-0.2,0.7v1.5H280.8z"/>
			<path class="st62" d="M284.2,70.4l0.1,0.4c-0.1,0-0.2,0-0.3,0c-0.1,0-0.2,0-0.3-0.1c-0.1-0.1-0.1-0.1-0.2-0.2c0-0.1,0-0.3,0-0.6
				v-1.6h-0.3V68h0.3v-0.7l0.4-0.3v1h0.4v0.4h-0.4V70c0,0.2,0,0.2,0,0.3c0,0.1,0.1,0.1,0.2,0.1C284,70.4,284.1,70.4,284.2,70.4z"/>
			<path class="st62" d="M286.1,69.9l0.4,0.1c-0.1,0.3-0.2,0.5-0.4,0.7c-0.2,0.2-0.4,0.2-0.7,0.2c-0.3,0-0.6-0.1-0.8-0.4
				c-0.2-0.2-0.3-0.6-0.3-1.1c0-0.5,0.1-0.9,0.3-1.1c0.2-0.3,0.5-0.4,0.8-0.4c0.3,0,0.5,0.1,0.7,0.4c0.2,0.3,0.3,0.6,0.3,1.1l0,0.1
				h-1.7c0,0.3,0.1,0.6,0.2,0.7c0.1,0.2,0.3,0.2,0.5,0.2C285.8,70.5,286,70.3,286.1,69.9z M284.8,69.1h1.3c0-0.2-0.1-0.4-0.2-0.5
				c-0.1-0.2-0.3-0.3-0.5-0.3c-0.2,0-0.3,0.1-0.4,0.2C284.9,68.7,284.8,68.9,284.8,69.1z"/>
			<path class="st62" d="M287,70.8V68h0.4v0.4c0.1-0.2,0.2-0.3,0.2-0.4c0.1-0.1,0.2-0.1,0.3-0.1c0.1,0,0.3,0.1,0.4,0.2l-0.1,0.4
				c-0.1-0.1-0.2-0.1-0.3-0.1c-0.1,0-0.2,0-0.2,0.1c-0.1,0.1-0.1,0.1-0.1,0.2c0,0.2-0.1,0.4-0.1,0.6v1.5H287z"/>
		</g>
	</g>
	<g>
		<g>
			<path class="st62" d="M274.3,62.6c0,0,0-0.1,0-0.1c0,0,0,0,0-0.1"/>
		</g>
	</g>
	<g>
		<g>
			<path class="st62" d="M274.1,63.3C274.1,63.3,274.1,63.2,274.1,63.3c0.1-0.1,0.1-0.2,0.1-0.2"/>
		</g>
	</g>
</g>
<g>
	<g>
		<path class="st63" d="M273.4,18.2c-1.3,0.7-2.4,1.5-3.2,2.7c-0.4,0.7-0.9,0.9-1.7,0.8c-1-0.1-2-0.1-3,0.1
			c-1.8,0.2-3.1,1.8-3.1,3.6c-0.1,1.7,0.5,3.1,2.2,3.8c0.4,0.2,1,0.3,1.5,0.3c1.1,0,2.1,0,3.2,0c0.2,0,0.4,0.1,0.5,0.2
			c0.9,1.4,2.1,2.5,3.6,3.1c0,0,0.1,0.1,0.2,0.1c-0.6,0-1,0-1.5,0c-1.9,0-3.8,0-5.7,0c-3.2-0.1-5.6-1.4-7.1-4.3c0,0-0.1-0.1-0.1-0.1
			c-0.1,0.1-0.1,0.1-0.1,0.2c-1.1,2.8-3.3,4.3-6.3,4.4c-2.2,0.1-4.2-0.4-5.8-1.9c-1.9-1.7-2.4-3.9-2.3-6.4c0.2-2,0.9-3.7,2.4-5
			c1.8-1.5,3.9-2,6.2-1.8c2.3,0.2,4,1.3,5.2,3.4c0,0.1,0.1,0.2,0.1,0.2c0,0.1,0.1,0.1,0.1,0.3c-1.1,0.5-2.3,1-3.4,1.4
			c-0.4-0.5-0.7-1.1-1.1-1.4c-1.3-1.1-3.3-1-4.5,0.3c-1.7,1.8-1.7,5.1,0,6.9c1.1,1.1,2.9,1.4,4.3,0.6c0.7-0.4,1.1-1.1,1.2-2
			c-1.2,0-2.4,0-3.7,0c0.6-1,1.1-1.8,1.6-2.7c0.1-0.1,0.3-0.2,0.5-0.2c1.5,0,3,0,4.5,0c0.3,0,0.5-0.1,0.5-0.4
			c0.7-3.8,3.6-6.3,7.5-6.3C268.6,18.2,271,18.2,273.4,18.2z"/>
		<g>
			<g>
				<path class="st63" d="M291.8,30.7v-1.2h-2.5v1.2h-1.2v-1.2h-2.7c-2.6,0-5.2,0-7.8,0c-2.1,0-3.6-1.4-3.8-3.5
					c-0.2-2.1,1.1-3.9,3.1-4.2c0.9-0.1,1.9-0.1,2.8-0.1c0.9,0,1.8,0,2.8,0v-3.5c-2,0-3.9-0.1-5.8,0c-3.6,0.3-6.4,3.3-6.7,6.9
					c-0.3,5.2,3.8,7.8,7.3,7.9c1.1,0,2.2,0,3.2,0l4,0v-1.2h1.2v1.2l0.3,0l5.9,0v-1.2h-1.2v-1.2H291.8z M288.1,31.9h-1.2v-1.2h1.2
					V31.9z"/>
				<rect x="291.8" y="30.7" class="st63" width="1.2" height="1.2"/>
				<rect x="293" y="29.5" class="st63" width="1.2" height="1.2"/>
				<rect x="293" y="31.9" class="st63" width="1.2" height="1.2"/>
				<rect x="294.2" y="30.7" class="st63" width="1.2" height="1.2"/>
				<rect x="296.6" y="30.7" class="st63" width="1.2" height="1.2"/>
				<rect x="295.4" y="29.5" class="st63" width="1.2" height="1.2"/>
				<rect x="295.4" y="31.9" class="st63" width="1.2" height="1.2"/>
			</g>
		</g>
	</g>
	<g>
		<g>
			<path class="st63" d="M275.3,33.6h1.3l-1.1,4.3h3l-0.4,0.9H274L275.3,33.6z"/>
			<path class="st63" d="M282.5,37.9c-0.1,0.4-0.2,0.8-0.2,1h-1.2c0-0.1,0-0.3,0.1-0.4c-0.2,0.2-0.5,0.5-1.4,0.5
				c-0.9,0-1.3-0.5-1.3-1c0-1.1,1.1-1.4,2.1-1.5c0.4,0,0.7,0,1,0l0-0.2c0.1-0.3,0.1-0.7-0.6-0.7c-0.6,0-0.7,0.3-0.8,0.5h-1.2
				c0.2-0.6,0.7-1.2,2.1-1.2c1.1,0,2,0.4,1.7,1.4L282.5,37.9z M281.5,37.1c-0.3,0-0.6,0-0.8,0c-0.7,0.1-0.9,0.3-0.9,0.6
				c0,0.2,0.2,0.4,0.6,0.4C281.1,38.1,281.4,37.5,281.5,37.1L281.5,37.1z"/>
			<path class="st63" d="M284.2,37.6c0,0.3,0.3,0.5,0.8,0.5c0.5,0,0.7-0.2,0.7-0.4c0-0.3-0.2-0.4-0.8-0.5c-1.1-0.3-1.4-0.6-1.4-1.1
				c0-0.7,0.7-1.2,1.9-1.2c1.3,0,1.9,0.6,1.8,1.2h-1.2c0-0.2-0.1-0.4-0.7-0.4c-0.3,0-0.6,0.1-0.6,0.4c0,0.2,0.2,0.3,0.8,0.4
				c1.1,0.3,1.5,0.6,1.5,1.2c0,0.9-1,1.3-2.1,1.3c-1.2,0-1.9-0.5-1.9-1.3H284.2z"/>
			<path class="st63" d="M288.4,37.1c0,0.1,0,0.1,0,0.2c0,0.4,0.2,0.8,0.7,0.8c0.5,0,0.7-0.2,0.9-0.5h1.3c-0.3,0.6-0.8,1.3-2.2,1.3
				c-1.2,0-1.8-0.7-1.8-1.6c0-1,0.7-2.5,2.5-2.5c1.4,0,1.8,0.7,1.8,1.5c0,0.3,0,0.5-0.1,0.8H288.4z M290.3,36.4c0-0.1,0-0.1,0-0.2
				c0-0.3-0.2-0.6-0.7-0.6c-0.6,0-0.9,0.3-1.1,0.8H290.3z"/>
			<path class="st63" d="M292.1,36.1c0.1-0.4,0.2-0.8,0.3-1.2h1.2c0,0.1-0.1,0.4-0.1,0.7c0.3-0.5,0.7-0.8,1.5-0.8l-0.2,1
				c-0.8,0-1.4,0.4-1.7,1.3l-0.4,1.7h-1.2L292.1,36.1z"/>
			<path class="st63" d="M295.8,33.6h2.1c1.3,0,2,0.6,2,1.5c0,1.2-1.1,1.8-2.5,1.8h-1.2l-0.5,2h-1.2L295.8,33.6z M296.4,36h0.9
				c0.8,0,1.3-0.3,1.3-0.9c0-0.5-0.3-0.7-1-0.7h-0.9L296.4,36z"/>
			<path class="st63" d="M300.3,36.1c0.1-0.4,0.2-0.8,0.3-1.2h1.2c0,0.1-0.1,0.4-0.1,0.7c0.3-0.5,0.7-0.8,1.5-0.8l-0.2,1
				c-0.8,0-1.4,0.4-1.7,1.3l-0.4,1.7h-1.2L300.3,36.1z"/>
			<path class="st63" d="M307.2,36.5c0,0.9-0.6,2.4-2.6,2.4c-1.3,0-1.9-0.7-1.9-1.6c0-1.1,0.8-2.5,2.6-2.5
				C306.4,34.8,307.2,35.4,307.2,36.5z M304,37.3c0,0.5,0.3,0.8,0.7,0.8c0.9,0,1.2-1,1.2-1.7c0-0.5-0.2-0.8-0.8-0.8
				C304.4,35.6,304,36.7,304,37.3z"/>
		</g>
	</g>
</g>
<g>
	<path class="st28" d="M22.4,21.5H15c-2,0.4-3,3.9-1.7,6.4l4.3,0c0.5,0.5,0.1,2.5-0.5,2.7l-4.7,0l-0.9,1.4H19c2.6,0,3.5-6.7,1.4-6.8
		l-4,0l0.5-2.6l4.6,0L22.4,21.5z"/>
	<path class="st28" d="M26.9,22.5l1.9,0l-1.4,8.3l-2.3,0.1L26.9,22.5z M24.8,21.4h6.4c2,1.3-0.4,10.1-1.8,10.4h-6.5
		C21.3,31,22.5,23,24.8,21.4z"/>
	<path class="st28" d="M33.6,21.5H38l-2.4,9.2l4.7,0l-0.9,1.2h-7.1l2-9.1c0-0.4-0.3-0.6-0.8-0.7L33.6,21.5z"/>
	<path class="st28" d="M42.2,21.4H51l-0.3,1.2l-4.4,0l-0.8,3.4l4.4,0l-0.9,1.1l-3.7,0l-0.7,3.4l4.4,0L48,31.9h-7.3l2.1-9.1
		c0.1-0.4-0.2-0.5-0.6-0.6L42.2,21.4z"/>
	<polygon class="st64" points="52,21.5 61.6,21.5 61.6,22.5 58.9,22.6 56.7,31.9 53.2,31.9 55.3,22.6 52.4,22.6 	"/>
	<path class="st64" d="M62.5,21.5l8.7,0l-0.1,1.1l-4.4,0l-0.8,3.5l4.4,0l-0.9,1.1l-3.7,0L65,30.6l4.3,0l-1,1.3l-7.4,0l2.2-9.2
		c0-0.3-0.3-0.4-0.6-0.4L62.5,21.5z"/>
	<polygon class="st64" points="71.8,21.4 75.6,21.4 76.7,24.4 79.3,21.5 81.6,21.5 77.3,26.1 79.2,31.8 75.3,31.9 74.5,29 
		71.7,31.9 69.5,31.9 73.9,27.3 	"/>
	<path class="st22" d="M85.7,20.3c0,0,0-0.1,0-0.1c0,0,0-0.1-0.1-0.1c0,0-0.1,0-0.1-0.1c-0.1,0-0.1,0-0.2,0H85v0.6h0.2
		c0.2,0,0.3,0,0.3-0.1C85.6,20.5,85.7,20.4,85.7,20.3z M86.3,21.7C86.3,21.7,86.3,21.8,86.3,21.7C86.3,21.8,86.3,21.8,86.3,21.7
		c-0.1,0.1-0.1,0.1-0.1,0.1c0,0-0.1,0-0.2,0c-0.1,0-0.1,0-0.1,0c0,0-0.1,0-0.1,0c0,0,0,0-0.1,0c0,0,0,0,0-0.1l-0.1-0.4
		c0-0.1-0.1-0.2-0.2-0.3c-0.1,0-0.1-0.1-0.3-0.1H85v0.7c0,0,0,0.1,0,0.1c0,0-0.1,0-0.2,0c-0.1,0-0.2,0-0.2,0c0,0-0.1,0-0.1-0.1v-1.9
		c0-0.1,0-0.1,0.1-0.2c0,0,0.1-0.1,0.2-0.1h0.6c0.1,0,0.3,0,0.4,0c0.1,0,0.2,0.1,0.3,0.1c0.1,0.1,0.1,0.1,0.2,0.2
		c0,0.1,0.1,0.2,0.1,0.3c0,0.2,0,0.3-0.1,0.4c-0.1,0.1-0.2,0.2-0.4,0.2c0.1,0,0.2,0.1,0.2,0.1c0.1,0.1,0.1,0.2,0.2,0.3l0.1,0.3
		C86.3,21.7,86.3,21.7,86.3,21.7z M87,20.8c0-0.2,0-0.5-0.1-0.7c-0.1-0.2-0.2-0.4-0.3-0.5c-0.1-0.1-0.3-0.3-0.5-0.3
		c-0.2-0.1-0.4-0.1-0.6-0.1c-0.2,0-0.5,0-0.7,0.1c-0.2,0.1-0.4,0.2-0.5,0.3c-0.1,0.1-0.3,0.3-0.3,0.5c-0.1,0.2-0.1,0.4-0.1,0.6
		c0,0.2,0,0.5,0.1,0.7c0.1,0.2,0.2,0.4,0.3,0.5c0.1,0.1,0.3,0.3,0.5,0.3c0.2,0.1,0.4,0.1,0.6,0.1c0.2,0,0.5,0,0.7-0.1
		c0.2-0.1,0.4-0.2,0.5-0.3c0.1-0.1,0.3-0.3,0.3-0.5C86.9,21.2,87,21,87,20.8z M87.5,20.8c0,0.3-0.1,0.5-0.2,0.8
		c-0.1,0.2-0.3,0.5-0.5,0.6c-0.2,0.2-0.4,0.3-0.7,0.4c-0.3,0.1-0.5,0.2-0.8,0.2c-0.3,0-0.6-0.1-0.8-0.2c-0.3-0.1-0.5-0.2-0.7-0.4
		c-0.2-0.2-0.3-0.4-0.4-0.6c-0.1-0.2-0.2-0.5-0.2-0.8c0-0.3,0.1-0.5,0.2-0.8c0.1-0.2,0.3-0.5,0.5-0.6c0.2-0.2,0.4-0.3,0.7-0.4
		c0.3-0.1,0.5-0.2,0.8-0.2c0.3,0,0.6,0,0.8,0.2c0.3,0.1,0.5,0.2,0.7,0.4c0.2,0.2,0.3,0.4,0.4,0.6C87.4,20.2,87.5,20.5,87.5,20.8z"/>
	<path class="st22" d="M73.2,35.8l0.5,0c0,0.2,0.1,0.3,0.2,0.4c0.1,0.1,0.2,0.1,0.4,0.1c0.2,0,0.3,0,0.4-0.1
		c0.1-0.1,0.1-0.1,0.1-0.2c0-0.1,0-0.1-0.1-0.2c0,0-0.1-0.1-0.2-0.1c-0.1,0-0.2-0.1-0.4-0.1c-0.3-0.1-0.5-0.2-0.6-0.2
		c-0.2-0.1-0.2-0.3-0.2-0.5c0-0.1,0-0.2,0.1-0.4c0.1-0.1,0.2-0.2,0.3-0.3c0.1-0.1,0.3-0.1,0.5-0.1c0.3,0,0.6,0.1,0.7,0.2
		c0.2,0.1,0.2,0.3,0.3,0.6l-0.5,0c0-0.1-0.1-0.2-0.1-0.3c-0.1-0.1-0.2-0.1-0.3-0.1c-0.2,0-0.3,0-0.4,0.1c-0.1,0-0.1,0.1-0.1,0.2
		c0,0.1,0,0.1,0.1,0.2c0.1,0.1,0.2,0.1,0.5,0.2c0.3,0.1,0.4,0.1,0.6,0.2c0.1,0.1,0.2,0.1,0.3,0.3c0.1,0.1,0.1,0.2,0.1,0.4
		c0,0.1,0,0.3-0.1,0.4c-0.1,0.1-0.2,0.2-0.4,0.3c-0.1,0.1-0.3,0.1-0.6,0.1c-0.3,0-0.6-0.1-0.7-0.2C73.3,36.3,73.2,36.1,73.2,35.8z
		 M70.9,36.6v-2.5h1.9v0.4h-1.4v0.6h1.3v0.4h-1.3v0.7h1.4v0.4H70.9z M68.7,36.6v-2.5h0.5v2.1h1.3v0.4H68.7z M67.7,34.1h0.5v2.5h-0.5
		V34.1z M66.1,36.6v-2.1h-0.8v-0.4h2v0.4h-0.8v2.1H66.1z M62.9,36.6l0.9-1.3l-0.8-1.2h0.6l0.5,0.7l0.5-0.7h0.6l-0.8,1.2l0.9,1.3
		h-0.6l-0.6-0.9l-0.6,0.9H62.9z M60.7,36.6v-2.5h1.9v0.4h-1.4v0.6h1.3v0.4h-1.3v0.7h1.4v0.4H60.7z M59.1,36.6v-2.1h-0.8v-0.4h2v0.4
		h-0.8v2.1H59.1z M55.9,35.7v-0.4H57v1c-0.1,0.1-0.3,0.2-0.5,0.3c-0.2,0.1-0.4,0.1-0.6,0.1c-0.3,0-0.5-0.1-0.7-0.2
		c-0.2-0.1-0.4-0.3-0.5-0.5c-0.1-0.2-0.2-0.4-0.2-0.7c0-0.3,0.1-0.5,0.2-0.7c0.1-0.2,0.3-0.4,0.5-0.5c0.2-0.1,0.4-0.1,0.6-0.1
		c0.3,0,0.6,0.1,0.8,0.2c0.2,0.1,0.3,0.3,0.3,0.5l-0.5,0.1c0-0.1-0.1-0.2-0.2-0.3c-0.1-0.1-0.2-0.1-0.4-0.1c-0.2,0-0.4,0.1-0.5,0.2
		c-0.1,0.1-0.2,0.4-0.2,0.6c0,0.3,0.1,0.5,0.2,0.7c0.1,0.2,0.3,0.2,0.5,0.2c0.1,0,0.2,0,0.3-0.1c0.1,0,0.2-0.1,0.3-0.2v-0.3H55.9z
		 M52.1,36.6v-2.5h0.5l1.1,1.7v-1.7h0.5v2.5h-0.5l-1-1.7v1.7H52.1z M51.1,34.1h0.5v2.5h-0.5V34.1z M49.5,36.6v-2.1h-0.8v-0.4h2v0.4
		H50v2.1H49.5z M46.3,36.6v-2.5h0.5l1.1,1.7v-1.7h0.5v2.5h-0.5l-1-1.7v1.7H46.3z M45.3,34.1h0.5v2.5h-0.5V34.1z M43.2,35.1h0.4
		c0.2,0,0.4,0,0.5,0c0.1,0,0.1-0.1,0.1-0.1c0-0.1,0.1-0.1,0.1-0.2c0-0.1,0-0.2-0.1-0.2c0,0-0.1-0.1-0.2-0.1c0,0-0.2,0-0.4,0h-0.4
		V35.1z M42.7,36.6v-2.5h1.1c0.3,0,0.5,0,0.6,0.1c0.1,0,0.2,0.1,0.3,0.2c0.1,0.1,0.1,0.2,0.1,0.4c0,0.2-0.1,0.3-0.2,0.5
		c-0.1,0.1-0.3,0.2-0.5,0.2c0.1,0.1,0.2,0.1,0.3,0.2c0.1,0.1,0.2,0.2,0.3,0.4l0.3,0.5h-0.6L44,36c-0.1-0.2-0.2-0.3-0.3-0.4
		c-0.1-0.1-0.1-0.1-0.2-0.1c-0.1,0-0.1,0-0.3,0h-0.1v1.1H42.7z M40.8,34.5v0.7h0.3c0.2,0,0.3,0,0.4,0c0.1,0,0.1-0.1,0.2-0.1
		c0-0.1,0.1-0.1,0.1-0.2c0-0.1,0-0.2-0.1-0.2c-0.1-0.1-0.1-0.1-0.2-0.1c-0.1,0-0.2,0-0.4,0H40.8z M40.3,36.6v-2.5h0.8
		c0.3,0,0.5,0,0.6,0c0.1,0,0.3,0.1,0.4,0.2c0.1,0.1,0.1,0.3,0.1,0.5c0,0.2,0,0.3-0.1,0.4c-0.1,0.1-0.1,0.2-0.2,0.2
		c-0.1,0.1-0.2,0.1-0.3,0.1c-0.1,0-0.3,0-0.5,0h-0.3v0.9H40.3z M37.1,36.6v-2.5h0.5v2.1h1.3v0.4H37.1z M35.9,35.6l-0.4-0.9l-0.3,0.9
		H35.9z M36.8,36.6h-0.6L36,36h-1l-0.2,0.6h-0.6l1-2.5h0.6L36.8,36.6z M32.9,36.6v-2.1h-0.8v-0.4h2v0.4h-0.8v2.1H32.9z M31.3,34.1
		h0.5v2.5h-0.5V34.1z M29.7,35.7v-0.4h1.1v1c-0.1,0.1-0.3,0.2-0.5,0.3c-0.2,0.1-0.4,0.1-0.6,0.1c-0.3,0-0.5-0.1-0.7-0.2
		c-0.2-0.1-0.3-0.3-0.5-0.5c-0.1-0.2-0.2-0.4-0.2-0.7c0-0.3,0.1-0.5,0.2-0.7c0.1-0.2,0.3-0.4,0.5-0.5c0.2-0.1,0.4-0.1,0.6-0.1
		c0.3,0,0.6,0.1,0.8,0.2c0.2,0.1,0.3,0.3,0.3,0.5l-0.5,0.1c0-0.1-0.1-0.2-0.2-0.3c-0.1-0.1-0.2-0.1-0.4-0.1c-0.2,0-0.4,0.1-0.5,0.2
		c-0.1,0.1-0.2,0.4-0.2,0.6c0,0.3,0.1,0.5,0.2,0.7c0.1,0.2,0.3,0.2,0.5,0.2c0.1,0,0.2,0,0.3-0.1c0.1,0,0.2-0.1,0.3-0.2v-0.3H29.7z
		 M27.5,34.1H28v2.5h-0.5V34.1z M25.4,34.5v1.7h0.4c0.1,0,0.2,0,0.3,0c0.1,0,0.2-0.1,0.2-0.1c0.1,0,0.1-0.1,0.1-0.2
		c0-0.1,0.1-0.3,0.1-0.5c0-0.2,0-0.3-0.1-0.4c0-0.1-0.1-0.2-0.1-0.2c-0.1-0.1-0.1-0.1-0.2-0.1c-0.1,0-0.2,0-0.4,0H25.4z M24.9,34.1
		h1c0.2,0,0.4,0,0.5,0c0.2,0,0.3,0.1,0.4,0.2c0.1,0.1,0.2,0.2,0.2,0.4c0.1,0.2,0.1,0.4,0.1,0.6c0,0.2,0,0.4-0.1,0.5
		c-0.1,0.2-0.2,0.3-0.3,0.4c-0.1,0.1-0.2,0.2-0.4,0.2c-0.1,0-0.3,0.1-0.5,0.1h-1V34.1z"/>
</g>
</svg>
