<?xml version="1.0" encoding="utf-8"?>
<!-- Generator: Adobe Illustrator 24.3.0, SVG Export Plug-In . SVG Version: 6.00 Build 0)  -->
<svg version="1.1" id="Layer_1" xmlns="http://www.w3.org/2000/svg" xmlns:xlink="http://www.w3.org/1999/xlink" x="0px" y="0px"
	 viewBox="0 0 24.1 23.4" style="enable-background:new 0 0 24.1 23.4;" xml:space="preserve">
<style type="text/css">
	.st0{fill:url(#SVGID_1_);}
	.st1{fill:url(#SVGID_2_);}
	.st2{fill:url(#SVGID_3_);}
	.st3{fill:url(#SVGID_4_);}
	.st4{clip-path:url(#SVGID_6_);}
	.st5{fill:#ED6524;}
	.st6{fill:#A7A9AC;}
	.st7{fill:#D1D3D4;}
	.st8{fill:#FFFFFF;}
	.st9{fill:url(#SVGID_9_);}
	.st10{fill:url(#SVGID_10_);}
	.st11{fill:url(#SVGID_11_);}
	.st12{fill:none;stroke:#ED6524;stroke-miterlimit:10;}
	.st13{fill:#FF7F30;}
	.st14{fill:#898A8D;}
	.st15{fill:#E6427A;}
	.st16{fill:#0CACA8;}
	.st17{fill:none;}
	.st18{fill:#231F20;}
	.st19{fill:#ED1C24;}
	.st20{fill-rule:evenodd;clip-rule:evenodd;fill:#00AEEF;}
	.st21{fill-rule:evenodd;clip-rule:evenodd;}
	.st22{fill-rule:evenodd;clip-rule:evenodd;fill:#FFF200;}
	.st23{fill-rule:evenodd;clip-rule:evenodd;fill:#EC008C;}
	.st24{fill-rule:evenodd;clip-rule:evenodd;fill:#231F20;}
	.st25{fill-rule:evenodd;clip-rule:evenodd;fill:#CE0E2D;}
	.st26{fill:#0057A8;}
	.st27{fill:#808285;}
	.st28{fill:url(#SVGID_12_);}
	.st29{fill:url(#SVGID_13_);}
	.st30{fill:url(#SVGID_14_);}
	.st31{fill:url(#SVGID_15_);}
	.st32{fill:#00AEEF;}
	.st33{fill:#FFF200;}
	.st34{fill:#EC008C;}
	.st35{fill:url(#SVGID_16_);}
	.st36{fill:url(#SVGID_17_);}
	.st37{fill:url(#SVGID_18_);}
	.st38{fill:url(#SVGID_19_);}
	.st39{fill-rule:evenodd;clip-rule:evenodd;fill:#176DB0;}
	.st40{fill-rule:evenodd;clip-rule:evenodd;fill:#C35557;}
	.st41{fill:#176DB0;}
	.st42{clip-path:url(#SVGID_21_);fill:#2170B4;}
	.st43{clip-path:url(#SVGID_21_);fill:none;stroke:#FFFFFF;stroke-width:0.3344;stroke-miterlimit:10;}
	.st44{clip-path:url(#SVGID_21_);fill:#FFFFFF;}
	.st45{clip-path:url(#SVGID_21_);fill:none;stroke:#FFFFFF;stroke-width:4.799914e-02;stroke-miterlimit:3.864;}
	.st46{fill:url(#SVGID_22_);}
	.st47{fill:url(#SVGID_23_);}
	.st48{fill-rule:evenodd;clip-rule:evenodd;fill:url(#SVGID_24_);}
	.st49{fill-rule:evenodd;clip-rule:evenodd;fill:#ED1C24;}
	.st50{clip-path:url(#SVGID_26_);fill:#F15629;}
	.st51{clip-path:url(#SVGID_26_);fill:#FFFFFF;}
	.st52{clip-path:url(#SVGID_28_);fill:url(#SVGID_29_);}
	.st53{fill:#6D6E71;}
	.st54{clip-path:url(#SVGID_31_);}
	.st55{clip-path:url(#SVGID_33_);fill:#E6E7E8;}
	.st56{fill:#CD036F;}
	.st57{fill:#014999;}
	.st58{fill-rule:evenodd;clip-rule:evenodd;fill:#DA2128;}
	.st59{fill:#0077B7;}
</style>
<path class="st59" d="M23.2,1.9c-0.2-0.7-0.7-1.2-1.4-1.4c0,0-0.1,0-0.1-0.1H2.4c0,0.1-0.1,0.1-0.1,0.1C1.6,0.8,1.1,1.2,0.9,1.9
	c0,0,0,0.1-0.1,0.1v19.3c0.1,0,0.1,0.1,0.1,0.1c0.2,0.7,0.7,1.2,1.4,1.4c0,0,0.1,0,0.1,0.1h19.3c0-0.1,0.1-0.1,0.1-0.1
	c0.7-0.2,1.2-0.7,1.4-1.4c0,0,0-0.1,0.1-0.1V2C23.2,2,23.2,2,23.2,1.9z M7.8,14.6c0,1.7,0,3.4,0,5.1c0,0.6-0.2,0.8-0.8,0.8
	c-0.7,0-1.5,0-2.2,0c-0.5,0-0.7-0.2-0.7-0.7c0-3.4,0-6.8,0-10.3c0-0.5,0.2-0.7,0.7-0.7c0.7,0,1.5,0,2.2,0c0.5,0,0.7,0.2,0.7,0.7
	C7.8,11.2,7.8,12.9,7.8,14.6z M5.9,7.7c-1.3,0-2.4-1.1-2.4-2.4c0-1.3,1.1-2.4,2.4-2.4c1.3,0,2.4,1.1,2.4,2.4
	C8.3,6.6,7.3,7.7,5.9,7.7z M20.9,19.8c0,0.4-0.2,0.6-0.6,0.7c-0.8,0-1.7,0-2.5,0c-0.4,0-0.6-0.2-0.6-0.7c0-1.8,0-3.7,0-5.5
	c0-0.5-0.1-1-0.2-1.4c-0.5-1.4-2.4-1.4-3.1-0.5c-0.4,0.6-0.6,1.3-0.6,2c0,1.8,0,3.6,0,5.4c0,0.5-0.2,0.7-0.7,0.7c-0.8,0-1.5,0-2.3,0
	c-0.5,0-0.7-0.2-0.7-0.7c0-3.5,0-6.9,0-10.4c0-0.5,0.2-0.7,0.7-0.7c0.8,0,1.6,0,2.4,0c0.4,0,0.6,0.2,0.7,0.6c0,0.2,0,0.5,0,0.7
	c0.3-0.3,0.6-0.6,0.9-0.9c0.5-0.3,1.1-0.5,1.7-0.6c0.8-0.1,1.6-0.1,2.3,0.1c1.2,0.3,1.9,1.1,2.3,2.2c0.4,1,0.5,2,0.5,3
	C21,15.9,20.9,17.9,20.9,19.8z"/>
</svg>
