<?xml version="1.0" encoding="utf-8"?>
<!-- Generator: Adobe Illustrator 24.3.0, SVG Export Plug-In . SVG Version: 6.00 Build 0)  -->
<svg version="1.1" id="Layer_1" xmlns="http://www.w3.org/2000/svg" xmlns:xlink="http://www.w3.org/1999/xlink" x="0px" y="0px"
	 viewBox="0 0 166.9 136.3" style="enable-background:new 0 0 166.9 136.3;" xml:space="preserve">
<style type="text/css">
	.st0{fill:url(#SVGID_1_);}
	.st1{fill:url(#SVGID_2_);}
	.st2{fill:url(#SVGID_3_);}
	.st3{fill:url(#SVGID_4_);}
	.st4{fill:url(#SVGID_5_);}
	.st5{clip-path:url(#SVGID_7_);}
	.st6{fill:#ED6524;}
	.st7{fill:#E6E7E8;}
	.st8{fill:#D1D3D4;}
	.st9{fill:#A7A9AC;}
	.st10{fill:#FFFFFF;}
	.st11{fill:url(#SVGID_10_);}
	.st12{fill:url(#SVGID_11_);}
	.st13{fill:url(#SVGID_12_);}
	.st14{fill:none;stroke:#ED6524;stroke-miterlimit:10;}
	.st15{fill:#FF7F30;}
	.st16{fill:#898A8D;}
	.st17{fill:#E6427A;}
	.st18{fill:#0CACA8;}
	.st19{fill:none;}
	.st20{fill:#231F20;}
	.st21{fill:#ED1C24;}
	.st22{fill-rule:evenodd;clip-rule:evenodd;fill:#00AEEF;}
	.st23{fill-rule:evenodd;clip-rule:evenodd;}
	.st24{fill-rule:evenodd;clip-rule:evenodd;fill:#FFF200;}
	.st25{fill-rule:evenodd;clip-rule:evenodd;fill:#EC008C;}
	.st26{fill-rule:evenodd;clip-rule:evenodd;fill:#231F20;}
	.st27{fill-rule:evenodd;clip-rule:evenodd;fill:#CE0E2D;}
	.st28{fill:#0057A8;}
	.st29{fill:#808285;}
	.st30{fill:url(#SVGID_13_);}
	.st31{fill:url(#SVGID_14_);}
	.st32{fill:url(#SVGID_15_);}
	.st33{fill:url(#SVGID_16_);}
	.st34{fill:#00AEEF;}
	.st35{fill:#FFF200;}
	.st36{fill:#EC008C;}
	.st37{fill:url(#SVGID_17_);}
	.st38{fill:url(#SVGID_18_);}
	.st39{fill:url(#SVGID_19_);}
	.st40{fill:url(#SVGID_20_);}
	.st41{fill-rule:evenodd;clip-rule:evenodd;fill:#176DB0;}
	.st42{fill-rule:evenodd;clip-rule:evenodd;fill:#C35557;}
	.st43{fill:#176DB0;}
	.st44{clip-path:url(#SVGID_22_);fill:#2170B4;}
	.st45{clip-path:url(#SVGID_22_);fill:none;stroke:#FFFFFF;stroke-width:0.3344;stroke-miterlimit:10;}
	.st46{clip-path:url(#SVGID_22_);fill:#FFFFFF;}
	.st47{clip-path:url(#SVGID_22_);fill:none;stroke:#FFFFFF;stroke-width:4.799914e-02;stroke-miterlimit:3.864;}
	.st48{fill:url(#SVGID_23_);}
	.st49{fill:url(#SVGID_24_);}
	.st50{fill-rule:evenodd;clip-rule:evenodd;fill:url(#SVGID_25_);}
	.st51{fill-rule:evenodd;clip-rule:evenodd;fill:#ED1C24;}
	.st52{clip-path:url(#SVGID_27_);fill:#F15629;}
	.st53{clip-path:url(#SVGID_27_);fill:#FFFFFF;}
	.st54{clip-path:url(#SVGID_29_);fill:url(#SVGID_30_);}
	.st55{fill:#6D6E71;}
	.st56{clip-path:url(#SVGID_32_);}
	.st57{clip-path:url(#SVGID_34_);fill:#E6E7E8;}
	.st58{fill:#CD036F;}
	.st59{fill:#014999;}
	.st60{fill-rule:evenodd;clip-rule:evenodd;fill:#DA2128;}
</style>
<g>
	<defs>
		<rect id="SVGID_6_" y="-27" width="208.7" height="208.7"/>
	</defs>
	<clipPath id="SVGID_1_">
		<use xlink:href="#SVGID_6_"  style="overflow:visible;"/>
	</clipPath>
	<g style="clip-path:url(#SVGID_1_);">
		
			<image style="overflow:visible;opacity:0.45;" width="523" height="260" xlink:href="F7AE1927.png"  transform="matrix(0.48 0 0 0.48 -140.28 7.8383)">
		</image>
		<g>
			<path class="st6" d="M48,128.2H-78.2c-32.6,0-59-26.4-59-59v0c0-32.6,26.4-59,59-59H48c32.6,0,59,26.4,59,59v0
				C107.1,101.7,80.6,128.2,48,128.2z"/>
		</g>
	</g>
</g>
<g>
	
		<image style="overflow:visible;opacity:0.45;" width="235" height="235" xlink:href="F7AE1925.png"  transform="matrix(0.48 0 0 0.48 50.64 15.8783)">
	</image>
	<g>
		<circle class="st7" cx="107.1" cy="70.2" r="50"/>
	</g>
</g>
<g>
	<g>
		<defs>
			<circle id="SVGID_8_" cx="106.6" cy="70.1" r="50.1"/>
		</defs>
		<clipPath id="SVGID_2_">
			<use xlink:href="#SVGID_8_"  style="overflow:visible;"/>
		</clipPath>
	</g>
	<g>
		<path class="st9" d="M84.5,56.4h-8.9c0,0-7.7-0.6-8.2,7.7v10.1c0,0-0.2,7.9,7.8,7.9h17.5V47.9C92.7,47.9,84.5,47.3,84.5,56.4z
			 M84.5,73.5H76V65h8.5V73.5z"/>
		<path class="st9" d="M118.3,56.4H98.6c0,0-3.6,0.6-5.2,5.1V67c0,0,0.3,4.6,5.1,6.1h11.9v0.6H98.5c0,0-4.2,0.8-5.1,5.7V82h17.7
			c0,0,5.6,0.1,7.1-5.3l0.1-5.5c0,0-0.5-4.6-5.4-5.8h-11.6v-0.8h11.4c0,0,5-2,5.6-6.5V56.4z"/>
		<path class="st6" d="M93.4,68.9v8.9c0,0,0.9-2.9,4.4-4.3C97.8,73.5,94.5,72.2,93.4,68.9z"/>
		<path class="st6" d="M113.2,65c0,0,4-1.9,5.1-5.1v9.6C118.3,69.5,117.2,66.1,113.2,65z"/>
		<path class="st9" d="M137.6,56.6L119,56.4v20.1c0,0,0.9,5.2,7.4,5.5l9.4,0v8.5c0,0,7.6,0.5,8.5-6.9V63.6
			C144.2,63.6,144.3,57.5,137.6,56.6z M135.7,73.5h-8.5V65h8.5V73.5z"/>
		<path class="st6" d="M67.9,83.8c0.3,0,0.6-0.1,1-0.1c0.3,0,0.7,0,1.1,0c1.4,0,2.4,0.3,3.1,0.9c0.7,0.6,1.1,1.5,1.1,2.6
			c0,1.2-0.4,2.1-1.1,2.6c-0.7,0.6-1.8,0.8-3.3,0.8c-0.4,0-0.7,0-1,0c-0.3,0-0.6,0-0.9-0.1V83.8z M69.5,89.5c0.1,0,0.1,0,0.3,0
			c0.1,0,0.2,0,0.4,0c0.3,0,0.6,0,0.9-0.1c0.3-0.1,0.5-0.2,0.8-0.4c0.2-0.2,0.4-0.4,0.5-0.7c0.1-0.3,0.2-0.7,0.2-1.1
			c0-0.5-0.1-0.8-0.2-1.1c-0.1-0.3-0.3-0.5-0.5-0.7c-0.2-0.2-0.5-0.3-0.7-0.4c-0.3-0.1-0.6-0.1-0.9-0.1c-0.1,0-0.2,0-0.4,0
			c-0.1,0-0.3,0-0.4,0V89.5z"/>
		<path class="st6" d="M75.6,83.8c0.3,0,0.5-0.1,0.8-0.1c0.3,0,0.5,0,0.8,0.1v6.7c-0.3,0-0.5,0.1-0.8,0.1c-0.3,0-0.5,0-0.8-0.1V83.8
			z"/>
		<path class="st6" d="M83,87.1c0.3,0,0.5-0.1,0.8-0.1c0.3,0,0.5,0,0.8,0.1v3.3c-0.4,0.1-0.8,0.2-1.2,0.2c-0.4,0-0.8,0.1-1.1,0.1
			c-0.6,0-1.2-0.1-1.7-0.3c-0.5-0.2-0.9-0.4-1.2-0.7c-0.3-0.3-0.6-0.7-0.7-1.1c-0.2-0.4-0.2-0.9-0.2-1.4c0-0.5,0.1-1,0.3-1.4
			c0.2-0.4,0.4-0.8,0.7-1.1s0.7-0.6,1.2-0.7c0.5-0.2,1-0.3,1.6-0.3c0.4,0,0.7,0,1,0.1s0.6,0.1,0.9,0.2c0,0.2-0.1,0.4-0.1,0.5
			s-0.2,0.4-0.2,0.5c-0.3-0.1-0.5-0.1-0.7-0.2c-0.2,0-0.4,0-0.7,0c-0.7,0-1.2,0.2-1.6,0.6c-0.4,0.4-0.6,1-0.6,1.7
			c0,0.8,0.2,1.3,0.6,1.7c0.4,0.4,0.9,0.6,1.6,0.6c0.1,0,0.2,0,0.3,0c0.1,0,0.2,0,0.3,0V87.1z"/>
		<path class="st6" d="M86,83.8c0.3,0,0.5-0.1,0.8-0.1c0.3,0,0.5,0,0.8,0.1v6.7c-0.3,0-0.5,0.1-0.8,0.1c-0.3,0-0.5,0-0.8-0.1V83.8z"
			/>
		<path class="st6" d="M90.7,85h-2c0-0.2-0.1-0.4-0.1-0.6c0-0.2,0-0.4,0.1-0.6h5.5c0,0.2,0.1,0.4,0.1,0.6c0,0.2,0,0.4-0.1,0.6h-2
			v5.6c-0.1,0-0.3,0-0.4,0c-0.1,0-0.3,0-0.4,0s-0.3,0-0.4,0c-0.1,0-0.3,0-0.4,0V85z"/>
		<path class="st6" d="M96.4,83.8c0.2,0,0.3,0,0.4,0c0.1,0,0.3,0,0.5,0c0.1,0,0.3,0,0.4,0c0.1,0,0.3,0,0.5,0l2.5,6.8
			c-0.3,0-0.6,0.1-0.9,0.1c-0.3,0-0.5,0-0.8-0.1l-0.4-1.4H96l-0.4,1.4c-0.3,0-0.5,0.1-0.8,0.1c-0.3,0-0.5,0-0.8-0.1L96.4,83.8z
			 M98.2,88.1l-0.9-2.8l-1,2.8H98.2z"/>
		<path class="st6" d="M101.6,83.8c0.3,0,0.5-0.1,0.8-0.1c0.3,0,0.5,0,0.8,0.1v5.6h2.7c0,0.1,0,0.2,0,0.3s0,0.2,0,0.3
			c0,0.1,0,0.2,0,0.3c0,0.1,0,0.2,0,0.3h-4.3V83.8z"/>
		<path class="st6" d="M110.8,87.4c-0.2-0.1-0.5-0.2-0.7-0.3c-0.2-0.1-0.4-0.2-0.5-0.3c-0.1-0.1-0.2-0.3-0.3-0.5
			c-0.1-0.2-0.1-0.4-0.1-0.7c0-0.3,0.1-0.6,0.2-0.8c0.1-0.2,0.3-0.4,0.5-0.6c0.2-0.2,0.5-0.3,0.8-0.4c0.3-0.1,0.7-0.1,1.1-0.1
			c0.4,0,0.7,0,1,0.1c0.3,0.1,0.7,0.1,1,0.2c0,0.4-0.2,0.7-0.4,1.1c-0.1,0-0.2-0.1-0.3-0.1c-0.1,0-0.2-0.1-0.4-0.1
			c-0.1,0-0.3,0-0.4-0.1c-0.2,0-0.3,0-0.5,0c-0.1,0-0.3,0-0.4,0c-0.1,0-0.2,0.1-0.3,0.1c-0.1,0-0.2,0.1-0.3,0.2
			c-0.1,0.1-0.1,0.2-0.1,0.4c0,0.1,0,0.2,0.1,0.3c0.1,0.1,0.1,0.2,0.2,0.2c0.1,0.1,0.2,0.1,0.3,0.2c0.1,0,0.2,0.1,0.3,0.1l0.7,0.2
			c0.3,0.1,0.5,0.2,0.8,0.3c0.2,0.1,0.4,0.2,0.6,0.4c0.2,0.1,0.3,0.3,0.4,0.5c0.1,0.2,0.1,0.5,0.1,0.8c0,0.3-0.1,0.6-0.2,0.9
			c-0.1,0.3-0.3,0.5-0.6,0.7c-0.3,0.2-0.6,0.3-0.9,0.4c-0.4,0.1-0.8,0.2-1.3,0.2c-0.2,0-0.5,0-0.6,0c-0.2,0-0.4,0-0.5-0.1
			c-0.2,0-0.3-0.1-0.5-0.1s-0.3-0.1-0.5-0.2c0-0.2,0.1-0.4,0.1-0.6c0.1-0.2,0.1-0.4,0.2-0.6c0.3,0.1,0.6,0.2,0.9,0.2
			c0.3,0.1,0.6,0.1,0.9,0.1c0.5,0,0.8-0.1,1.1-0.2c0.3-0.1,0.4-0.4,0.4-0.7c0-0.2,0-0.3-0.1-0.4c-0.1-0.1-0.1-0.2-0.2-0.3
			c-0.1-0.1-0.2-0.1-0.3-0.2c-0.1,0-0.3-0.1-0.4-0.1L110.8,87.4z"/>
		<path class="st6" d="M117,85h-2c0-0.2-0.1-0.4-0.1-0.6c0-0.2,0-0.4,0.1-0.6h5.5c0,0.2,0.1,0.4,0.1,0.6c0,0.2,0,0.4-0.1,0.6h-2v5.6
			c-0.1,0-0.3,0-0.4,0c-0.1,0-0.3,0-0.4,0c-0.1,0-0.3,0-0.4,0c-0.1,0-0.3,0-0.4,0V85z"/>
		<path class="st6" d="M122.7,83.8c0.2,0,0.3,0,0.4,0c0.1,0,0.3,0,0.5,0c0.1,0,0.3,0,0.4,0c0.1,0,0.3,0,0.5,0l2.5,6.8
			c-0.3,0-0.6,0.1-0.9,0.1c-0.3,0-0.5,0-0.8-0.1l-0.4-1.4h-2.6l-0.4,1.4c-0.3,0-0.5,0.1-0.8,0.1c-0.3,0-0.5,0-0.8-0.1L122.7,83.8z
			 M124.4,88.1l-0.9-2.8l-1,2.8H124.4z"/>
		<path class="st6" d="M127.9,83.8c0.3,0,0.6-0.1,0.9-0.1c0.3,0,0.6,0,0.9,0c0.4,0,0.8,0,1.2,0.1c0.4,0.1,0.7,0.2,1.1,0.3
			c0.3,0.2,0.6,0.4,0.8,0.6c0.2,0.3,0.3,0.6,0.3,1c0,0.3,0,0.5-0.1,0.7c-0.1,0.2-0.2,0.4-0.3,0.5c-0.1,0.1-0.2,0.3-0.4,0.4
			c-0.1,0.1-0.3,0.2-0.4,0.2l-0.2,0.1l1.9,2.9c-0.1,0-0.3,0-0.5,0c-0.2,0-0.3,0-0.5,0c-0.3,0-0.6,0-0.8-0.1l-2.1-3.1l0.3-0.1
			c0.1,0,0.2-0.1,0.4-0.2c0.1-0.1,0.3-0.2,0.4-0.3c0.1-0.1,0.3-0.2,0.3-0.4c0.1-0.1,0.1-0.3,0.1-0.5c0-0.4-0.1-0.7-0.4-0.9
			c-0.3-0.2-0.6-0.3-1-0.3c-0.2,0-0.3,0-0.4,0v5.7c-0.1,0-0.3,0-0.4,0c-0.1,0-0.3,0-0.4,0c-0.1,0-0.3,0-0.4,0c-0.1,0-0.3,0-0.4,0
			V83.8z"/>
		<path class="st10" d="M138.6,67.7c-0.1,0.2-0.2,0.4-0.3,0.6l-0.5-0.3c0-0.1,0.1-0.2,0.1-0.3c0,0,0.1-0.2,0.3-0.5
			c-0.1-0.2-0.1-0.5-0.1-0.8c0-0.5,0.2-1,0.5-1.3c0.3-0.3,0.8-0.5,1.3-0.5c0.6,0,1,0.2,1.3,0.5c0.3,0.3,0.5,0.7,0.5,1.2
			c0,0.5-0.2,0.9-0.5,1.2c-0.3,0.3-0.8,0.5-1.3,0.5c-0.3,0-0.6,0-0.8-0.1C138.9,67.9,138.8,67.8,138.6,67.7 M139,67.1
			c0.1,0.1,0.2,0.2,0.4,0.2c0.2,0,0.3,0.1,0.5,0.1c0.4,0,0.7-0.1,0.9-0.3c0.2-0.2,0.3-0.4,0.3-0.7c0-0.3-0.1-0.5-0.3-0.7
			c-0.2-0.2-0.5-0.3-0.9-0.3c-0.4,0-0.7,0.1-0.9,0.3c-0.2,0.2-0.3,0.4-0.3,0.7c0,0.1,0,0.2,0.1,0.3c0.1-0.1,0.2-0.3,0.2-0.4l0.4,0.2
			C139.3,66.7,139.2,66.9,139,67.1"/>
		<path class="st10" d="M138.2,71.8V71l0.8-0.3v-1.4l-0.8-0.3v-0.7l3.5,1.4v0.7L138.2,71.8z M139.6,70.5l1.3-0.5l-1.3-0.5V70.5z"/>
		<polygon class="st10" points="138.2,72.6 141.1,72.6 141.1,71.6 141.7,71.6 141.7,74.3 141.1,74.3 141.1,73.3 138.2,73.3 		"/>
		<path class="st10" d="M138.2,77.6v-0.8l0.8-0.3v-1.4l-0.8-0.3v-0.7l3.5,1.4v0.7L138.2,77.6z M139.6,76.3l1.3-0.5l-1.3-0.5V76.3z"
			/>
		<path class="st10" d="M138.2,78h3.5v1.5c0,0.4,0,0.6-0.1,0.8c-0.1,0.2-0.2,0.3-0.3,0.4c-0.2,0.1-0.3,0.2-0.5,0.2
			c-0.3,0-0.5-0.1-0.6-0.2c-0.2-0.2-0.3-0.4-0.3-0.7c-0.1,0.2-0.2,0.3-0.3,0.4c-0.1,0.1-0.3,0.2-0.6,0.4l-0.7,0.4v-0.8l0.8-0.5
			c0.3-0.2,0.4-0.3,0.5-0.4c0.1-0.1,0.1-0.1,0.1-0.2c0-0.1,0-0.2,0-0.4v-0.1h-1.5V78z M140.2,78.7v0.5c0,0.3,0,0.5,0,0.6
			c0,0.1,0.1,0.1,0.1,0.2c0.1,0,0.2,0.1,0.3,0.1c0.1,0,0.2,0,0.3-0.1c0.1-0.1,0.1-0.2,0.1-0.3c0-0.1,0-0.2,0-0.5v-0.5H140.2z"/>
		<path class="st9" d="M95.2,53.7c-0.1,0-0.1-0.1-0.2-0.1c0,0-0.1-0.1-0.1-0.1c0,0-0.1-0.1-0.1-0.2c0-0.1,0-0.1,0-0.2
			c0-0.1,0-0.2,0-0.3c0-0.1,0.1-0.1,0.1-0.2c0.1-0.1,0.1-0.1,0.2-0.1c0.1,0,0.2,0,0.3,0c0.1,0,0.2,0,0.3,0c0.1,0,0.2,0,0.3,0.1
			c0,0.1,0,0.2-0.1,0.3c0,0-0.1,0-0.1,0c0,0-0.1,0-0.1,0c0,0-0.1,0-0.1,0c0,0-0.1,0-0.1,0c0,0-0.1,0-0.1,0s-0.1,0-0.1,0
			c0,0,0,0-0.1,0.1c0,0,0,0.1,0,0.1c0,0,0,0.1,0,0.1c0,0,0,0.1,0.1,0.1c0,0,0,0,0.1,0c0,0,0.1,0,0.1,0l0.2,0.1
			c0.1,0,0.1,0.1,0.2,0.1c0.1,0,0.1,0.1,0.1,0.1c0,0,0.1,0.1,0.1,0.2c0,0.1,0,0.1,0,0.2c0,0.1,0,0.2-0.1,0.3c0,0.1-0.1,0.2-0.1,0.2
			c-0.1,0.1-0.1,0.1-0.2,0.1c-0.1,0-0.2,0.1-0.3,0.1c-0.1,0-0.1,0-0.2,0c0,0-0.1,0-0.1,0s-0.1,0-0.1,0c0,0-0.1,0-0.1-0.1
			c0-0.1,0-0.1,0-0.2c0-0.1,0-0.1,0.1-0.2c0.1,0,0.1,0.1,0.2,0.1c0.1,0,0.1,0,0.2,0c0.1,0,0.2,0,0.3-0.1c0.1,0,0.1-0.1,0.1-0.2
			c0,0,0-0.1,0-0.1c0,0,0-0.1-0.1-0.1c0,0-0.1,0-0.1-0.1c0,0-0.1,0-0.1,0L95.2,53.7z"/>
		<path class="st9" d="M97.1,54.7c-0.1,0-0.3,0-0.4-0.1c-0.1-0.1-0.2-0.1-0.3-0.2c-0.1-0.1-0.1-0.2-0.2-0.4c0-0.1-0.1-0.3-0.1-0.4
			c0-0.2,0-0.3,0.1-0.4c0-0.1,0.1-0.3,0.2-0.4c0.1-0.1,0.2-0.2,0.3-0.2c0.1-0.1,0.2-0.1,0.4-0.1c0.1,0,0.3,0,0.4,0.1
			c0.1,0.1,0.2,0.1,0.3,0.2c0.1,0.1,0.1,0.2,0.2,0.4c0,0.1,0.1,0.3,0.1,0.4c0,0.2,0,0.3-0.1,0.4c0,0.1-0.1,0.3-0.2,0.4
			c-0.1,0.1-0.2,0.2-0.3,0.2C97.4,54.7,97.3,54.7,97.1,54.7 M97.1,54.3c0.3,0,0.4-0.2,0.4-0.7c0-0.2,0-0.4-0.1-0.6
			c-0.1-0.1-0.2-0.2-0.3-0.2c-0.3,0-0.4,0.2-0.4,0.7C96.7,54.1,96.9,54.3,97.1,54.3"/>
		<path class="st9" d="M98.3,52.5c0,0,0.1,0,0.1,0c0,0,0.1,0,0.1,0c0,0,0.1,0,0.1,0c0,0,0.1,0,0.1,0v1.1c0,0.1,0,0.2,0,0.3
			c0,0.1,0,0.2,0,0.2c0,0.1,0.1,0.1,0.1,0.1c0,0,0.1,0,0.2,0c0.1,0,0.1,0,0.2,0c0,0,0.1-0.1,0.1-0.1c0-0.1,0-0.1,0-0.2
			c0-0.1,0-0.2,0-0.3v-1.1c0,0,0.1,0,0.1,0c0,0,0.1,0,0.1,0c0,0,0.1,0,0.1,0c0,0,0.1,0,0.1,0v1.2c0,0.1,0,0.3,0,0.4
			c0,0.1-0.1,0.2-0.1,0.3c-0.1,0.1-0.1,0.2-0.2,0.2c-0.1,0-0.2,0.1-0.4,0.1c-0.1,0-0.3,0-0.4-0.1c-0.1,0-0.2-0.1-0.2-0.2
			c-0.1-0.1-0.1-0.2-0.1-0.3c0-0.1,0-0.3,0-0.4V52.5z"/>
		<path class="st9" d="M100.2,52.5c0.1,0,0.2,0,0.2,0c0.1,0,0.1,0,0.2,0c0.1,0,0.2,0,0.3,0c0.1,0,0.2,0.1,0.3,0.1
			c0.1,0.1,0.1,0.1,0.2,0.2c0,0.1,0.1,0.2,0.1,0.3c0,0.1,0,0.1,0,0.2c0,0.1,0,0.1-0.1,0.2c0,0-0.1,0.1-0.1,0.1c0,0-0.1,0.1-0.1,0.1
			l0,0l0.5,0.9c0,0-0.1,0-0.1,0c0,0-0.1,0-0.1,0c-0.1,0-0.1,0-0.2,0l-0.5-1l0.1,0c0,0,0.1,0,0.1-0.1c0,0,0.1,0,0.1-0.1
			c0,0,0.1-0.1,0.1-0.1c0,0,0-0.1,0-0.2c0-0.1,0-0.2-0.1-0.3c-0.1-0.1-0.2-0.1-0.3-0.1c0,0-0.1,0-0.1,0v1.8c0,0-0.1,0-0.1,0
			c0,0-0.1,0-0.1,0c0,0-0.1,0-0.1,0c0,0-0.1,0-0.1,0V52.5z"/>
		<path class="st9" d="M103.1,54.3c0,0.1,0,0.1,0.1,0.2c0,0.1,0,0.1,0,0.2c-0.1,0-0.2,0.1-0.3,0.1c-0.1,0-0.2,0-0.2,0
			c-0.2,0-0.3,0-0.4-0.1c-0.1-0.1-0.2-0.1-0.3-0.2c-0.1-0.1-0.1-0.2-0.2-0.4c0-0.1-0.1-0.3-0.1-0.4c0-0.2,0-0.3,0.1-0.4
			c0-0.1,0.1-0.3,0.2-0.4c0.1-0.1,0.2-0.2,0.3-0.2s0.2-0.1,0.4-0.1c0.1,0,0.2,0,0.2,0c0.1,0,0.2,0,0.2,0.1c0,0.1,0,0.1,0,0.2
			c0,0.1,0,0.1-0.1,0.2c-0.1,0-0.1,0-0.2-0.1c0,0-0.1,0-0.2,0c-0.2,0-0.3,0.1-0.4,0.2c-0.1,0.1-0.1,0.3-0.1,0.6
			c0,0.5,0.2,0.7,0.6,0.7c0.1,0,0.1,0,0.2,0C103,54.3,103,54.3,103.1,54.3"/>
		<path class="st9" d="M103.5,52.5h1.1c0,0.1,0,0.1,0,0.2c0,0.1,0,0.1,0,0.2h-0.7v0.5h0.6c0,0.1,0,0.1,0,0.2c0,0.1,0,0.1,0,0.2h-0.6
			v0.6h0.7c0,0.1,0,0.1,0,0.2c0,0.1,0,0.1,0,0.2h-1.1V52.5z"/>
		<path class="st9" d="M106.4,54.7c-0.1,0-0.3,0-0.4-0.1c-0.1-0.1-0.2-0.1-0.3-0.2c-0.1-0.1-0.1-0.2-0.2-0.4c0-0.1-0.1-0.3-0.1-0.4
			c0-0.2,0-0.3,0.1-0.4c0-0.1,0.1-0.3,0.2-0.4c0.1-0.1,0.2-0.2,0.3-0.2c0.1-0.1,0.2-0.1,0.4-0.1s0.3,0,0.4,0.1
			c0.1,0.1,0.2,0.1,0.3,0.2c0.1,0.1,0.1,0.2,0.2,0.4c0,0.1,0.1,0.3,0.1,0.4c0,0.2,0,0.3-0.1,0.4c0,0.1-0.1,0.3-0.2,0.4
			c-0.1,0.1-0.2,0.2-0.3,0.2C106.6,54.7,106.5,54.7,106.4,54.7 M106.4,54.3c0.3,0,0.4-0.2,0.4-0.7c0-0.2,0-0.4-0.1-0.6
			c-0.1-0.1-0.2-0.2-0.3-0.2c-0.3,0-0.4,0.2-0.4,0.7C105.9,54.1,106.1,54.3,106.4,54.3"/>
		<path class="st9" d="M107.5,52.5h1.1c0,0.1,0,0.1,0,0.2c0,0.1,0,0.1,0,0.2h-0.7v0.5h0.6c0,0.1,0,0.1,0,0.2c0,0.1,0,0.1,0,0.2h-0.6
			v0.9c-0.1,0-0.1,0-0.2,0c-0.1,0-0.1,0-0.2,0V52.5z"/>
		<path class="st9" d="M109.5,52.5c0.1,0,0.2,0,0.2,0c0.1,0,0.2,0,0.3,0c0.3,0,0.6,0.1,0.8,0.3c0.2,0.2,0.3,0.5,0.3,0.8
			c0,0.4-0.1,0.7-0.3,0.8c-0.2,0.2-0.5,0.3-0.8,0.3c-0.1,0-0.2,0-0.3,0c-0.1,0-0.2,0-0.2,0V52.5z M109.9,54.3
			C110,54.3,110,54.3,109.9,54.3c0.1,0,0.1,0,0.2,0c0.1,0,0.2,0,0.2,0c0.1,0,0.1-0.1,0.2-0.1c0.1-0.1,0.1-0.1,0.1-0.2
			c0-0.1,0-0.2,0-0.4c0-0.1,0-0.3,0-0.4c0-0.1-0.1-0.2-0.1-0.2c-0.1-0.1-0.1-0.1-0.2-0.1c-0.1,0-0.1,0-0.2,0c0,0-0.1,0-0.1,0
			c0,0-0.1,0-0.1,0V54.3z"/>
		<path class="st9" d="M111.4,52.5c0.1,0,0.1,0,0.2,0c0.1,0,0.1,0,0.2,0v2.2c-0.1,0-0.1,0-0.2,0c-0.1,0-0.1,0-0.2,0V52.5z"/>
		<path class="st9" d="M113.3,53.6c0.1,0,0.1,0,0.2,0c0.1,0,0.1,0,0.2,0v1.1c-0.1,0-0.2,0.1-0.3,0.1c-0.1,0-0.2,0-0.3,0
			c-0.2,0-0.3,0-0.4-0.1c-0.1-0.1-0.2-0.1-0.3-0.2c-0.1-0.1-0.1-0.2-0.2-0.4c0-0.1-0.1-0.3-0.1-0.4c0-0.2,0-0.3,0.1-0.4
			c0-0.1,0.1-0.3,0.2-0.4c0.1-0.1,0.2-0.2,0.3-0.2c0.1-0.1,0.2-0.1,0.4-0.1c0.1,0,0.2,0,0.2,0c0.1,0,0.2,0,0.2,0.1
			c0,0.1,0,0.1,0,0.2c0,0.1,0,0.1-0.1,0.2c-0.1,0-0.1,0-0.2-0.1c0,0-0.1,0-0.2,0c-0.2,0-0.3,0.1-0.4,0.2c-0.1,0.1-0.1,0.3-0.1,0.6
			c0,0.2,0,0.4,0.1,0.5c0.1,0.1,0.2,0.2,0.4,0.2c0,0,0.1,0,0.1,0c0,0,0,0,0.1,0V53.6z"/>
		<path class="st9" d="M114.1,52.5c0.1,0,0.1,0,0.2,0c0.1,0,0.1,0,0.2,0v2.2c-0.1,0-0.1,0-0.2,0c-0.1,0-0.1,0-0.2,0V52.5z"/>
		<path class="st9" d="M115.2,52.9h-0.5c0-0.1,0-0.1,0-0.2c0-0.1,0-0.1,0-0.2h1.4c0,0.1,0,0.1,0,0.2c0,0.1,0,0.1,0,0.2h-0.5v1.8
			c0,0-0.1,0-0.1,0c0,0-0.1,0-0.1,0c0,0-0.1,0-0.1,0c0,0-0.1,0-0.1,0V52.9z"/>
		<path class="st9" d="M116.7,52.5c0,0,0.1,0,0.1,0s0.1,0,0.1,0c0,0,0.1,0,0.1,0c0,0,0.1,0,0.1,0l0.6,2.2c-0.1,0-0.1,0-0.2,0
			c-0.1,0-0.1,0-0.2,0l-0.1-0.4h-0.7l-0.1,0.4c-0.1,0-0.1,0-0.2,0c-0.1,0-0.1,0-0.2,0L116.7,52.5z M117.1,53.9l-0.2-0.9l-0.2,0.9
			H117.1z"/>
		<path class="st9" d="M117.9,52.5c0.1,0,0.1,0,0.2,0c0.1,0,0.1,0,0.2,0v1.8h0.7c0,0,0,0.1,0,0.1c0,0,0,0.1,0,0.1c0,0,0,0.1,0,0.1
			c0,0,0,0.1,0,0.1h-1.1V52.5z"/>
		<path class="st9" d="M120.3,53.7c-0.1,0-0.1-0.1-0.2-0.1c0,0-0.1-0.1-0.1-0.1c0,0-0.1-0.1-0.1-0.2c0-0.1,0-0.1,0-0.2
			c0-0.1,0-0.2,0-0.3c0-0.1,0.1-0.1,0.1-0.2c0.1-0.1,0.1-0.1,0.2-0.1c0.1,0,0.2,0,0.3,0c0.1,0,0.2,0,0.3,0c0.1,0,0.2,0,0.3,0.1
			c0,0.1,0,0.2-0.1,0.3c0,0-0.1,0-0.1,0c0,0-0.1,0-0.1,0c0,0-0.1,0-0.1,0c0,0-0.1,0-0.1,0c0,0-0.1,0-0.1,0c0,0-0.1,0-0.1,0
			c0,0,0,0-0.1,0.1c0,0,0,0.1,0,0.1c0,0,0,0.1,0,0.1c0,0,0,0.1,0.1,0.1c0,0,0,0,0.1,0c0,0,0.1,0,0.1,0l0.2,0.1
			c0.1,0,0.1,0.1,0.2,0.1c0.1,0,0.1,0.1,0.1,0.1c0,0,0.1,0.1,0.1,0.2c0,0.1,0,0.1,0,0.2c0,0.1,0,0.2-0.1,0.3c0,0.1-0.1,0.2-0.1,0.2
			c-0.1,0.1-0.1,0.1-0.2,0.1c-0.1,0-0.2,0.1-0.3,0.1c-0.1,0-0.1,0-0.2,0c0,0-0.1,0-0.1,0s-0.1,0-0.1,0c0,0-0.1,0-0.1-0.1
			c0-0.1,0-0.1,0-0.2c0-0.1,0-0.1,0.1-0.2c0.1,0,0.1,0.1,0.2,0.1c0.1,0,0.1,0,0.2,0c0.1,0,0.2,0,0.3-0.1c0.1,0,0.1-0.1,0.1-0.2
			c0,0,0-0.1,0-0.1c0,0,0-0.1-0.1-0.1c0,0-0.1,0-0.1-0.1c0,0-0.1,0-0.1,0L120.3,53.7z"/>
		<path class="st9" d="M122.2,54.7c-0.1,0-0.3,0-0.4-0.1c-0.1-0.1-0.2-0.1-0.3-0.2c-0.1-0.1-0.1-0.2-0.2-0.4c0-0.1-0.1-0.3-0.1-0.4
			c0-0.2,0-0.3,0.1-0.4c0-0.1,0.1-0.3,0.2-0.4c0.1-0.1,0.2-0.2,0.3-0.2c0.1-0.1,0.2-0.1,0.4-0.1s0.3,0,0.4,0.1
			c0.1,0.1,0.2,0.1,0.3,0.2s0.1,0.2,0.2,0.4c0,0.1,0.1,0.3,0.1,0.4c0,0.2,0,0.3-0.1,0.4c0,0.1-0.1,0.3-0.2,0.4
			c-0.1,0.1-0.2,0.2-0.3,0.2C122.5,54.7,122.4,54.7,122.2,54.7 M122.2,54.3c0.3,0,0.4-0.2,0.4-0.7c0-0.2,0-0.4-0.1-0.6
			c-0.1-0.1-0.2-0.2-0.3-0.2c-0.3,0-0.4,0.2-0.4,0.7C121.8,54.1,121.9,54.3,122.2,54.3"/>
		<path class="st9" d="M123.4,52.5c0.1,0,0.1,0,0.2,0c0.1,0,0.1,0,0.2,0v1.8h0.7c0,0,0,0.1,0,0.1c0,0,0,0.1,0,0.1c0,0,0,0.1,0,0.1
			c0,0,0,0.1,0,0.1h-1.1V52.5z"/>
		<path class="st9" d="M124.7,52.5c0,0,0.1,0,0.1,0c0,0,0.1,0,0.1,0c0,0,0.1,0,0.1,0c0,0,0.1,0,0.1,0v1.1c0,0.1,0,0.2,0,0.3
			c0,0.1,0,0.2,0,0.2c0,0.1,0.1,0.1,0.1,0.1c0,0,0.1,0,0.2,0c0.1,0,0.1,0,0.2,0c0,0,0.1-0.1,0.1-0.1c0-0.1,0-0.1,0-0.2
			c0-0.1,0-0.2,0-0.3v-1.1c0,0,0.1,0,0.1,0c0,0,0.1,0,0.1,0c0,0,0.1,0,0.1,0c0,0,0.1,0,0.1,0v1.2c0,0.1,0,0.3,0,0.4
			c0,0.1-0.1,0.2-0.1,0.3c-0.1,0.1-0.1,0.2-0.2,0.2c-0.1,0-0.2,0.1-0.4,0.1c-0.1,0-0.3,0-0.4-0.1c-0.1,0-0.2-0.1-0.2-0.2
			c-0.1-0.1-0.1-0.2-0.1-0.3c0-0.1,0-0.3,0-0.4V52.5z"/>
		<path class="st9" d="M126.9,52.9h-0.5c0-0.1,0-0.1,0-0.2c0-0.1,0-0.1,0-0.2h1.4c0,0.1,0,0.1,0,0.2c0,0.1,0,0.1,0,0.2h-0.5v1.8
			c0,0-0.1,0-0.1,0c0,0-0.1,0-0.1,0c0,0-0.1,0-0.1,0c0,0-0.1,0-0.1,0V52.9z"/>
		<path class="st9" d="M128.1,52.5c0.1,0,0.1,0,0.2,0c0.1,0,0.1,0,0.2,0v2.2c-0.1,0-0.1,0-0.2,0c-0.1,0-0.1,0-0.2,0V52.5z"/>
		<path class="st9" d="M129.7,54.7c-0.1,0-0.3,0-0.4-0.1c-0.1-0.1-0.2-0.1-0.3-0.2c-0.1-0.1-0.1-0.2-0.2-0.4c0-0.1-0.1-0.3-0.1-0.4
			c0-0.2,0-0.3,0.1-0.4c0-0.1,0.1-0.3,0.2-0.4c0.1-0.1,0.2-0.2,0.3-0.2c0.1-0.1,0.2-0.1,0.4-0.1c0.1,0,0.3,0,0.4,0.1
			c0.1,0.1,0.2,0.1,0.3,0.2s0.1,0.2,0.2,0.4c0,0.1,0.1,0.3,0.1,0.4c0,0.2,0,0.3-0.1,0.4c0,0.1-0.1,0.3-0.2,0.4
			c-0.1,0.1-0.2,0.2-0.3,0.2C129.9,54.7,129.8,54.7,129.7,54.7 M129.7,54.3c0.3,0,0.4-0.2,0.4-0.7c0-0.2,0-0.4-0.1-0.6
			c-0.1-0.1-0.2-0.2-0.3-0.2c-0.3,0-0.4,0.2-0.4,0.7C129.2,54.1,129.4,54.3,129.7,54.3"/>
		<path class="st9" d="M130.8,52.5c0.1,0,0.1,0,0.2,0c0.1,0,0.1,0,0.2,0l0.8,1.4v-1.4c0.1,0,0.1,0,0.2,0c0.1,0,0.1,0,0.2,0v2.2
			c-0.1,0-0.1,0-0.2,0c-0.1,0-0.1,0-0.2,0l-0.8-1.4v1.4c-0.1,0-0.1,0-0.2,0s-0.1,0-0.2,0V52.5z"/>
		<path class="st9" d="M133,53.7c-0.1,0-0.1-0.1-0.2-0.1c0,0-0.1-0.1-0.1-0.1c0,0-0.1-0.1-0.1-0.2c0-0.1,0-0.1,0-0.2
			c0-0.1,0-0.2,0-0.3s0.1-0.1,0.1-0.2c0.1-0.1,0.1-0.1,0.2-0.1c0.1,0,0.2,0,0.3,0c0.1,0,0.2,0,0.3,0c0.1,0,0.2,0,0.3,0.1
			c0,0.1,0,0.2-0.1,0.3c0,0-0.1,0-0.1,0c0,0-0.1,0-0.1,0c0,0-0.1,0-0.1,0c0,0-0.1,0-0.1,0c0,0-0.1,0-0.1,0s-0.1,0-0.1,0
			c0,0,0,0-0.1,0.1c0,0,0,0.1,0,0.1c0,0,0,0.1,0,0.1c0,0,0,0.1,0.1,0.1c0,0,0,0,0.1,0c0,0,0.1,0,0.1,0l0.2,0.1
			c0.1,0,0.1,0.1,0.2,0.1c0.1,0,0.1,0.1,0.1,0.1c0,0,0.1,0.1,0.1,0.2c0,0.1,0,0.1,0,0.2c0,0.1,0,0.2-0.1,0.3c0,0.1-0.1,0.2-0.1,0.2
			c-0.1,0.1-0.1,0.1-0.2,0.1c-0.1,0-0.2,0.1-0.3,0.1c-0.1,0-0.1,0-0.2,0c0,0-0.1,0-0.1,0s-0.1,0-0.1,0c0,0-0.1,0-0.1-0.1
			c0-0.1,0-0.1,0-0.2c0-0.1,0-0.1,0.1-0.2c0.1,0,0.1,0.1,0.2,0.1c0.1,0,0.1,0,0.2,0c0.1,0,0.2,0,0.3-0.1c0.1,0,0.1-0.1,0.1-0.2
			c0,0,0-0.1,0-0.1c0,0,0-0.1-0.1-0.1c0,0-0.1,0-0.1-0.1c0,0-0.1,0-0.1,0L133,53.7z"/>
	</g>
</g>
</svg>
