<?xml version="1.0" encoding="utf-8"?>
<!-- Generator: Adobe Illustrator 26.0.0, SVG Export Plug-In . SVG Version: 6.00 Build 0)  -->
<svg version="1.1" id="Layer_1" xmlns="http://www.w3.org/2000/svg" xmlns:xlink="http://www.w3.org/1999/xlink" x="0px" y="0px"
	 viewBox="0 0 324.15 501.85" style="enable-background:new 0 0 324.15 501.85;" xml:space="preserve">
<style type="text/css">
	.st0{fill:#8C734B;}
	.st1{fill-rule:evenodd;clip-rule:evenodd;fill:#8C734B;}
</style>
<g>
	<path class="st0" d="M124.88,202.27c0.1-12.58,1.05-44.97,1.05-44.97s-10.36,9.51-11.67,18.8c-0.86,6.3,0.21,11.27,3.65,15.91
		C121.37,196.63,124.1,197.37,124.88,202.27"/>
	<path class="st0" d="M186.74,73.15c0,0-6.41,1.4-11.35,3.3c1.93-1.75,8.93-6.82,12.05-9.18c-22.44,9.25-50.37,20.9-63.23,37.61
		c-3.11,4.05-4.94,11.27-4.78,19.99c0.09,4.81-0.2,15.73-1.14,26.76c-4.89,11.92-19.83,31.76-65.63,47.77
		c-18.49,6.46-25.73,18.56-28.83,30.93c-3.09,12.45-3.78,33.76-3.78,33.76c1.12-2.87,3.61-5.39,7.13-7.71
		c16.36-10.72,50.9-16.3,70.5-24.93c22.54-9.93,26.88-21.97,27.16-29.27c-0.8-4.81-3.51-5.57-6.93-10.18
		c-3.45-4.64-4.51-9.61-3.65-15.91c1.3-9.29,11.67-18.8,11.67-18.8v0.05c9.19-9.1,25.8-19.86,55.8-26.77c0,0-6.22-0.66-11.23,0.03
		c5.46-3.6,10.62-7.24,10.62-7.24s-6.58,0.84-10.61,1.56c3.77-3.83,10.61-8.13,10.61-8.13s-5.65,0.54-9.92,1.66
		c3.81-4.19,10.78-9.08,10.78-9.08s-5.98,1.02-10.08,2.3c4.26-4.59,11.32-9.57,11.32-9.57s-6.1,0.32-10.64,2.07
		c3.78-4.2,11.85-9.53,11.85-9.53s-6.15,0.64-11.15,2.74c4.16-4.91,12-10.24,12-10.24s-6.86,1.12-11.3,3.13
		c4.08-4.52,12.16-10.38,12.16-10.38s-6.13,0.47-11.1,2.5C179.65,77.4,186.74,73.15,186.74,73.15"/>
	<path class="st0" d="M194.07,335.73c0.31-1.81,0.94-3.5,1.2-5.29c0.14-0.82,0.2-1.66,0.38-2.45c0.06-0.15,0.39-1.03,0.19-0.58
		c-0.57,1.05-1.04,2.12-1.57,3.16c-0.97,1.86-1.96,3.72-3,5.52c-0.34,0.55-0.65,1.1-1,1.64c-0.27,0.39-0.47,0.76-0.7,1.16
		c-0.89,1.5-1.67,3.01-2.43,4.55c-0.59,1.16-1.18,2.31-1.75,3.46c-0.99,1.99-1.95,3.92-3.22,5.73c-0.47,0.72-0.95,1.42-1.43,2.11
		l6.12,0.03c0.71-1.42,1.42-2.84,2.3-4.2c0.94-1.55,1.98-3.12,2.69-4.82c0.3-0.87,0.64-1.72,0.86-2.59c0.28-0.9,0.44-1.78,0.6-2.69
		C193.59,338.9,193.78,337.29,194.07,335.73 M275.5,354.69h7.31c0,0-10.27-17.01-13.32-22.82c-3.04-5.82-6.84-15.52-10.33-21.69
		c-3.46-6.19-8.92-13.8-10.63-17.27c-1.76-3.47-4.37-13.26-5.07-16.15c-0.66-2.84-0.96-7.45-0.96-7.88c0-0.45-0.61-6.6-1.04-8.68
		c-0.26-1.43-0.7-2.87-0.9-3.65c0.9-1.69-1.84-6.94-2.33-8.33c-0.89-2.39-1.39-4.79-1.88-7.29c-0.47-2.42-1.25-4.57-2.54-6.64
		c-1.29-2.03-2.91-4.07-3.27-6.52c-0.31-2.42,0.71-4.67,1.43-6.9c0.76-2.33,0.87-4.62,0.77-7.08c1.2-1.29,3.11-2.53,3.49-4.33
		c0.11-0.65-0.22-1.14-0.29-1.74c-0.09-0.58,0.07-0.97,0.2-1.52c0.18-1.26-0.16-2.25-0.96-3.24c-0.39-0.51-0.78-0.95-1.32-1.32
		c-0.22-0.16-1.66-0.72-1.69-0.82c-0.13-0.55-0.38-1.21-0.64-1.71c-0.33-0.63-0.83-1.39-1.28-1.8c-0.65-0.56-1.29-1.16-1.92-1.82
		c-0.25-0.32-0.42-0.51-0.55-0.74V42.94c0,0,1.37-1.34,1.94-2.44c0.27-0.49,0.4-1.08,0.47-1.58c0.18-1.06,0.04-2.2-0.27-3.25
		c-0.19-0.69-0.49-1.34-0.79-1.95c-1.3-2.48-2.6-4.91-3.8-7.4c-0.28-0.45-0.54-0.97-0.78-1.44c-0.02-0.08-0.31-0.49-0.27-0.55
		c-0.16,0.23-0.26,0.47-0.37,0.72c-0.26,0.63-0.6,1.22-0.91,1.84c-1.03,2.15-2.15,4.35-3.31,6.46c-1.15,2.07-2.05,4.87-0.85,7.14
		c0.61,1.1,1.94,2.44,1.94,2.44v150.97c-2.77,3.16-7.41,6.28-10.14,9.51c-2.91,3.36-3.62,7.37-3.7,11.67
		c-0.05,5.03,0.21,10.04-0.05,15.1c-0.27,5.29-0.9,10.58-2.33,15.68c-1.35,4.83-3.57,9.38-4.84,14.22
		c-1.03,3.88-0.99,7.91-1.39,11.87c-0.37,3.66-1.62,6.47-2.61,10.01c-0.64,2.25-1.38,4.34-2.43,6.46
		c-5.3,10.53-11.43,20.98-17.37,31.23c-2.09,3.71-4.6,7.19-6.72,10.89c-2.77,4.87-4.46,9.86-6.3,15.07
		c-0.44,1.26-2.47,9.2-4.17,9.21h7.26c2.01,0.03,2.76-6.66,3-8c1.07-6,2.82-11.66,5.94-16.97c1.77-2.94,4.51-5.14,5.1-8.7
		c1.06-6.38,4.8-12.6,8.55-17.79c2.28-3.16,5.85-5.19,8.64-7.82c1.76-1.65,6.56-7.25,4.62-9.87c-0.69-0.96-2.19-0.89-2.82-2.07
		c-1.57-3.3,2.15-8.52,4.17-10.97c0.94-1.23,2.14-2.39,2.89-3.75c0.74-1.22,1.29-2.41,1.85-3.65c0.54-1.07,0.72-2.21,1.32-3.22
		c0.67-1.17,1.59-2.18,2.53-3.12c1.96-1.93,4.18-3.58,6.42-5.22c1.68-1.25,3.7-2.79,5.82-2.86c1.89-0.05,3.4,1.2,4.45,2.6
		c0.54,0.67,1.19,1.52,1.19,2.39c0.06,1.12-1.22,0.87-2,0.69c-1.42-0.37-2.69-0.76-4.16-0.32c-0.8,0.23-1.43,0.65-2.15,1.07
		c-0.67,0.37-1.21,0.89-1.96,1.24c-0.39,0.2-0.66,0.43-0.96,0.78c-0.52,0.66-0.66,1.39,0.43,1.22c3.41-0.5,9.62-5.26,12.2-0.84
		c0.55,0.89,1.4,2.62,0.71,3.62c-0.88,1.33-2.43-0.05-3.58-0.18c-0.75-0.08-1.61,0.13-2.4,0.39c-1.03,0.39-1.91,1.12-2.98,1.52
		c-0.54,0.19-2.33,1.21-1.28,1.83c0.74,0.53,2.37,0.07,3.23-0.07c1.88-0.31,5-1.29,6.14,0.99c0.34,0.84,0.32,1.98-0.36,2.67
		c-0.77,0.74-2.04,0.65-3.04,0.77c-0.88,0.11-1.83,0.49-2.64,0.94c-0.87,0.5-2.78,1.93-1.26,1.91c0.83-0.04,2.92-0.49,3.79-0.68
		c1.06-0.22,2.45-0.69,3.34,0.19c0.48,0.56,0.94,1.8,0.26,2.36c-0.57,0.46-1.8,0.34-2.51,0.58c-5.05,1.67-9.55,3.19-13.36,7.07
		c-0.59,0.68-1.29,1.19-2,1.81c-1.1,1.07-2.32,2.3-3.24,3.49c-1.61,2.23-1.83,5.25-3.43,7.37c-1.39,1.88-3.23,3.42-4.35,5.51
		c-1.03,1.93-1.57,4.06-2.11,6.13c-0.6,2.22-1.65,4.2-2.82,6.23c-0.68,1.32-1.56,2.51-2.26,3.85c-3.61,6.78-7.3,13.49-11.1,20.21
		c-0.74,1.29-1.48,2.56-2.22,3.83c-2.54,4.34-5.22,8.61-7.9,12.85l4.23-0.02c2.89-3.49,3.38-4.61,5.7-7.97
		c2.43-3.55,3.79-7.59,5.24-11.61c2.42-6.75,5.65-13.32,9.55-19.32c1.68-2.63,3.84-5.87,6.93-7.02c2.53-0.93,4.09,0.96,4.32,3.37
		c0.3,3.68-1.35,7.39-2.9,10.59c-1.69,3.56-3.62,6.92-5.08,10.58c-1.32,3.42-2.24,7-3.46,10.44c-1.45,3.82-3.31,7.4-5.27,10.96
		l3.5-0.02c0.36-0.86,0.86-2.37,1.16-3.16c0.81-2.04,1.55-4.53,3.19-6.02c-0.28,3.39-2.05,6.07-3.33,9.2h12.78
		c0,0,1.16-4.59,2.06-6.85c0.76-2.08,1.47-4.31,2.72-6.18c-0.63,2.23-0.86,4.52-1.25,6.82c-0.31,2.1-1.69,6.21-1.69,6.21h4.47
		c0.26-2.33,0.53-4.66,1-6.98c0.39-2.03,0.82-4.12,1.58-6.05c0.38-1.02,1.42-2.36,1.53-0.53c0.13,2.46,0.05,13.54,0.05,13.54h6.99
		l0.02-11.61c1.1,0.35,2.22,0.7,2.89,1.69c0.52,0.84,0.68,1.93,0.92,2.88c0.66,2.36,0.64,4.64,0.64,7.07h5.45
		c-0.26-2.06-0.77-3.65-1.02-5.46c0.51,1.08,2.14,1.35,2.78,2.38c0.81,1.27,0.71,3.06,0.71,3.06l8.95,0.02
		c-0.52-0.93-0.99-2.73-1.97-3.33c-0.51-0.32-1.13-0.32-1.62-0.78c-1.01-0.9-1.55-2.34-2.44-3.39c-0.98-1.03-2.04-1.54-3.32-2.11
		c-2.58-1.09-4.99-2.14-7.7-2.93c-2.05-0.62-3.91-0.67-5.59-2.18c-0.96-0.87-2.22-1.88-2.98-2.98c-0.49-0.59-0.88-1.27-1.51-1.66
		c-0.3-0.14-0.3-0.19-0.69-0.26c-0.81-0.18-1.43-0.36-2.19-0.73c-0.81-0.41-1.96-0.59-2.64-1.27c-0.62-0.61-0.96-1.87-0.43-2.65
		c0.67-1.03,2.66-0.59,3.7-0.51c0.64,0,1.3,0.02,1.97,0c0.4,0,1.35,0.17,1.76-0.07c0.79-0.5-0.46-1.6-1.08-1.75
		c-2.42-0.69-6.43,2.11-7.69-1.29c-0.68-1.69,0.52-2.89,2.17-2.89c2,0.01,3.8,1.11,5.83,0.94c0.92-0.08,3.39-0.97,1.79-2.04
		c-1.33-0.9-3.42-0.57-4.9-0.47c-1.49,0.13-3.44,0.13-4.59-1.11c-1.09-1.27-0.13-2.73,1.28-3.15c1.63-0.53,3.59-0.02,5.26-0.05
		c1.81,0,3.57-0.13,5.33-0.08c-0.36-0.25-0.72-0.53-1.11-0.75c-2.38-1.28-5.48-0.12-8.05-0.36c-1.99-0.18-4.43-1.86-2.48-3.85
		c1.63-1.71,4.73-1.1,6.76-0.87c2.72,0.35,5.58,0.7,7.81,2.49c1.95,1.56,3.07,3.91,4.59,5.87c1.57,2.11,3.44,4.04,5.11,6.13
		c4.27,5.36,7.74,10.13,10.42,16.33c0.71,1.46,0.71,3.08,1.25,4.61c1.69,4.83,4.19,7.14,9.17,7.14c-0.87-0.94-1.75-1.88-2.6-2.87
		c-0.91-1.08-1.67-2.19-2.39-3.36c-2.07-5.63-2.69-12.46-2.69-12.46c1.61,4.76,10.49,18.58,10.49,18.58h4.75
		c0,0-5.91-8.97-8.48-11.98c-2.61-3-3.76-6.6-4.96-9.37c-1.24-2.78-2.95-7.37-3.91-8.3c-0.97-0.98-2.07-3.4-2.07-5.85
		c0.6-11.79-1.07-22.47-1.07-22.47c5.49,6.66,14.07,24.62,17.8,32.52C268.87,337.17,275.5,354.69,275.5,354.69 M220.39,336.33
		c0.68,0.87-0.1,1.98-1.09,1.5c-0.65-0.3-1.06-1.01-1.42-1.66c-0.1-0.22-0.22-0.43-0.31-0.62
		C218.38,335.4,219.89,335.55,220.39,336.33 M230.67,231.77c-0.05-0.13-1.84,0.03-2.05-0.03c-0.54-0.14-1.04-0.41-1.45-0.72
		c-0.42-0.25-0.77-0.61-1.15-0.87c-0.79-0.57-1.73-0.92-2.7-0.8c-0.43,0.06-0.87,0.42-1.33,0.49c-0.52,0.09-1.09-0.07-1.66-0.09
		c-0.69-0.05-1.9,0.14-2.56,0.44c-0.19,0.11-1.3,0.82-1.33,1c0.05-0.73,0-1.57,0.45-2.16c0.49-0.58,1.27-0.83,1.86-1.14
		c0.83-0.32,1.54-0.7,2.33-1.02c1.63-0.65,3.35-1.09,5.08-0.65c1.12,0.33,2.06,0.92,2.87,1.94
		C229.73,229.27,230.2,230.55,230.67,231.77 M220.72,225.19v-2.74c1.52-1.19,3.35-1.91,5.3-1.3c0.1,0.05,0.2,0.08,0.38,0.13
		c0.6,0.2,1.38,0.57,1.38,1.12v2.4c-1.84-1.06-3.77-0.96-5.71-0.25C221.91,224.63,220.72,224.95,220.72,225.19 M233.83,204.36
		c0.29-0.21,0.59-0.25,0.88,0.03c1.08,0.84-1.09,3.27-0.14,4.07c0.14,0.13,0.46,0.08,0.56,0.49c0.19,0.77-0.64,1.71-1.3,1.91
		c0.04-0.69,0.12-1.81-0.18-2.48c-0.24-0.56-0.74-1.27-0.74-1.59C232.83,206.31,233.18,204.87,233.83,204.36 M231.22,202.29
		c0.57-0.94,3.24,2.51,1.31,2.72c-0.74,0.07-1.12-0.76-1.28-1.33C231.1,202.9,231.1,202.47,231.22,202.29 M224.46,40.56
		c0.08-0.26,0.17-0.55,0.23-0.67c0.24-0.38,0.51-0.79,0.68-1.2c0.31-0.9,0.75-1.77,0.88-2.73c0.29-1.81-0.28-3.6-0.71-5.38
		c-0.28-0.88-0.48-1.84-0.8-2.74c0.11,0.22,0.23,0.39,0.4,0.6c0.9,1.41,1.78,2.97,2.53,4.49c0.81,1.58,1.45,3.45,0.9,5.23
		c-0.13,0.47-0.36,0.89-0.66,1.28c-0.57,0.86-1.51,1.27-2.39,1.59c-0.18,0.04-0.85,0.27-1.03,0.11
		C224.39,41.04,224.39,40.78,224.46,40.56 M211.26,226.99c-1.38-0.57-1.46-2.67-1.46-3.89c-0.04-3.48,0.73-6.73,2.93-9.47
		c-1.62-0.87-1.62-2.88-0.9-4.32c-0.65,0.02-1.21,0.34-1.75,0.8c-0.34,0.31-0.65,1.01-1.05,1.01c0.73-2.14,1.23-4.52,2.41-6.42
		c1.24-1.94,3.08-3.31,4.74-4.83c1.85-1.7,3.54-4.28,5.89-5.35c2.21-0.98,4.1,1.26,5.73,2.46c2.12,1.62,2.97,2.68,2.07,5.34
		c-0.91-0.96-1.99-1.61-3.34-1.9c-0.86-0.16-1.47-0.08-2.12-0.63c-0.54-0.45-0.81-1.35-0.99-2.05c-0.11,0.55,0.04,1.34-0.16,1.81
		c-0.36,0.85-1.04,0.54-1.75,0.65c-0.9,0.09-1.6,0.56-2.48,0.75c-0.81,0.19-1.66,0.21-2.43,0.58c0.66,1.1,1.77,0.54,2.72,0.31
		c1.64-0.34,3.31-0.79,4.97-0.71c1.55,0.07,6.09,1.42,4.86,3.82c1.08,0.17,1.91,1.7,2.28,2.58c0.66,1.59,0.66,3.59,0.29,5.23
		c-1.2-0.68-1.72-2.24-2.49-3.3c-0.78-1.07-1.42-2.24-1.44-3.62c-2.11,1.29-4.4,0.82-6.81,0.65c-0.56-0.02-5.09-0.41-3.92,0.76
		c1.04,1.03,4.2,0.71,5.5,0.71c1.35,0,2.99-0.14,4.27,0.36c0.61,0.25,1.01,0.61,1.3,1.21c0.08,0.14,0.5,1.81,0.25,1.82
		c1.26-0.13,1.68,1.2,2.04,2.17c0.16,0.65,0.2,2.83,0.63,3.25c-1.05-0.97-2.42-2.13-3.7-2.78c-1.48-0.69-3.53-0.39-5.1-0.84
		c-1.68-0.55-3.2-0.75-4.8-1.47c-0.83-0.34-1.72-0.5-2.56-0.82c0.17,0.85,1.09,1.53,1.56,2.26c0.42,0.82,0.83,0.74,1.9,0.82
		c2.46,0.17,5.69,0.47,7.24,2.72c1.85-1.78,4.24,1.08,4.95,2.84c0.45,1.02,0.38,2.15-0.16,3.12c-0.27,0.51-0.74,1.27-1.24,0.79
		c-0.4-0.32-0.19-1.57-0.45-2.02c-0.35-0.75-1.1-1.1-1.79-1.43c-2.58-1.15-4.4-0.64-6.93-0.02c-1.52,0.35-3.07-0.43-4.43,0.07
		c0.35,1.83,0.43,3.77-0.76,5.36C214.08,226.34,212.59,227.56,211.26,226.99 M215.62,253.53c0,0-0.03-0.01-0.09-0.01
		c-0.68-0.23,0.09-1.33-0.29-1.6C215.7,252.26,215.82,253.05,215.62,253.53 M224.6,250.06c-0.62-0.06-1.13-0.15-1.77-0.06
		c-0.51,0.06-1.5,0.54-2.03,0.53v-0.89c1.24-0.06,2.41-1.08,3.7-0.53C224.98,249.36,225.52,250.11,224.6,250.06 M212.59,326.58
		c-0.19,0.66-0.77,1.13-1.03,1.78c-0.16,0.65-0.06,1.46-0.22,1.98c-0.36,1.51-2.3,2.3-3.25,3.48c-0.98,1.23-1.83,2.67-2.57,4.09
		c0.39-2.18,0.74-4.72,1.6-6.74c0.78-1.87,2.73-2.78,3.99-4.3c0.2-0.22,0.52-0.72,0.85-0.8c0.04-0.02,0.05-0.02,0.05-0.02
		C212.38,326,212.68,326.17,212.59,326.58 M223.88,307.93c-0.22-0.58-0.22-1.07-0.74-1.43c-0.87-0.63-1.79-0.22-2.46-1.21
		c-0.45-0.64-0.5-1.61-0.47-2.35c0.07-0.63,0.45-1.12,0.59-1.63c-0.84-1.75-2.76-3.05-2.54-5.72c0.06-0.66,0.49-1.54,0-2.18
		c-0.14-0.15-1.47,0.13-1.7,0.11c-2.48-0.29-4.04-2.98-3.25-5.24c0.31-0.85,0.59-1.01,1.21-1.79c1.19-1.5,2.3-2.58,3.94-3.64
		c2.81-1.82,5.45-3.53,8.77-4.3c0.97-0.25,2.25-0.57,3.09,0.26c0.58,0.51,0.9,1.61,0.61,2.34c-0.38,0.94-1.85,0.98-2.8,1.03
		c-0.34,0.02-0.14,0.62-0.32,0.83c-0.91,0.45-1.63,1.25-2.65,1.57c-1.03,0.29-4.26-0.37-4.77,0.69c0.17,0.31,0.69,0.4,1,0.57
		c0.44,0.17,0.75,0.44,1.06,0.5c3.02,0.43,5.81-2.47,8.69-2.76c1.39-0.17,2.09,0.53,2.69,1.51c0.18,3.82-2.62,3.82-4.88,4.83
		c-1.16,0.49-2.15,1.17-3.27,1.81c-0.52,0.36-1.61,0.47-1.48,1.51c0.89,0.29,1.44-0.5,2.1-0.42c0.92-0.6,2.35-1.35,3.57-1.27
		c0.92,0.08,2.48,1.52,2.18,3.06c-0.37,1.66-2.71,2.67-4.16,3.17c-0.18,0.05-2.75,1.01-2.37,1.29c0.45,0.36,1.1,0.05,1.7,0
		c1.12-0.1,2-0.57,3.01-0.77c1.54-0.27,2.42,0.79,2.42,2.43c0,1.12-2.04,2.04-3.02,2.57c-1.25,0.74-2.63,1.29-3.77,2.26
		C225.16,306.29,224.67,307.22,223.88,307.93 M228.75,310.33c-0.01,0.42-0.57,1.31-1.12,1.34c-0.45,0.05-1.61-0.72-1.69-1.2
		c-0.03-0.32,0.21-0.65,0.51-0.9C227.34,308.9,228.86,308.86,228.75,310.33 M230.31,309.82c-0.25-1.46-1.27-2.02-3.09-1.58
		c-0.53,0.15-0.99,0.71-1.54,0.66c0,0,1.01-1.84,1.16-2.05c0.89-0.83,2.19-1.02,3.27-1.56c1.03-0.54,1.57-1.61,2.55-2.26
		c0.5-0.41,1.54-0.8,1.59-1.61c0.05-0.3-0.05-0.7,0.07-0.84c0.68,0,1.62,0.27,2.11,0.92c0.52,0.74,0.84,2.2,0.44,3.05
		c-0.43,0.87-1.55,1.52-2.35,1.93c-0.65,0.33-1.33,0.59-1.86,1.04c-0.1,0.09-0.2,0.19-0.35,0.31
		C232.14,308.01,230.32,309.88,230.31,309.82 M230.83,312.76c0-0.29,0.83-1.19,0.97-1.5c0.76-1.45,1.64-2.86,3.12-3.62
		c0.16-0.04,0.37-0.17,0.6-0.29c0.9-0.42,2.3-1.01,2.72-0.42c0.78,1.03,1.34,3.48,0,4.41c-0.54,0.37-1.19,0.59-1.75,0.94
		c-0.54,0.38-1.07,0.87-1.57,1.22c-0.67,0.52-1.47,0.94-2.26,1.32C232.2,314.29,230.83,312.68,230.83,312.76 M233.73,316.58
		c1.65-1.11,3.25-2.26,4.71-3.59c0.56,0.19,1.19,0.54,1.39,1.19c0.11,0.48,0.2,1.56,0.11,2.08c-0.11,0.91-0.66,1.54-1.41,1.99
		c-0.79,0.53-1.83,0.8-2.66,0.92C234.89,318.56,234.49,317.41,233.73,316.58 M241.25,320.94c-0.05,0.92-0.61,1.84-1.51,2.13
		c-1,0.3-1.73-0.34-2.19-1.19c-0.29-0.49-0.44-1.06-0.51-1.56c0-0.03,2.76-1.24,2.91-1.74h0.27c0.18,0,0.71,0.85,0.76,1.03
		C241.23,320.02,241.31,320.45,241.25,320.94 M238.08,293.26c-3.08-6.56-3.84-13.94-4.17-21.06c-0.1-1.96-0.04-4.07,0.55-5.93
		c0.27-0.94,1.13-1.96,1.21-2.94c0.02-0.41,0.02-0.88-0.47-1.05c-0.68-0.27-1.08,0.4-1.75-0.4c-0.48-0.62-0.75-1.71-0.86-2.45
		c-0.15-1.34,0.07-2.72-0.41-4.01c-1.08-2.74-3.61-4.45-5.67-6.38c-0.9-0.85-1.55-0.97-2.73-1.08c-1.03-0.07-1.81-0.59-2.88-0.37
		c-0.57,0.16-1,0.65-1.57,0.93c-0.5,0.25-1.12,0.49-1.42,1.09c-0.33,0.67,0.04,1.68-0.07,2.45c-0.1,0.62-0.35,1.49-1.07,1.69
		c-0.13,0.03-1.05,0.04-1.05,0.04c0.95-1.86-1.03-2.96-0.6-4.84c0.29-1.08,1.43-1.65,1.85-2.59c0.12-0.24,0.22-0.47,0.34-0.71
		c0.07-0.08,0.27-0.58,0.35-0.63c0.72-0.47,1.42-1.64,2.73-1.43c0.17,0.04,0.34,0.18,0.51,0.18c0.33,0,0.67-0.14,1.02-0.18
		c1.76-0.16,4.13,0.08,5.72,0.08c0.54,0,1.2,0,1.44-0.08c0.48-0.11,1.04-0.83,0.99-1.33c-0.11-1.16-1.2-0.42-1.72-0.23
		c-0.5,0.2-1.03,0.09-1.54,0.27c-0.47,0.15-0.95,0.32-1.38,0.32c-0.85,0-1.63-0.21-2.47-0.26c-0.98-0.07-2.09-0.1-3.09,0.16
		c-0.43,0.06-0.81,0.31-1.21,0.47c-0.39,0.22-0.9,0.43-1.26,0.72c-0.3,0.29-0.41,0.64-0.66,0.93c-0.16,0.25-0.42,0.35-0.63,0.58
		c-0.2,0.19-0.31,0.52-0.45,0.77c-0.25,0.53-0.47,1.11-0.87,1.55c-0.34-0.76-0.68-1.65-0.87-2.59c-0.33-2.32,0.51-3.29,2.01-4.1
		c0.39-0.19,0.63-0.27,0.89-0.5c0.56-0.39,0.9-1,1.42-1.47c1.08-1.05,2.79-1.3,4.28-1.14c1.7,0.16,3.37,0.43,5.09,0.27
		c1.3-0.12,3.34-0.68,2.84-2.3c-1.3,0.03-2.61,0.44-3.91,0.56c-1.44,0.15-2.92,0.2-4.47,0.07c-1.32-0.11-2.37-0.49-3.41,0
		c-0.68,0.36-1.1,1.02-1.48,1.66c-1.22,0.41-2.28,1.44-3.13,1.91c-0.07-0.94,0.33-1.79,0.78-2.57c0.36-0.68,0.98-1.14,1.41-1.75
		c0.85-1.15,1.23-3.27,2.54-3.92c1.21-0.59,2.69-0.25,3.89-0.09c1.03,0.14,1.91,0.49,2.78,0.83c0.89,0.35,1.68,0.83,2.64,0.92
		c0.62,0.06,1.22,0.22,1.81,0.25c0.62,0.05,1.18,0.08,1.71,0.4c0.88,0.55,2.23,1.75,2.15,2.89c0,0.33-0.26,0.53-0.57,0.72
		c-0.25,0.16-0.53,0.29-0.85,0.43c1.05,0.72,2.3,0.67,3,1.88c0.18,0.33,0.83,3.01,0.57,3.01c-0.86-0.06-1.33-0.97-2.24-1.07
		c0.05,0.49,0.75,0.68,1.02,1.01c0.33,0.4,0.53,0.97,0.75,1.37c0.32,0.59,0.72,1.12,0.83,1.78c0.28,1.29,0.42,2.76,0.97,3.82
		c-0.45,0.1-0.79-0.64-1.24-0.81c-0.09,0.39,0.35,0.6,0.58,0.91c0.48,0.65,0.93,1.29,1.33,2c0.34,0.65,0.53,1.35,0.63,2.1
		c0.07,0.68-0.16,1.64,0,2.27c0.13,0.4,0.49,0.69,0.94,0.78c0,0.72-0.04,1.52-0.17,2.15c-0.27,1.02-0.95,1.93-1.18,2.85
		c0.6-0.28,1.59-0.99,1.93-1.56c-0.13,0.22,0.36,1.84,0.43,2.15c0.12,0.66,0.39,1.22,0.55,1.84c0.29,1.5-0.05,3.02-0.1,4.52
		c-0.39,7.22,1.68,14.77,3.26,21.76c0.2,0.79,0.56,1.59,0.74,2.34c0.55,2.88,0.44,6.14,0.44,9.02c0,4.75,0.14,5.91,0.14,5.91
		C244.38,303.69,240.3,298.12,238.08,293.26"/>
	<path class="st1" d="M280.87,468.12c0.33,0.44,0.83,0.61,0.55,1.27c-0.11,0.33-0.55,2.32-0.61,2.32c-0.77,0.05-4.75-6.74-5.41-9.5
		c-0.17-0.61-0.39-0.83-0.66-0.17c-1.33,3.76-2.37,6.58-4.19,9.67c-1,1.83-0.61-2.6-0.5-3.09c0.05-0.5,0.27-0.89,0.66-1.55
		c0.44-0.77,2.15-4.31,3.26-8.34c0.17-1.21,0.39-2.43,0.99-3.59c0.61-0.28,0.99,0.33,1.05,1.21
		C276.01,457.29,276.66,462.7,280.87,468.12"/>
	<path class="st1" d="M260.48,455.58c0.22,0.22,2.82,4.64,3.7,6.96c0.83,2.32,1.49,7.62,0.22,9.56c-0.66,0.83-1.11,0.5-0.94-1.05
		c0.11-1.49,0-4.81-1.5-7.46c-1.38-2.6-2.54-4.37-2.76-4.7c-0.22-0.39-0.17-1,0-1.55c0.11-0.55,0.5-1.44,0.55-1.66
		C259.87,455.41,260.15,455.24,260.48,455.58"/>
	<path class="st1" d="M148.2,423.26c-0.5,0.66-1.05,0.89-1.55,0.44c-0.5-0.61-0.27-1.71,0.89-3.87c0.38-0.77,0.77-1.38,1-2.21
		c0.28-0.89,0-0.72-0.67,0.56c-0.72,1.21-1.44,2.26-2.05,3.81c-0.44,1.1-1.1,2.92,0.33,3.64c1.16,0.28,2.27-1.33,2.43-2.32
		C148.81,422.43,148.64,422.43,148.2,423.26"/>
	<path class="st1" d="M219.86,416.02c-1.21-3.31-3.7-6.02-6.52-5.97c-1.99,0.11-3.53,1.38-4.53,2.93c-1.49,2.38-2.38,6.91,0.83,8.34
		c1.05,0.5,2.38,0.61,3.7,0.56l-0.5,0.99c-1.11,2.05-1.66,3.98-1.83,5.92c-3.64,2.37-7.4,4.7-11.87,4.92
		c-4.86,0.28-8.84-2.21-8.35-9.06c0.17-2.1,0.94-5.3,2.1-7.9c0.44-1.05,0.72-1.77,0.88-2.21c0.11-0.06,0.28-0.06,0.39-0.11
		c5.8-1.21,12.6-3.2,16.52-6.24c0.33-0.38,0.66-1.05,1.05-1.88c0.83-1.6,1.05-3.37,1.16-5.47c-0.17-0.66-0.5-1.32-1.05-1.93
		c-2.09-1.88-4.53-3.37-9.06-2.49c-4.81,1.6-9.5,5.3-14.2,10c0.11-0.72,0.22-1.5,0.28-2.33c0.5-7.73-0.05-15.14-0.88-22.65
		c-0.17-1.88-0.33-3.76-0.5-5.63c0.05-0.22,0.11-0.5,0.28-0.72c0.66,0.72,1.66,2.71,2.1,2.16c0-0.05,0.05-0.11,0.11-0.23
		c0.05-0.66,0-1.38-0.66-3.14c-0.66-1.5-1.16-2.93-1.77-4.37c-0.66-1.6-1.33-3.21-1.99-4.81c-0.61,1.39-1.15,2.76-1.71,4.1
		c0.17,0.33,0.33,0.66,0.44,1.05c0.11,1.71,0.28,3.48,0.44,5.25c0.17,2.16,0.39,4.31,0.61,6.46c0.66,7.35,1.16,14.7,1.71,22.05
		c0.05,1.55,0.05,2.98,0,4.37c-1.05,1.1-2.1,2.21-3.15,3.37c-0.83-0.05-1.66-0.11-2.37-0.33c-1.05-0.22-1.77-0.61-2.6-1.11
		c-0.66-0.44-1.16-0.94-1.55-1.49c-0.33-0.5-0.66-1.05-0.89-1.6c-0.77-1.71-1.11-3.42-2.49-3.75c-2.59-0.11-5.58,2.59-7.18,5.14
		c-0.66,1.11-1.21,2.32-1.71,3.53c-1.21,3.31-1.6,6.25,0.71,7.96c2.98,2.05,12.77,0.88,13.27,2.37c-3.87,2.93-11.33,7.3-15.19,9.12
		c-6.96,3.21-12.1,3.43-17.57,1c-4.7-2.98-6.08-7.4-4.64-14.81c0.55-2.32,1.38-4.42,2.16-6.63c0.72-1.99,1.21-3.59-1.55,1.49
		c-1.88,4.7-2.88,9.11-2.66,13.2c0.22,5.8,2.71,9.84,6.96,12.16c5.86,2.6,11.82,1.11,17.85-1.83c4.31-2.37,9.78-5.41,14.64-9.5
		c1.71-1.49,2.71-4.97,1.82-7.4c-0.38-1.22-1.32-2.1-2.59-2.32c-3.21-0.38-10.72,0.05-12.49-2.7c1.55-3.38,3.87-5.2,6.53-5.92
		c1.77-0.61,2.37,1.5,2.87,3.09c0.22,0.61,0.55,1.16,0.83,1.66c0.11,0.11,0.16,0.22,0.27,0.33c0.89,1.17,2.27,1.83,3.65,2.32
		c1.88,0.61,3.97,0.61,5.96,0.44c2.38-0.16,4.81-0.61,7.18-1.1c-0.22,0.28-0.56,0.72-0.89,1.21c-1.61,2.76-2.76,6.42-3.26,9.51
		c-1.27,7.07,1.66,13.92,9.4,13.48c4.53-0.28,9.12-2.99,12.82-5.63c0.39,1.66,1.11,3.2,2.66,4.47c2.27,1.99,5.25,1.99,9.22-1.16
		c2.66-2.16,5.91-5.86,8.9-8.79c2.65-2.6,5.58-4.98,8.89-6.85c1.33-0.66,2.6-1.33,4.04-1.94c-1.21,2.37-1.99,4.53-2.43,6.57
		c-0.5,2.44-0.71,5.64,0.06,8.29c-1.05,0.61-2.15,1.22-3.26,1.77c-1.44,0.72-1.38,0.89,0.17,0.39c0.99-0.34,1.99-0.67,2.98-0.94
		c0.17-0.06,0.34-0.11,0.56-0.11c0.22,0.61,0.55,1.16,0.99,1.66c1.5,1.82,3.98,2.82,7.02,2.71c5.03-0.22,10.11-3.31,14.15-6.08
		c2.37-1.66,4.42-3.43,6.02-5.41c1.87-2.32,2.54-4.7,2.65-7.13c2.27-0.66,4.42-1.82,6.47-2.87c-0.5,2.71,1.16,5.2,3.98,5.53
		c2.05,0.22,4.48-0.72,5.86-2.1c2.43-3.32,2.37-9.56,2.27-13.54c-0.27-5.03-0.72-10.11-1.38-15.36c-0.61-5.14-1.33-10.5-1.61-15.75
		c0-0.22,0.33-0.44,0.28-0.66l0.39,0.83c1.54,2.48,2.82,5.25,4.19,7.73c6.97,12.49,10.22,25.69,4.09,39.73
		c-1.94,4.26-2.43,5.41-4.86,9.4c-2.6,3.76-2.21,3.76,1.05,0c2.98-4.37,3.7-5.91,5.8-10.61c3.32-8.73,4.76-17.24,3.09-25.42
		c-2.7-10.94-9-21.33-14.75-30.83c-0.27-0.72-0.55-1.38-0.83-2.05c-0.61,1.39-1.16,2.82-1.76,4.2c0.11,0.33,0.28,0.66,0.39,0.94
		c0.11,1.99,0.16,3.87,0.27,5.86c0.17,3.64,0.44,7.35,0.83,10.99c0.72,7.19,1.44,14.31,2.21,21.44c0.17,2.99,0.61,6.36,0.55,8.9
		c-1.11,0.66-2.15,1.16-3.2,1.44c-0.99,0.22-1.88,0.27-2.6,0.16c-1.99-0.39-2.87-2.1-2.7-3.25c0.16-0.61,0.16-0.89,0.38-1.44
		c0.44-1.33-0.6-1.27-1.21-0.94c-2.37,1.38-4.26,2.6-7.52,3.37c-1.16-3.48-3.7-6.24-6.57-6.24c-1.83,0-3.65,1.32-4.7,2.93
		c-1.6,2.37-2.54,7.02,0.72,8.56c2.32,1.11,6.02,0.56,8.34,0c0.28,0.6,0.44,1.21,0.56,1.82c-2.21,2.16-4.53,3.81-6.85,5.3
		c-4.03,2.54-8.12,5.14-13.04,5.31c-1.99,0.11-3.81-0.22-5.19-1.05c1.71-1.1,3.48-2.32,5.25-3.7c1.6-1.38,2.21-2.55,2.43-4.59
		c0.11,0.28,0.27,0.5,0.5,0.66c0.77,0.39,1.99,0.78,2.93,0.66c0.16,0,0.33-0.11,0.5-0.27c0.17-0.39,0.6-1.27,0.5-1.93
		c-0.23-1-1.27-2.99-2.43-2.93c-0.78,0.22-1.27,0.77-1.66,1.93c-0.11-0.11-0.33-0.33-0.38,0c-0.39,1.05-0.34,2.21-0.94,3.21
		c-0.39,0.66-0.94,1.22-1.54,1.77c-1.94,1.6-4.14,2.98-6.3,4.31c-1.38-1.38-1.99-3.64-1.5-6.9c0.34-2.1,1.11-4.37,2.27-6.85
		c0.89-0.39,1.82-0.72,2.82-1.05c0.5,0.66,0.94,1.32,1.38,2.05c1.66,2.59,1.33-1.94,0.83-2.88c2.15-0.72,4.42-1.38,6.63-2.16
		c0.23-0.05,0.39-0.16,0.5-0.38c0.5-0.78,0.66-2.21,0.72-3.09c0.11-0.72,0.17-1.44-0.22-1.71c-0.22-0.44-0.72-0.94-1.38-1.44
		c-1.49-1.32-4.92-3.53-7.73-4.03c-3.65-0.55-4.98,2.76-4.92,5.74c0,0.49,0.11,0.94,0.22,1.44c0.22,0.99,1.16,2.1,1.44,2.87
		c-2.98,1.05-5.41,2.32-7.68,3.76c-3.92,2.15-7.4,5.91-10.17,8.62c-5.19,5.2-7.96,7.91-11.55,8.68c-2.98,0.16-4.2-0.89-4.86-2.32
		c2.16-1.6,4.03-3.32,5.47-5.19c1.77-2.27,2.32-4.42,2.38-6.8c1.27-0.33,3.03-1.05,4.25-2.15c2.49-3.1,2.6-9.01,2.6-12.71
		c-0.11-4.81-0.44-9.67-1-14.65c-0.44-4.97-1.05-10-1.21-14.97c0-0.28,0.33-0.44,0.33-0.66c0.38,0.55,0.77,1.16,1.16,1.71
		c0.66,0.78,1.21,1.17,1-1.1c-0.94-3.81-2.21-7.57-3.76-11.32c-0.61,1.32-1.22,2.65-1.88,3.97c0.11,0.28,0.28,0.61,0.39,0.89
		c0.05,1.88,0.05,3.65,0.11,5.53c0.11,3.53,0.27,7.02,0.55,10.5c0.55,6.8,1.11,13.65,1.72,20.44c0.05,2.82,0.44,5.97,0.33,8.46
		C223.23,415.19,221.52,415.8,219.86,416.02 M153.95,370.82c2.32-0.93,5.36-1.21,8.9-0.72c-2.49,1.93-5.69,3.65-8.73,5.36
		c-1.33,0.89-1.22,1.16,0.28,0.78c1.88-0.66,3.92-1.33,6.19-2.05c0.94-0.22,1.55-0.83,2.15-1.5c1.5-1.38,2.93-2.81,3.87-5.58
		c0.83-1.6-4.92-1.55-5.97-1.49c-1.71,0-3.26,0.22-4.09,0.99C155.77,368.05,154.77,369.44,153.95,370.82 M206.88,385.19
		c2.27-0.94,5.36-1.21,8.84-0.72c-2.49,1.93-5.64,3.65-8.68,5.36c-1.32,0.89-1.27,1.16,0.22,0.83c1.93-0.72,3.92-1.38,6.19-2.09
		c1-0.23,1.6-0.83,2.21-1.44c1.44-1.44,2.88-2.82,3.87-5.63c0.83-1.61-4.92-1.55-5.97-1.49c-1.76,0-3.31,0.22-4.09,0.99
		C208.65,382.42,207.65,383.8,206.88,385.19 M265.17,370.27c2.32-0.94,5.41-1.16,8.9-0.72c-2.49,1.93-5.69,3.65-8.73,5.36
		c-1.33,0.88-1.22,1.16,0.27,0.83c1.94-0.72,3.93-1.38,6.19-2.09c0.94-0.23,1.6-0.83,2.16-1.44c1.49-1.44,2.92-2.82,3.87-5.63
		c0.83-1.61-4.92-1.55-5.97-1.5c-1.71,0-3.26,0.22-4.09,0.99C267,367.44,266,368.89,265.17,370.27 M254.35,386.51
		c1.54,0.94,2.15,1.66,2.21,2.1c0.27,1.05-0.28,2.37-1.1,3.04c-0.67,0.55-1.44,0.5-1.88,0.5c-1.6-0.11-1.88-0.99-1.82-2.1
		c0.28-1.27,0.94-2.27,1.6-3.27c0.17-0.28,0.34-0.49,0.56-0.77c0.11-0.22,0.44-0.77,0.55-0.17
		C254.45,386.01,254.4,386.23,254.35,386.51 M255.72,389.99c-0.6,0.44-2.26,0.83-2.92-0.22c-0.28-0.61-0.06-1.05,0.55-1.82
		C254.73,388.89,255.56,389.6,255.72,389.99 M255.12,423.42c0.83-1.11,1.66-0.78,2.43,0.61
		C256.83,424.08,255.78,423.75,255.12,423.42 M282.14,435.19l-3.53,3.87l-3.87-3.59l3.59-3.81L282.14,435.19z M168.81,397.17
		l-3.59,3.82l-3.81-3.54l3.53-3.87L168.81,397.17z M281.86,427.29l-3.59,3.81l-3.81-3.53l3.54-3.87L281.86,427.29z M172.02,371.98
		c0.22-0.27,0.27-0.61,0.49-0.83c1.55,1.93,1.94,3.48,2.32,4.86c-0.89,0.05-1.61,0.89-2.05,2.43c-0.28,0.66-0.11,0.88,0.28,0.55
		c0.72-1.27,1.71-1.05,2.88,0.22c-1.77,0.28-3.27,0.78-3.98,2.43c-0.61,1.32-0.39,2.43-0.22,3.04c0.88,2.05,1.88,4.03,2.76,6.13
		c0.93,2.55,1.6,5.14,1.93,7.52c0.06,1.72,0.28,1.72,0.56,0.06c-0.06-2.54-0.61-5.3-1.6-8.07c-0.83-2.38-1.82-4.81-3.09-7.46
		c0.61-0.99,3.82-1.82,5.69-1.44c0.16-0.05,0.38-1.11,0.5-1.82c0.06-0.49-0.11-0.55-0.39-0.88c-0.77-1-1.5-2.05-2.54-2.49
		c0.06-0.06,0.06-0.11,0.06-0.11c0.38-1.61,0.71-3.37,0.99-5.69c0.17-1.21,0.28-2.54,1.05-2.76c0.44-0.17,1.38,0.77,2.15,1.49
		c0.33-0.89,0.39-1.77,0.39-2.37c-0.77-0.89-1.55-1.55-2.21-1.39c-1.5,0.78-1.72,2.66-1.99,4.26c-0.17,1.33-0.33,2.71-0.5,4.03
		c-0.33-1.16-0.77-2.27-1.38-3.21c-0.94-1.27-1.88-2.6-3.59-2.76c-0.72-0.11-0.99,0.17-1.21,0.44c-0.28,0.61-0.28,1.44-0.33,2.16
		C169.42,370.76,171.19,371.32,172.02,371.98 M155.05,389.44c-0.22,0.66-0.44,1.33-0.61,1.99c0.33,1.54,1.11,3.2,1.49,4.14
		c-0.71,0.67-1.99,0.28-2.65-0.77c-0.28-0.5-0.28-0.99-0.33-1.6c-0.22-1.66-0.44-3.15-0.94-3.81c-0.17,0.55-0.33,1.11-0.5,1.66
		c0.22,1.43,0.55,2.87,0.44,4.03c-0.89,1.99-2.21,1.6-3.04,1.1c-1.27-0.77-0.16-3.92-0.5-5.8c-0.33,0.5-0.61,1-0.94,1.44
		c0.17,0.49,0.17,0.99,0.11,1.44c-0.22,2.05-0.28,3.87,0.72,4.7c0.89,0.55,1.82,0.77,2.93-0.17c0.5-0.39,0.72-1.27,1-2.16
		c0.27,0.67,0.6,1.33,1.32,1.82c0.78,0.22,1.55,0.39,2.21-0.33c0.33-0.34,0.55-1.11,0.78-2.05c0.11-0.99-0.22-1.93-0.72-3.26
		C155.49,390.98,155.28,390.21,155.05,389.44 M185.99,429.11c-5.36,2.77-10.72,5.48-15.53,8.13c-0.11,0.55-0.44,1.22-0.61,1.77
		c5.02-2.7,10.17-5.36,15.52-7.95C185.5,430.44,185.88,429.72,185.99,429.11 M217.82,366.01c-8.46,4.31-16.8,8.62-24.2,12.82
		c-0.22,0.83-0.83,1.87-0.99,2.7c7.9-4.2,15.86-8.4,24.26-12.54C217.05,368.05,217.65,366.95,217.82,366.01 M285.62,386.35
		c-10,4.7-19.95,9.39-28.79,13.92c-0.16,0.89-0.83,1.93-0.99,2.82c9.34-4.59,18.9-9.18,28.84-13.76
		C284.85,388.39,285.45,387.29,285.62,386.35 M281.14,378.89c-0.61,0.77-1.16,0.99-1.77,0.49c-0.5-0.72-0.28-1.99,0.99-4.42
		c0.44-0.83,0.88-1.6,1.16-2.49c0.28-1.05,0-0.88-0.78,0.61c-0.77,1.38-1.66,2.6-2.32,4.31c-0.55,1.33-1.22,3.37,0.39,4.2
		c1.32,0.33,2.54-1.54,2.76-2.65C281.86,377.95,281.69,377.95,281.14,378.89 M297.55,410.71c-0.55,0.66-1.1,0.88-1.6,0.44
		c-0.5-0.66-0.28-1.82,0.89-4.03c0.38-0.77,0.83-1.44,1.05-2.32c0.28-0.94,0.05-0.72-0.67,0.61c-0.77,1.27-1.55,2.32-2.15,3.92
		c-0.5,1.16-1.11,3.09,0.39,3.81c1.16,0.33,2.32-1.38,2.48-2.37C298.16,409.83,298.05,409.83,297.55,410.71 M196.55,371.53
		c-0.56,0.67-1.11,0.94-1.6,0.5c-0.5-0.66-0.27-1.82,0.89-4.09c0.39-0.77,0.83-1.44,1.05-2.27c0.28-0.94,0-0.77-0.66,0.61
		c-0.77,1.22-1.54,2.33-2.15,3.92c-0.5,1.16-1.11,3.04,0.33,3.82c1.22,0.28,2.37-1.44,2.54-2.43
		C197.16,370.71,197.05,370.65,196.55,371.53 M141.29,407.39c-1.38,1.82-2.82,2.44-4.14,1.11c-1.6-2.82,0.72-8.12,3.87-14.36
		c1.1-2.15,2.21-3.98,2.88-6.35c0.77-2.71,0.11-2.15-1.78,1.6c-1.99,3.54-5.3,9.56-7.07,13.98c-1.27,3.26-2.71,8.4,0.66,10.78
		c3.04,0.99,6.03-3.76,6.63-6.58C142.95,404.97,142.62,404.91,141.29,407.39 M220.2,400.76c-0.67,0.83-1.33,1.11-1.99,0.55
		c-0.61-0.83-0.33-2.26,1.1-5.08c0.5-0.94,1.05-1.77,1.33-2.82c0.33-1.21,0-0.99-0.83,0.72c-0.93,1.6-1.93,2.93-2.71,4.92
		c-0.61,1.44-1.38,3.81,0.5,4.75c1.5,0.39,2.87-1.77,3.1-2.99C221.03,399.66,220.8,399.66,220.2,400.76 M246.22,398.94
		c-0.66,0.83-1.33,1.11-1.99,0.56c-0.61-0.83-0.33-2.27,1.11-5.09c0.5-0.94,1.05-1.77,1.32-2.82c0.33-1.22,0-1-0.83,0.72
		c-0.94,1.6-1.93,2.93-2.71,4.92c-0.6,1.44-1.38,3.81,0.44,4.75c1.49,0.38,2.93-1.71,3.15-2.99
		C246.99,397.84,246.83,397.84,246.22,398.94 M246.33,373.97c-0.66,0.83-1.38,1.1-2.05,0.55c-0.6-0.83-0.33-2.26,1.11-5.08
		c0.55-0.94,1.05-1.76,1.38-2.82c0.33-1.22,0-0.99-0.88,0.72c-0.94,1.55-1.87,2.93-2.7,4.92c-0.56,1.44-1.39,3.81,0.5,4.75
		c1.49,0.39,2.92-1.76,3.15-2.98C247.1,372.86,246.94,372.81,246.33,373.97 M149.52,376.24c-0.83,1.05-1.71,1.38-2.54,0.66
		c-0.72-1.05-0.33-2.87,1.6-6.3c0.66-1.22,1.33-2.21,1.77-3.54c0.45-1.5,0.06-1.22-1.1,0.88c-1.21,1.94-2.49,3.59-3.54,6.08
		c-0.77,1.82-1.87,4.75,0.39,5.97c1.88,0.55,3.7-2.1,4.09-3.65C150.57,374.91,150.35,374.91,149.52,376.24 M158.7,427.12
		c-0.67,0.83-1.33,1.16-1.99,0.61c-0.61-0.83-0.34-2.32,1.11-5.08c0.49-0.99,1.05-1.82,1.33-2.87c0.33-1.16,0-0.94-0.83,0.77
		c-0.94,1.55-1.93,2.93-2.71,4.86c-0.61,1.49-1.38,3.87,0.5,4.81c1.44,0.39,2.88-1.76,3.1-3.04
		C159.53,426.07,159.31,426.02,158.7,427.12 M201.69,425.3c-0.66,0.83-1.33,1.1-1.99,0.55c-0.6-0.83-0.33-2.27,1.11-5.08
		c0.56-0.94,1.05-1.77,1.33-2.82c0.33-1.22,0.05-1-0.83,0.72c-0.94,1.6-1.88,2.93-2.71,4.92c-0.55,1.49-1.38,3.82,0.5,4.75
		c1.49,0.38,2.87-1.72,3.15-2.98C202.52,424.19,202.35,424.19,201.69,425.3 M289.37,435.58c-0.72,0.94-1.49,1.22-2.15,0.61
		c-0.66-0.83-0.38-2.43,1.16-5.41c0.55-1.05,1.1-1.99,1.43-3.09c0.39-1.33,0-1.05-0.93,0.78c-0.99,1.71-2.04,3.2-2.87,5.3
		c-0.61,1.6-1.5,4.14,0.49,5.14c1.6,0.44,3.15-1.88,3.43-3.21C290.21,434.42,290.04,434.42,289.37,435.58 M236.28,435.63
		c-0.66,0.83-1.33,1.11-2,0.55c-0.6-0.77-0.33-2.27,1.11-5.03c0.5-0.99,1.05-1.82,1.33-2.87c0.33-1.16,0-0.94-0.89,0.72
		c-0.88,1.6-1.88,2.99-2.65,4.92c-0.61,1.5-1.38,3.87,0.44,4.75c1.5,0.44,2.93-1.72,3.15-2.98
		C237.05,434.53,236.88,434.53,236.28,435.63 M257.27,373.91c-0.89-0.55-1.82-1.1-2.54-1.66c-1.27-1.05-1.11-2.82-0.22-4.2
		c0.72-1.05,2.27-2.54,3.64-2.27c2.1,0.5,1.83,4.59,0.94,6.03c0.72,0.55,1.88,1.49,1.77,2.6c-0.05,0.66-0.49,1.38-0.99,1.82
		c-0.72-0.83-1.38-1.49-2.04-1.99c-1.93,3.37-4.81,5.03-7.57,6.91c-3.82,2.32-7.57,3.76-11.27,5.3c-1.71,0.61-1.66,0.38,0.06-0.66
		c3.81-2.05,7.57-4.09,11.22-6.47C252.69,377.72,255.06,376.07,257.27,373.91 M258.27,371.32c0.39-3.15-1.88-3.76-3.04-2.37
		C256.06,370.05,257.38,370.49,258.27,371.32 M264.29,386.4c0.17-0.22,0.27-0.55,0.5-0.77c1.32,1.87,1.6,3.31,1.77,4.64
		c0.11,1.16,0.33,1.11,0.66,0.11c0.5-1.38,0.89-3.04,1.27-5.08c0.22-1.11,0.44-2.32,1.16-2.43c0.44-0.11,1.21,0.78,1.82,1.49
		c0.38-0.77,0.5-1.55,0.56-2.1c-0.66-0.88-1.33-1.55-1.93-1.44c-1.38,0.61-1.66,2.32-2.1,3.76c-0.22,1.16-0.5,2.43-0.71,3.59
		c-0.23-1.11-0.56-2.1-1-2.98c-0.78-1.21-1.55-2.49-3.09-2.76c-0.61-0.11-0.89,0.11-1.11,0.33c-0.27,0.55-0.33,1.27-0.44,1.93
		C261.97,384.97,263.52,385.63,264.29,386.4 M150.96,412.48c0.28-0.28,0.39-0.66,0.61-0.94c1.82,2.44,2.21,4.31,2.37,6.08
		c0.11,1.55,0.44,1.5,0.94,0.17c0.56-1.82,1.11-3.97,1.66-6.74c0.28-1.39,0.55-2.99,1.49-3.15c0.61-0.16,1.55,1.05,2.43,1.99
		c0.5-1.05,0.61-2.09,0.72-2.81c-0.89-1.11-1.77-1.99-2.54-1.83c-1.88,0.78-2.27,2.98-2.76,4.92c-0.33,1.5-0.66,3.15-0.94,4.7
		c-0.33-1.38-0.78-2.77-1.32-3.92c-1.05-1.6-2.1-3.26-4.09-3.65c-0.83-0.16-1.15,0.11-1.49,0.44c-0.33,0.72-0.45,1.66-0.56,2.54
		C147.92,410.66,150.02,411.54,150.96,412.48 M159.47,385.13c0.16-0.28,0.27-0.55,0.44-0.77c1.38,1.88,1.66,3.26,1.82,4.64
		c0.05,1.17,0.33,1.11,0.66,0.12c0.5-1.39,0.89-3.04,1.27-5.14c0.22-1.05,0.44-2.27,1.16-2.38c0.44-0.11,1.16,0.77,1.82,1.49
		c0.39-0.77,0.5-1.55,0.55-2.15c-0.67-0.83-1.32-1.49-1.93-1.38c-1.38,0.61-1.71,2.32-2.1,3.76c-0.22,1.16-0.5,2.43-0.72,3.59
		c-0.22-1.1-0.56-2.1-0.99-2.99c-0.77-1.21-1.55-2.48-3.1-2.76c-0.61-0.16-0.88,0.06-1.16,0.33c-0.22,0.5-0.33,1.27-0.38,1.93
		C157.15,383.69,158.76,384.36,159.47,385.13 M195.05,389.55c0.17-0.22,0.28-0.5,0.44-0.77c1.38,1.87,1.66,3.31,1.82,4.64
		c0.06,1.16,0.34,1.16,0.66,0.11c0.5-1.38,0.88-2.98,1.27-5.09c0.22-1.05,0.44-2.26,1.16-2.43c0.44-0.11,1.16,0.77,1.82,1.55
		c0.39-0.83,0.5-1.6,0.55-2.16c-0.66-0.83-1.32-1.5-1.93-1.38c-1.38,0.56-1.71,2.27-2.1,3.7c-0.22,1.16-0.5,2.43-0.72,3.59
		c-0.22-1.05-0.55-2.1-0.99-2.93c-0.78-1.27-1.55-2.49-3.1-2.82c-0.61-0.11-0.89,0.11-1.16,0.33c-0.22,0.55-0.33,1.27-0.39,1.94
		C192.74,388.11,194.28,388.78,195.05,389.55 M276.61,404.75c0.22-0.23,0.28-0.5,0.5-0.72c1.33,1.82,1.65,3.21,1.77,4.59
		c0.11,1.15,0.33,1.15,0.72,0.11c0.44-1.38,0.83-2.99,1.27-5.08c0.22-1.05,0.38-2.27,1.1-2.44c0.5-0.11,1.21,0.78,1.88,1.49
		c0.38-0.78,0.44-1.54,0.5-2.1c-0.6-0.83-1.27-1.55-1.93-1.38c-1.38,0.55-1.66,2.26-2.05,3.7c-0.22,1.15-0.5,2.43-0.72,3.59
		c-0.28-1.05-0.61-2.1-1.05-2.99c-0.77-1.21-1.55-2.43-3.1-2.76c-0.61-0.11-0.89,0.12-1.11,0.33c-0.28,0.56-0.33,1.27-0.44,1.94
		C274.29,403.31,275.89,404.03,276.61,404.75 M231.41,369.27c0.23,0.28,0.39,0.61,0.44,1c0.11,1.66,0.27,3.37,0.38,5.03
		c0.22,2.1,0.39,4.2,0.61,6.24c0.22,2.66,0.33,4.65,0.61,7.24c0.66,7.51,1.15,15.14,1.66,22.71c0.06,1.94,0,3.81-0.05,5.47
		c-0.06,1.27,0.11,1.39,0.6,0.23c0.61-1.11,1.05-2.88,1.27-5.2c0.83-7.35,0-15.92-0.78-23.37c-0.27-2.6-0.44-4.53-0.71-7.18
		c-0.17-1.82-0.38-3.59-0.5-5.41c0.05-0.22,0.05-0.5,0.27-0.72c0.78,0.55,1.61,2.6,2,2.1c0.05-0.05,0.05-0.11,0.11-0.22
		c0.22-1.44-0.72-3.53-1.66-5.69c-0.89-2.04-1.71-4.09-2.6-6.19C232.52,366.62,231.97,367.95,231.41,369.27 M269.21,417.12
		c-2.15-3.04-4.47-3.1-5.97-0.83C263.35,417.23,266.89,417.45,269.21,417.12 M186.82,411.15c3.43-3.7,8.29-8.67,13.37-9.95
		c3.92-0.99,8.4-0.27,10.89,2.82C203.62,408.28,194.78,409.88,186.82,411.15 M214.78,421.76c1.16-0.16,2.21-0.39,3.04-0.61
		c0.28,0.61,0.44,1.22,0.61,1.82c-2.1,2.05-4.19,3.64-6.35,5.08c0.16-0.61,0.33-1.33,0.66-2.1
		C213.29,424.47,214,423.14,214.78,421.76 M249.2,412.65c1.72-0.61,3.54-1.16,5.36-1.71c-2.54-1.49-6.19-3.81-7.85-1.55
		C247.77,410.49,248.43,411.6,249.2,412.65 M215.72,416.84c-2.16-2.93-4.47-3.21-5.86-0.72
		C210.03,417.07,213.84,417.07,215.72,416.84"/>
	<path class="st1" d="M242.46,459.67c2.7,2.04,4.53,4.47,5.42,7.18c-3.09,0.94-8.79,1.88-9.34,0.11c-0.06-0.05-0.39,0.55-0.39,1.44
		c-0.11,1.16,0,1.99,0.61,2.93c1.33,0.72,8.78-0.83,9.5-1.16c1.88-6.24-0.88-10.22-5.03-13.76
		C242.68,456.9,242.41,458.62,242.46,459.67"/>
	<path class="st1" d="M230.58,452.27c4.26,7.68,4.69,12.21,1.76,15.96c-0.11,0.17-4.69-0.83-4.8-0.6c-0.06,0.27-0.94,1.88-1.82,2.26
		c-0.17,0.11-1.88-0.72-3.1-1c-0.72,0.39-1.44,1.38-2.87,1.33c-2.32,0.05-5.75-0.44-6.08-0.38c-4.36,0.71-8.67,1.05-12.92,0.11
		c-0.94,0.5-1.05,0.94-1.72,0.94c-0.99-0.05-2.1-0.5-3.26-0.94c-2.05-0.83-3.98-2.1-4.64-2.71c-2.05,3.1-5.03,3.92-6.96,1.33
		c-1.32-1.66-1.77-7.08-1.77-7.08l-0.77,1.32c-1.38,1.33-3.7,1.77-3.87,1.66c-1.77,6.24-5.97,9.12-8.07,9.56
		c-3.75,0.11-8.89-2.81-9.34-3.87c-0.05-0.16-0.33-0.83-0.22-0.83c1.16,0.94,2.04,1.55,2.93,1.88c2.43,0.77,4.69,0.66,6.85-0.28
		c0.39-0.22,0.78-0.44,1.16-0.67c1.99-1.21,4.25-2.92,5.53-5.3c-0.22-1.38-2.1-2.48-1.77-3.03c0.66-3.48,0.72-3.48,0.72-3.27
		c0.05,0.44,2.04,2.37,2.15,2.21c0.55,0.83,3.98-0.39,3.7-0.88c0-0.06,1.49-3.32,1.49-3.43c0.61-0.66,0.33,3.43,0.94,6.36
		c0.44,1.38,0.72,2.76,2.1,3.42c1.55,0.77,2.98,0.61,4.86-0.5c0.22,0,0.94-5.47,5.42-5.69c1.82,0.05,0.05,5.41,7.12,6.69
		c5.14,0.89,11.99,0.33,12.76-1.38c1.1-0.66,0.28,0.11,0.28,0.72c0,0.17,0,0.28,0.11,0.44c0.11,0.06,0.22,0.22,0.5,0.28
		c1.66,0.27,5.25,0.55,5.63-0.44c0.5-1.16,0.17-1.93,1.38-3.1c-0.22,1.5-0.16,2.21,0.06,2.33c0.44,0.33,3.15,1.21,2.87,0.77v-0.83
		l1.05-2.26l0.06-0.11c-0.17,0.83,0.17,1,0.55,1.39c1.82,0.94,4.04,0.99,4.64,0.88c0.17-2.27-1.15-6.85-3.37-9.78L230.58,452.27z
		 M193.07,464.26c0.44-0.5,1.11-1.05,2.49-0.78c0.99,0.72,0.99,1.88,1.65,2.99C195.72,466.08,194.06,465.03,193.07,464.26"/>
	<path class="st1" d="M189.14,453.7c0.66-0.89,4.42-0.55,3.98-0.06c-0.44,0.5-4.37,2.76-4.37,2.76c-0.05,0.17,4.04-0.88,4.09-1.05
		c0.5-0.06,2.98-3.65,2.65-3.87c-0.05-0.05-3.26-0.94-3.92-0.66C191.3,450.55,188.92,453.31,189.14,453.7"/>
	
		<rect x="178.17" y="472.4" transform="matrix(0.7071 -0.7071 0.7071 0.7071 -282.5943 266.1421)" class="st1" width="3.6" height="3.6"/>
	<polygon class="st1" points="227.27,472.6 229.7,475.08 227.27,477.52 224.78,475.08 	"/>
	<polygon class="st1" points="232.96,472.32 235.45,474.81 232.96,477.24 230.48,474.81 	"/>
</g>
</svg>
